<svg width="369" height="386" viewBox="0 0 369 386" fill="none" xmlns="http://www.w3.org/2000/svg">
<g opacity="0.3">
<path d="M37.3965 59.0954V61.2219" stroke="black" stroke-linejoin="round"/>
<path d="M37.3965 65.8151V81.8914" stroke="black" stroke-linejoin="round" stroke-dasharray="5.4 5.4"/>
<path d="M37.3965 84.188V86.3145H39.523" stroke="black" stroke-linejoin="round"/>
<path d="M43.6992 86.3145H175.236" stroke="black" stroke-linejoin="round" stroke-dasharray="4.91 4.91"/>
<path d="M177.32 86.3145H179.447V88.441" stroke="black" stroke-linejoin="round"/>
<path d="M179.447 92.711V304.059" stroke="black" stroke-linejoin="round" stroke-dasharray="5.02 5.02"/>
<path d="M179.447 306.194V308.321H181.574" stroke="black" stroke-linejoin="round"/>
<path d="M184.125 308.321H187.953" stroke="black" stroke-linejoin="round" stroke-dasharray="3 3"/>
<path d="M189.229 308.321H191.355" stroke="black" stroke-linejoin="round"/>
<path d="M11.0293 302.366V300.24" stroke="black" stroke-linejoin="round"/>
<path d="M11.0293 295.868V210.561" stroke="black" stroke-linejoin="round" stroke-dasharray="5.14 5.14"/>
<path d="M11.0293 208.375V206.249H13.1558" stroke="black" stroke-linejoin="round"/>
<path d="M17.0332 206.249H46.0896" stroke="black" stroke-linejoin="round" stroke-dasharray="4.56 4.56"/>
<path d="M48.0293 206.249H50.1558V208.375" stroke="black" stroke-linejoin="round"/>
<path d="M50.1562 212.594V303.234" stroke="black" stroke-linejoin="round" stroke-dasharray="4.96 4.96"/>
<path d="M50.1562 305.343V307.47H52.2827" stroke="black" stroke-linejoin="round"/>
<path d="M56.6113 307.47H149.641" stroke="black" stroke-linejoin="round" stroke-dasharray="5.09 5.09"/>
<path d="M151.803 307.47H153.929V305.343" stroke="black" stroke-linejoin="round"/>
<path d="M153.93 301.073V123.749" stroke="black" stroke-linejoin="round" stroke-dasharray="5.02 5.02"/>
<path d="M153.93 121.614V119.488H156.056" stroke="black" stroke-linejoin="round"/>
<path d="M160.207 119.488H324.1" stroke="black" stroke-linejoin="round" stroke-dasharray="4.88 4.88"/>
<path d="M326.176 119.488H328.302" stroke="black" stroke-linejoin="round"/>
<path d="M47.6038 38.562C47.6038 35.8549 46.5284 33.2586 44.6142 31.3444C42.7 29.4302 40.1037 28.3548 37.3966 28.3548C34.6895 28.3548 32.0933 29.4302 30.1791 31.3444C28.2648 33.2586 27.1895 35.8549 27.1895 38.562C27.1895 44.1929 37.3966 55.5739 37.3966 55.5739C37.3966 55.5739 47.6038 44.1929 47.6038 38.562Z" stroke="black" stroke-linejoin="round"/>
<path d="M41.7695 38.562C41.7695 37.6972 41.5131 36.852 41.0327 36.133C40.5523 35.414 39.8695 34.8536 39.0706 34.5227C38.2717 34.1918 37.3926 34.1052 36.5445 34.2739C35.6964 34.4426 34.9174 34.859 34.3059 35.4704C33.6945 36.0819 33.2781 36.8609 33.1094 37.709C32.9407 38.5571 33.0273 39.4362 33.3582 40.2351C33.6891 41.034 34.2495 41.7168 34.9685 42.1972C35.6875 42.6776 36.5328 42.934 37.3975 42.934C38.5563 42.9318 39.6671 42.4704 40.4865 41.651C41.3059 40.8316 41.7673 39.7208 41.7695 38.562Z" stroke="black" stroke-linejoin="round"/>
<path d="M341.333 104.509C341.264 102.345 340.356 100.293 338.801 98.7873C337.246 97.2813 335.166 96.4392 333.002 96.4392C330.837 96.4392 328.757 97.2813 327.202 98.7873C325.647 100.293 324.739 102.345 324.67 104.509C324.67 109.111 333.006 118.399 333.006 118.399C333.006 118.399 341.333 109.111 341.333 104.509Z" stroke="black" stroke-linejoin="round"/>
<path d="M333.006 108.081C334.979 108.081 336.579 106.482 336.579 104.509C336.579 102.536 334.979 100.936 333.006 100.936C331.033 100.936 329.434 102.536 329.434 104.509C329.434 106.482 331.033 108.081 333.006 108.081Z" stroke="black" stroke-linejoin="round"/>
<path d="M329.406 156.531C329.457 154.317 329.064 152.114 328.251 150.053C327.438 147.992 326.221 146.115 324.672 144.53C323.124 142.946 321.274 141.688 319.232 140.828C317.19 139.969 314.997 139.526 312.782 139.526C310.566 139.526 308.373 139.969 306.331 140.828C304.289 141.688 302.439 142.946 300.891 144.53C299.342 146.115 298.125 147.992 297.312 150.053C296.499 152.114 296.106 154.317 296.157 156.531C296.157 165.709 312.777 184.244 312.777 184.244C312.777 184.244 329.406 165.709 329.406 156.531Z" stroke="black" stroke-linejoin="round"/>
<path d="M312.778 163.659C316.715 163.659 319.906 160.468 319.906 156.531C319.906 152.595 316.715 149.403 312.778 149.403C308.842 149.403 305.65 152.595 305.65 156.531C305.65 160.468 308.842 163.659 312.778 163.659Z" stroke="black" stroke-linejoin="round"/>
<path d="M54.8434 171.561C54.8434 168.128 53.4794 164.835 51.0515 162.407C48.6237 159.979 45.3308 158.615 41.8973 158.615C38.4638 158.615 35.1709 159.979 32.743 162.407C30.3151 164.835 28.9512 168.128 28.9512 171.561C28.9512 178.706 41.8973 193.133 41.8973 193.133C41.8973 193.133 54.8434 178.706 54.8434 171.561Z" stroke="black" stroke-linejoin="round"/>
<path d="M47.4434 171.561C47.4434 170.465 47.1181 169.392 46.5087 168.48C45.8993 167.568 45.0332 166.857 44.0198 166.438C43.0064 166.018 41.8913 165.908 40.8155 166.122C39.7397 166.336 38.7515 166.864 37.9759 167.64C37.2003 168.415 36.6721 169.404 36.4581 170.479C36.2441 171.555 36.354 172.67 36.7737 173.684C37.1935 174.697 37.9043 175.563 38.8163 176.173C39.7283 176.782 40.8006 177.107 41.8975 177.107C42.6258 177.107 43.3469 176.964 44.0198 176.685C44.6926 176.406 45.304 175.998 45.819 175.483C46.334 174.968 46.7425 174.357 47.0212 173.684C47.2999 173.011 47.4434 172.29 47.4434 171.561Z" stroke="black" stroke-linejoin="round"/>
<path d="M17.6547 317.847C17.6547 316.754 17.4393 315.671 17.0208 314.66C16.6023 313.65 15.9889 312.732 15.2157 311.959C14.4424 311.186 13.5244 310.572 12.5141 310.154C11.5038 309.735 10.4209 309.52 9.32735 309.52C8.23379 309.52 7.15093 309.735 6.14061 310.154C5.13029 310.572 4.21229 311.186 3.43902 311.959C2.66576 312.732 2.05237 313.65 1.63388 314.66C1.21539 315.671 1 316.754 1 317.847C1 322.449 9.32735 331.729 9.32735 331.729C9.32735 331.729 17.6547 322.449 17.6547 317.847Z" stroke="black" stroke-linejoin="round"/>
<path d="M9.32642 321.42C11.2995 321.42 12.8989 319.82 12.8989 317.847C12.8989 315.874 11.2995 314.275 9.32642 314.275C7.35337 314.275 5.75391 315.874 5.75391 317.847C5.75391 319.82 7.35337 321.42 9.32642 321.42Z" stroke="black" stroke-linejoin="round"/>
</g>
<path d="M256.852 48.1907V307.028C256.852 313.907 254.121 320.505 249.26 325.372C244.399 330.24 237.805 332.979 230.925 332.988H107.81C100.925 332.988 94.3217 330.253 89.4532 325.384C84.5847 320.516 81.8496 313.913 81.8496 307.028V48.1907C81.8519 41.3071 84.588 34.7062 89.4562 29.8396C94.3244 24.9729 100.926 22.239 107.81 22.239H159.288L159.339 22.4261C160.862 27.904 164.366 31.468 168.253 31.468H170.482C174.369 31.468 177.874 27.904 179.396 22.4261L179.456 22.239H230.925C237.803 22.248 244.396 24.9859 249.257 29.8516C254.118 34.7173 256.849 41.313 256.852 48.1907Z" fill="#D6D6D6"/>
<path d="M189.187 211.82V129.916H226.783C227.108 129.917 227.427 129.824 227.702 129.65C227.976 129.475 228.194 129.225 228.331 128.929L256.852 66.4956V58.3129L225.652 126.514H189.187V22.239H185.784V64.199C151.828 60.8476 131.933 76.8559 121.19 91.0438C114.437 100.093 109.416 110.313 106.381 121.189L81.8496 105.615V109.646L125.783 137.538V187.306L81.8751 179.293V182.755L185.81 201.707V211.063L81.8751 294.082V298.437L128.879 260.891L164.698 309.375C164.856 309.589 165.063 309.763 165.301 309.883C165.538 310.002 165.801 310.065 166.067 310.064C166.211 310.064 166.353 310.047 166.493 310.013L222.964 295.553V332.988H226.366V262.55C226.365 262.236 226.277 261.928 226.112 261.661C225.947 261.393 225.711 261.177 225.431 261.036L212.748 254.622L234.421 230.976L256.852 239.618V236.02L234.506 227.429C234.187 227.304 233.838 227.279 233.504 227.356C233.17 227.434 232.867 227.61 232.635 227.863L209.567 253.032L166.135 231.061L188.54 213.156C188.742 212.996 188.905 212.793 189.017 212.562C189.129 212.331 189.187 212.077 189.187 211.82ZM222.938 263.596V291.955L166.731 306.356L131.516 258.722L163.209 233.4L222.938 263.596ZM185.784 198.219L129.16 187.893V139.647L185.784 175.627V198.219ZM185.784 171.57L109.4 123.086C112.285 112.261 117.191 102.079 123.861 93.0768C138.712 73.462 159.535 64.8965 185.742 67.5588L185.784 171.57Z" fill="white"/>
<path d="M256.884 176.801H251.789L238.928 208.962H213.206L226.781 177.516H206.775V146.792H236.784L256.884 107.775V176.801Z" fill="#C4C4C4"/>
<path d="M113.95 52.2906H88.4316V73.5556H113.95V52.2906Z" fill="#C4C4C4"/>
<path d="M136.576 52.2906H118.203V67.6014H136.576V52.2906Z" fill="#C4C4C4"/>
<path d="M117.08 120.015L180.237 160.801V75.2568C180.237 75.2568 135.062 70.9017 117.08 120.015Z" fill="#C4C4C4"/>
<path d="M153.928 52.2906H142.02V62.2171H153.928V52.2906Z" fill="#C4C4C4"/>
<path d="M176.044 252.181L153.078 268.342L165.837 292.159L211.769 289.607L214.321 267.492L196.459 259.836L188.803 271.745L181.148 267.492L187.953 254.733L176.044 252.181Z" fill="#C4C4C4"/>
<path d="M102.451 204.199V250.148L81.8496 260.628V203.229L102.451 204.199Z" fill="#C4C4C4"/>
<path d="M136.746 232.719V205.815L108.166 204.471V247.248L136.746 232.719Z" fill="#C4C4C4"/>
<path d="M141.033 206.019V230.542L158.181 221.823V206.819L141.033 206.019Z" fill="#C4C4C4"/>
<path d="M268.019 117.268V84.3752H265.042V42.2621C265.04 35.3777 262.304 28.7759 257.436 23.9079C252.568 19.0399 245.966 16.3041 239.082 16.3018H99.6517C92.7673 16.3041 86.1655 19.0399 81.2975 23.9079C76.4295 28.7759 73.6937 35.3777 73.6914 42.2621V325.571C73.6914 332.456 76.4265 339.059 81.295 343.927C86.1635 348.796 92.7666 351.531 99.6517 351.531H239.082C245.967 351.531 252.57 348.796 257.438 343.927C262.307 339.059 265.042 332.456 265.042 325.571V145.303H268.019V125.867H265.042V117.268H268.019ZM256.851 307.028C256.851 313.907 254.12 320.505 249.259 325.372C244.398 330.24 237.804 332.979 230.924 332.988H107.809C100.924 332.988 94.3207 330.253 89.4522 325.384C84.5837 320.516 81.8486 313.913 81.8486 307.028V48.1907C81.8509 41.3071 84.587 34.7062 89.4552 29.8396C94.3235 24.9729 100.925 22.239 107.809 22.239H159.287L159.338 22.4261C160.861 27.904 164.365 31.468 168.252 31.468H170.481C174.368 31.468 177.873 27.904 179.395 22.4261L179.455 22.239H230.924C237.802 22.248 244.395 24.9859 249.256 29.8516C254.117 34.7173 256.848 41.313 256.851 48.1907V307.028Z" fill="#707070" stroke="#263238" stroke-linejoin="round"/>
<path d="M236.08 19.8828H102.655C99.2461 19.8828 95.8708 20.5544 92.7216 21.8591C89.5724 23.1638 86.7112 25.0762 84.3012 27.4869C81.8913 29.8977 79.9798 32.7596 78.6761 35.9092C77.3724 39.0588 76.702 42.4343 76.7031 45.8431V321.998C76.7031 328.882 79.437 335.484 84.3037 340.352C89.1703 345.22 95.7712 347.956 102.655 347.958H236.08C242.963 347.956 249.564 345.22 254.431 340.352C259.297 335.484 262.031 328.882 262.031 321.998V45.8431C262.032 42.4343 261.362 39.0588 260.058 35.9092C258.755 32.7596 256.843 29.8977 254.433 27.4869C252.023 25.0762 249.162 23.1638 246.013 21.8591C242.864 20.5544 239.488 19.8828 236.08 19.8828ZM256.851 307.028C256.851 313.907 254.121 320.505 249.26 325.372C244.399 330.24 237.804 332.979 230.925 332.988H107.809C100.924 332.988 94.3213 330.253 89.4528 325.384C84.5843 320.516 81.8492 313.913 81.8492 307.028V48.1907C81.8515 41.3071 84.5876 34.7062 89.4558 29.8396C94.3241 24.9729 100.926 22.239 107.809 22.239H159.288L159.339 22.4261C160.861 27.904 164.366 31.468 168.253 31.468H170.482C174.369 31.468 177.873 27.904 179.396 22.4261L179.455 22.239H230.925C237.803 22.248 244.396 24.9859 249.257 29.8516C254.118 34.7173 256.849 41.313 256.851 48.1907V307.028Z" fill="#263238" stroke="#263238" stroke-linejoin="round"/>
<path d="M168.831 25.9136C170.175 25.9136 171.264 24.8244 171.264 23.4809C171.264 22.1373 170.175 21.0482 168.831 21.0482C167.488 21.0482 166.398 22.1373 166.398 23.4809C166.398 24.8244 167.488 25.9136 168.831 25.9136Z" fill="white"/>
<path d="M97.4057 32.8204C97.4057 35.2872 94.6413 36.1718 94.6243 38.0601V38.1877H97.3122V39.0383H93.7227V38.3408C93.7227 35.6955 96.4956 35.1851 96.4956 32.88C96.4956 32.0294 96.2149 31.5956 95.5344 31.5956C94.854 31.5956 94.5818 32.0804 94.5818 32.8034V33.5264H93.7312V32.863C93.7312 31.6126 94.3096 30.779 95.5685 30.779C96.8273 30.779 97.4057 31.5701 97.4057 32.8204Z" fill="#263238"/>
<path d="M101.88 32.8119V33.0246C101.927 33.3774 101.855 33.7358 101.677 34.0436C101.498 34.3515 101.223 34.5914 100.893 34.7258C101.22 34.8636 101.493 35.1043 101.671 35.4112C101.849 35.7181 101.922 36.0747 101.88 36.427V37.0564C101.88 38.3068 101.301 39.1234 100.034 39.1234C98.7665 39.1234 98.2051 38.2728 98.2051 37.0564V36.4695H99.0557V37.0904C99.0557 37.8219 99.3619 38.2643 100.017 38.2643C100.672 38.2643 100.97 37.8305 100.97 37.0054V36.3759C100.97 35.5679 100.629 35.1851 99.9403 35.1596H99.4895V34.309H100.025C100.167 34.3105 100.307 34.2813 100.436 34.2234C100.566 34.1655 100.681 34.0802 100.774 33.9734C100.867 33.8666 100.935 33.741 100.975 33.6051C101.015 33.4691 101.024 33.3262 101.004 33.1862V32.8119C101.004 31.9613 100.714 31.536 100.051 31.536C99.3874 31.536 99.0897 31.9954 99.0897 32.7269V33.1522H98.2391V32.8119C98.2391 31.5615 98.8175 30.7535 100.068 30.7535C101.318 30.7535 101.88 31.5615 101.88 32.8119Z" fill="#263238"/>
<path d="M103.649 33.4329V34.5642H102.799V33.4329H103.649ZM103.649 37.8815V39.0128H102.799V37.8815H103.649Z" fill="#263238"/>
<path d="M105.495 34.1644C105.614 33.9496 105.792 33.7726 106.007 33.6538C106.222 33.535 106.466 33.4791 106.711 33.4924C107.766 33.4924 108.225 34.2579 108.225 35.4318V37.0309C108.225 38.2813 107.63 39.0978 106.38 39.0978C105.129 39.0978 104.551 38.2472 104.551 37.0309V36.478H105.401V37.0904C105.401 37.8219 105.708 38.2643 106.363 38.2643C107.018 38.2643 107.315 37.8219 107.315 37.0904V35.4998C107.315 34.7598 107.018 34.3175 106.363 34.3175C106.245 34.3068 106.126 34.3209 106.013 34.3589C105.901 34.3968 105.798 34.4578 105.711 34.5378C105.624 34.6179 105.554 34.7153 105.507 34.8239C105.459 34.9324 105.435 35.0496 105.435 35.1681V35.3552H104.585L104.806 30.813H107.996V31.6636H105.589L105.495 34.1644Z" fill="#263238"/>
<path d="M112.776 32.7949V32.948H111.926V32.7269C111.926 31.9868 111.62 31.553 110.956 31.553C110.293 31.553 109.961 31.9954 109.961 32.8715V34.7088C110.059 34.4437 110.241 34.2175 110.479 34.0642C110.716 33.9109 110.997 33.8386 111.279 33.8582C112.334 33.8582 112.802 34.6152 112.802 35.7975V37.0394C112.802 38.2898 112.181 39.1063 110.931 39.1063C109.68 39.1063 109.051 38.2558 109.051 37.0394V32.8545C109.051 31.5615 109.629 30.7535 110.931 30.7535C112.232 30.7535 112.776 31.5445 112.776 32.7949ZM109.961 35.8571V37.0904C109.961 37.8219 110.267 38.2643 110.931 38.2643C111.594 38.2643 111.9 37.8219 111.9 37.0904V35.8571C111.9 35.1256 111.586 34.6832 110.931 34.6832C110.276 34.6832 109.961 35.1256 109.961 35.8571Z" fill="#263238"/>
<path d="M202.071 33.1607H199.758V38.9362H202.071V33.1607Z" fill="#263238"/>
<path d="M205.152 32.0039H202.838V38.9362H205.152V32.0039Z" fill="#263238"/>
<path d="M208.23 31.1788H205.916V38.9277H208.23V31.1788Z" fill="#263238"/>
<path d="M211.301 29.7498H208.996V38.9277H211.301V29.7498Z" fill="#263238"/>
<path d="M239.882 38.7746H226.025V30.2686H239.882V38.7746ZM226.799 38.0006H239.116V31.0767H226.799V38.0006Z" fill="#263238"/>
<path d="M235.262 31.9103H227.947V37.167H235.262V31.9103Z" fill="#263238"/>
<path d="M241.14 33.5434H239.396V35.5423H241.14V33.5434Z" fill="#263238"/>
<path d="M220.947 36.9288C220.855 36.9328 220.763 36.9091 220.684 36.8608C217.86 35.1596 215.997 36.7417 215.92 36.8012C215.817 36.8914 215.681 36.9366 215.544 36.9271C215.407 36.9175 215.279 36.8539 215.189 36.7502C215.144 36.6995 215.111 36.6405 215.089 36.5766C215.068 36.5128 215.059 36.4453 215.064 36.3781C215.069 36.3108 215.087 36.2452 215.117 36.185C215.147 36.1248 215.189 36.0711 215.24 36.0272C215.333 35.9336 217.724 33.8922 221.194 35.9676C221.253 36.0027 221.304 36.049 221.345 36.1039C221.386 36.1588 221.416 36.2213 221.432 36.2877C221.449 36.3541 221.452 36.4232 221.442 36.4909C221.432 36.5586 221.408 36.6236 221.373 36.6821C221.328 36.7558 221.266 36.8169 221.192 36.8601C221.117 36.9032 221.033 36.9268 220.947 36.9288Z" fill="#263238"/>
<path d="M221.975 35.1936C221.882 35.1922 221.791 35.1658 221.712 35.117C217.637 32.6928 214.907 35.0405 214.864 35.066C214.76 35.1504 214.627 35.1909 214.493 35.1791C214.359 35.1673 214.235 35.1041 214.147 35.0027C214.059 34.9014 214.013 34.7698 214.02 34.6356C214.027 34.5015 214.086 34.3753 214.184 34.2835C214.184 34.2835 217.527 31.4255 222.239 34.2324C222.357 34.3017 222.443 34.4147 222.478 34.5469C222.513 34.6791 222.494 34.8198 222.426 34.9384C222.379 35.0156 222.312 35.0795 222.234 35.1241C222.155 35.1687 222.066 35.1926 221.975 35.1936Z" fill="#263238"/>
<path d="M222.938 33.1777C222.844 33.1786 222.753 33.152 222.674 33.1011C217.503 30.0305 214.075 32.9225 213.93 33.0501C213.826 33.1402 213.691 33.1855 213.554 33.1759C213.417 33.1664 213.289 33.1027 213.199 32.9991C213.154 32.9484 213.12 32.8894 213.099 32.8255C213.077 32.7616 213.069 32.6941 213.074 32.6269C213.078 32.5597 213.096 32.4941 213.127 32.4339C213.157 32.3736 213.199 32.32 213.25 32.276C213.292 32.276 217.367 28.7461 223.202 32.2165C223.26 32.2507 223.311 32.2962 223.352 32.3504C223.393 32.4046 223.422 32.4663 223.439 32.532C223.456 32.5978 223.459 32.6661 223.449 32.7332C223.439 32.8002 223.416 32.8646 223.38 32.9225C223.335 32.9996 223.27 33.0636 223.193 33.1083C223.115 33.153 223.027 33.1769 222.938 33.1777Z" fill="#263238"/>
<path d="M218.089 39.0978C218.807 39.0978 219.39 38.5152 219.39 37.7964C219.39 37.0777 218.807 36.495 218.089 36.495C217.37 36.495 216.787 37.0777 216.787 37.7964C216.787 38.5152 217.37 39.0978 218.089 39.0978Z" fill="#263238"/>
<path d="M341.266 258.331C341.308 258.331 342.117 255.218 342.117 255.014C342.448 252.657 341.7 247.911 339.293 246.746C338.891 246.57 338.456 246.48 338.017 246.482C337.578 246.484 337.145 246.577 336.744 246.757C336.344 246.936 335.985 247.198 335.692 247.524C335.398 247.85 335.176 248.234 335.04 248.651C334.393 250.42 335.21 252.589 336.179 254.078C337.302 255.83 341.266 258.322 341.266 258.331Z" fill="#263238"/>
<path d="M293.946 257.285C295.86 258.135 300.538 258.008 300.538 258.008C300.538 258.008 299.535 254.946 299.45 254.758C298.42 252.615 295.197 249.068 292.534 249.425C292.095 249.494 291.676 249.655 291.303 249.898C290.931 250.14 290.614 250.458 290.373 250.832C290.132 251.205 289.973 251.625 289.906 252.064C289.838 252.504 289.864 252.952 289.982 253.38C290.442 255.226 292.313 256.587 293.946 257.285Z" fill="#263238"/>
<path d="M355.232 241.37C352.578 241.089 349.431 244.721 348.427 246.89C348.342 247.086 347.373 250.174 347.424 250.174H347.475C346.973 250.744 346.445 251.356 345.875 252.045C344.838 253.312 343.681 254.758 342.524 256.426C341.259 258.201 340.1 260.05 339.054 261.963C337.867 264.096 336.873 266.33 336.085 268.64V268.725C336.085 267.951 336.085 265.765 336.043 265.595C335.736 263.239 333.754 258.858 331.135 258.373C330.698 258.303 330.251 258.327 329.824 258.441C329.396 258.556 328.998 258.76 328.655 259.04C328.312 259.319 328.032 259.668 327.834 260.063C327.635 260.459 327.522 260.892 327.503 261.334C327.341 263.213 328.702 265.085 330.054 266.275C331.551 267.611 335.702 268.904 336.009 269.006C335.264 271.377 334.679 273.795 334.256 276.244C334.001 277.673 333.788 279.111 333.593 280.566C333.593 279.885 333.593 279.281 333.593 279.205C333.287 276.84 331.305 272.459 328.685 271.974C328.248 271.906 327.801 271.93 327.373 272.046C326.946 272.162 326.548 272.367 326.205 272.647C325.862 272.927 325.583 273.276 325.384 273.672C325.185 274.068 325.073 274.501 325.053 274.943C324.891 276.814 326.252 278.694 327.605 279.877C328.957 281.059 332.47 282.25 333.406 282.556C333.329 283.109 333.261 283.662 333.193 284.257C332.87 286.928 332.564 289.599 332.181 292.21C332.053 293.129 331.883 294.03 331.721 294.932C331.721 294.337 331.721 293.826 331.721 293.75C331.415 291.394 329.442 287.013 326.814 286.528C326.376 286.46 325.929 286.484 325.502 286.6C325.075 286.716 324.677 286.92 324.334 287.201C323.991 287.481 323.711 287.83 323.513 288.226C323.314 288.621 323.201 289.055 323.182 289.497C323.028 291.368 324.389 293.248 325.733 294.43C327.077 295.613 330.258 296.693 331.364 297.05C331.169 297.969 330.981 298.887 330.752 299.772C330.573 300.367 330.454 300.954 330.25 301.55C330.046 302.145 329.867 302.724 329.689 303.302C329.28 304.399 328.881 305.539 328.464 306.602C328.175 307.342 327.894 308.048 327.613 308.754C327.758 307.836 328.004 306.041 328.004 305.888C327.972 303.796 327.407 301.747 326.363 299.934C326.37 299.7 326.356 299.467 326.32 299.236C326.265 298.797 326.118 298.374 325.889 297.996C325.66 297.617 325.354 297.291 324.991 297.038C324.627 296.785 324.215 296.612 323.78 296.529C323.345 296.446 322.898 296.456 322.467 296.557C319.915 297.246 318.257 301.771 318.129 304.144C318.129 304.28 318.214 305.845 318.291 306.781C318.163 306.22 318.044 305.675 317.899 305.08C317.627 303.94 317.329 302.817 317.006 301.601L316.394 299.815C316.232 299.228 315.977 298.624 315.773 298.02C315.262 296.625 314.684 295.238 314.072 293.852C315.067 293.614 318.597 292.712 320.026 291.632C321.455 290.552 322.935 288.774 322.918 286.894C322.93 286.452 322.849 286.012 322.68 285.603C322.511 285.193 322.258 284.825 321.937 284.52C321.616 284.215 321.235 283.981 320.817 283.833C320.4 283.685 319.957 283.627 319.515 283.662C316.862 283.951 314.565 288.17 314.089 290.466C314.089 290.62 313.901 292.329 313.833 293.265C313.451 292.414 313.076 291.615 312.668 290.781C311.486 288.4 310.21 286.026 308.951 283.645C308.56 282.913 308.185 282.19 307.811 281.459C308.168 281.374 312.379 280.395 313.97 279.179C315.382 278.099 316.87 276.33 316.862 274.45C316.874 274.007 316.793 273.567 316.624 273.158C316.455 272.749 316.201 272.38 315.881 272.076C315.56 271.771 315.178 271.537 314.761 271.389C314.344 271.241 313.9 271.183 313.459 271.217C310.814 271.507 308.517 275.726 308.032 278.022C308.032 278.201 307.777 280.659 307.752 281.289C306.901 279.681 306.093 278.073 305.353 276.457C304.344 274.274 303.475 272.03 302.75 269.737C302.92 269.737 307.326 268.7 308.951 267.449C310.363 266.369 311.86 264.6 311.843 262.72C311.855 262.278 311.774 261.838 311.605 261.429C311.436 261.02 311.183 260.651 310.862 260.346C310.541 260.041 310.16 259.807 309.743 259.659C309.325 259.511 308.882 259.453 308.441 259.488C305.787 259.777 303.49 263.996 303.005 266.292C303.005 266.446 302.801 268.325 302.742 269.219H302.589C301.928 266.89 301.475 264.508 301.236 262.099C301.091 260.781 301.023 259.505 300.981 258.263C301.832 258.161 305.651 257.65 307.241 256.689C308.832 255.728 310.44 254.137 310.644 252.3C310.703 251.862 310.671 251.416 310.547 250.992C310.424 250.567 310.212 250.173 309.927 249.836C309.641 249.498 309.288 249.224 308.89 249.032C308.492 248.839 308.058 248.733 307.616 248.719C304.945 248.719 302.197 252.657 301.466 254.92C301.423 255.048 301.16 256.34 300.972 257.285C300.972 256.732 300.972 256.153 300.972 255.583C300.972 253.568 301.108 251.73 301.236 250.097C301.313 249.161 301.398 248.328 301.491 247.545C302.265 247.009 305.344 244.84 306.297 243.292C307.25 241.744 307.998 239.584 307.284 237.831C307.135 237.415 306.901 237.034 306.596 236.714C306.291 236.393 305.922 236.141 305.513 235.972C305.104 235.804 304.664 235.723 304.221 235.736C303.779 235.748 303.345 235.854 302.946 236.045C300.581 237.27 299.952 242.042 300.343 244.39C300.343 244.585 301.279 247.698 301.313 247.673H301.364C301.262 248.43 301.151 249.238 301.057 250.123C300.896 251.756 300.726 253.602 300.683 255.626C300.61 257.805 300.661 259.986 300.836 262.159C301.025 264.595 301.432 267.009 302.053 269.372C302.05 269.4 302.05 269.428 302.053 269.457C301.627 268.793 300.351 266.99 300.283 266.862C298.727 265.068 294.661 262.507 292.211 263.545C291.808 263.729 291.448 263.996 291.155 264.328C290.862 264.66 290.642 265.05 290.509 265.473C290.377 265.896 290.335 266.342 290.387 266.782C290.438 267.222 290.581 267.647 290.808 268.028C291.718 269.678 293.887 270.486 295.648 270.75C297.63 271.039 301.806 269.822 302.138 269.729C302.827 272.118 303.679 274.457 304.69 276.729C305.259 278.065 305.88 279.383 306.518 280.702C306.136 280.14 305.795 279.647 305.736 279.587C304.179 277.784 300.113 275.224 297.664 276.261C297.26 276.445 296.901 276.712 296.607 277.044C296.314 277.377 296.094 277.767 295.962 278.19C295.829 278.613 295.787 279.059 295.839 279.499C295.89 279.939 296.034 280.363 296.26 280.744C297.17 282.394 299.339 283.211 301.1 283.466C302.861 283.721 306.459 282.76 307.403 282.496C307.658 282.998 307.905 283.5 308.151 284.002C309.359 286.409 310.576 288.808 311.698 291.198C312.098 292.049 312.455 292.899 312.813 293.75C312.481 293.256 312.192 292.84 312.141 292.78C310.584 290.985 306.51 288.417 304.06 289.463C303.657 289.646 303.297 289.913 303.004 290.246C302.71 290.578 302.491 290.969 302.359 291.392C302.228 291.815 302.187 292.261 302.239 292.701C302.292 293.141 302.437 293.565 302.665 293.945C303.567 295.587 305.736 296.404 307.496 296.659C309.257 296.914 312.515 296.055 313.638 295.74C313.978 296.591 314.327 297.492 314.625 298.352C314.812 298.947 315.033 299.5 315.186 300.112C315.339 300.725 315.518 301.295 315.679 301.881C315.96 303.021 316.249 304.195 316.487 305.284C316.657 306.066 316.802 306.806 316.955 307.555C316.572 306.704 315.79 305.08 315.705 304.952C314.437 302.936 310.805 299.789 308.228 300.444C307.797 300.564 307.397 300.774 307.054 301.06C306.71 301.347 306.432 301.703 306.236 302.105C306.041 302.507 305.933 302.946 305.92 303.393C305.907 303.84 305.989 304.284 306.161 304.697C306.807 306.466 308.832 307.598 310.533 308.099C312.404 308.669 316.547 308.15 317.066 308.099C317.312 309.333 317.542 310.541 317.738 311.689C318.435 315.644 318.869 318.962 319.141 321.292C319.184 321.7 319.226 322.075 319.26 322.423H311.239L313.689 370.176H328.319L330.769 322.423H323.199L323.369 322.075C324.389 319.94 325.818 316.869 327.349 313.118C327.843 311.927 328.336 310.651 328.838 309.333C329.34 309.443 333.44 310.277 335.354 309.843C337.055 309.452 339.181 308.474 339.964 306.755C340.159 306.358 340.269 305.925 340.286 305.483C340.302 305.041 340.226 304.6 340.062 304.19C339.897 303.779 339.648 303.407 339.331 303.099C339.014 302.791 338.635 302.553 338.22 302.4C335.668 301.55 331.841 304.416 330.42 306.33C330.344 306.449 329.569 307.776 329.102 308.618C329.306 308.082 329.501 307.555 329.706 307.002C330.105 305.905 330.48 304.791 330.879 303.6C331.058 303.021 331.228 302.434 331.407 301.839C331.585 301.244 331.721 300.614 331.883 299.993C332.223 298.547 332.504 297.067 332.734 295.579C333.695 295.927 337.14 297.118 338.918 296.999C340.695 296.88 342.915 296.217 343.945 294.643C344.199 294.281 344.374 293.869 344.458 293.434C344.542 293 344.534 292.553 344.434 292.121C344.333 291.69 344.143 291.285 343.876 290.933C343.608 290.58 343.269 290.288 342.881 290.075C340.517 288.85 336.264 291.104 334.58 292.78C334.477 292.882 333.397 294.226 332.827 294.975C332.963 294.073 333.108 293.18 333.227 292.261C333.55 289.616 333.805 286.936 334.078 284.257L334.333 281.799C334.673 281.926 338.73 283.441 340.729 283.296C342.499 283.177 344.727 282.522 345.748 280.948C346.003 280.586 346.178 280.174 346.263 279.739C346.348 279.304 346.341 278.857 346.241 278.425C346.142 277.993 345.952 277.587 345.686 277.234C345.419 276.88 345.081 276.586 344.693 276.372C342.32 275.156 338.075 277.401 336.391 279.085C336.264 279.213 334.69 281.144 334.35 281.637C334.537 279.834 334.75 278.039 335.022 276.287C335.378 273.908 335.892 271.555 336.561 269.244C336.715 269.304 340.942 270.903 342.983 270.758C344.761 270.631 346.981 269.984 348.01 268.402C348.265 268.04 348.44 267.628 348.524 267.193C348.608 266.759 348.6 266.312 348.5 265.881C348.399 265.449 348.209 265.044 347.942 264.692C347.674 264.339 347.335 264.047 346.947 263.834C344.583 262.609 340.338 264.863 338.645 266.539C338.535 266.65 337.361 268.121 336.817 268.836L336.68 268.759C337.41 266.454 338.347 264.219 339.479 262.082C340.083 260.891 340.729 259.794 341.384 258.739C342.141 259.113 345.637 260.806 347.466 260.883C349.295 260.959 351.523 260.542 352.723 259.096C353.015 258.763 353.234 258.372 353.365 257.949C353.497 257.525 353.538 257.079 353.486 256.638C353.434 256.198 353.289 255.774 353.063 255.393C352.836 255.012 352.532 254.683 352.17 254.427C349.95 252.955 345.484 254.724 343.621 256.213C343.519 256.289 342.584 257.225 341.92 257.914C342.226 257.446 342.533 256.953 342.83 256.502C343.945 254.801 345.067 253.355 346.071 252.062C346.65 251.33 347.185 250.684 347.696 250.08C348.631 250.08 352.4 249.953 354.05 249.178C355.7 248.404 357.503 247.009 357.894 245.172C357.986 244.746 357.989 244.306 357.903 243.879C357.817 243.452 357.643 243.047 357.393 242.69C357.143 242.333 356.822 242.031 356.45 241.804C356.079 241.577 355.664 241.429 355.232 241.37ZM325.886 312.574C324.287 316.257 322.816 319.268 321.752 321.352C321.54 321.777 321.344 322.143 321.166 322.491H320.995C320.936 322.083 320.885 321.641 320.817 321.139C320.494 318.791 319.966 315.44 319.192 311.459C318.946 310.2 318.656 308.865 318.342 307.495C319.59 306.999 320.808 306.431 321.991 305.794C323.352 307.274 326.848 309.001 327.298 309.197C326.822 310.37 326.354 311.51 325.886 312.574Z" fill="#263238"/>
<path opacity="0.3" d="M293.946 257.285C295.86 258.135 300.538 258.008 300.538 258.008C300.538 258.008 299.535 254.946 299.45 254.758C298.42 252.615 295.197 249.068 292.534 249.425C292.095 249.494 291.676 249.655 291.303 249.898C290.931 250.14 290.614 250.458 290.373 250.832C290.132 251.205 289.973 251.625 289.906 252.064C289.838 252.504 289.864 252.952 289.982 253.38C290.442 255.226 292.313 256.587 293.946 257.285Z" fill="#263238"/>
<path opacity="0.3" d="M341.266 258.331C341.308 258.331 342.117 255.218 342.117 255.014C342.448 252.657 341.7 247.911 339.293 246.746C338.891 246.57 338.456 246.48 338.017 246.482C337.578 246.484 337.145 246.577 336.744 246.757C336.344 246.936 335.985 247.198 335.692 247.524C335.398 247.85 335.176 248.234 335.04 248.651C334.393 250.42 335.21 252.589 336.179 254.078C337.302 255.83 341.266 258.322 341.266 258.331Z" fill="#263238"/>
<path opacity="0.3" d="M355.232 241.37C352.578 241.089 349.431 244.721 348.427 246.89C348.342 247.086 347.373 250.174 347.424 250.174H347.475C346.973 250.744 346.445 251.356 345.875 252.045C344.838 253.312 343.681 254.758 342.524 256.426C341.259 258.201 340.1 260.05 339.054 261.963C337.867 264.096 336.873 266.33 336.085 268.64V268.725C336.085 267.951 336.085 265.765 336.043 265.595C335.736 263.239 333.754 258.858 331.135 258.373C330.698 258.303 330.251 258.327 329.824 258.441C329.396 258.556 328.998 258.76 328.655 259.04C328.312 259.319 328.032 259.668 327.834 260.063C327.635 260.459 327.522 260.892 327.503 261.334C327.341 263.213 328.702 265.085 330.054 266.275C331.551 267.611 335.702 268.904 336.009 269.006C335.264 271.377 334.679 273.795 334.256 276.244C334.001 277.673 333.788 279.111 333.593 280.566C333.593 279.885 333.593 279.281 333.593 279.205C333.287 276.84 331.305 272.459 328.685 271.974C328.248 271.906 327.801 271.93 327.373 272.046C326.946 272.162 326.548 272.367 326.205 272.647C325.862 272.927 325.583 273.276 325.384 273.672C325.185 274.068 325.073 274.501 325.053 274.943C324.891 276.814 326.252 278.694 327.605 279.877C328.957 281.059 332.47 282.25 333.406 282.556C333.329 283.109 333.261 283.662 333.193 284.257C332.87 286.928 332.564 289.599 332.181 292.21C332.053 293.129 331.883 294.03 331.721 294.932C331.721 294.337 331.721 293.826 331.721 293.75C331.415 291.394 329.442 287.013 326.814 286.528C326.376 286.46 325.929 286.484 325.502 286.6C325.075 286.716 324.677 286.92 324.334 287.201C323.991 287.481 323.711 287.83 323.513 288.226C323.314 288.621 323.201 289.055 323.182 289.497C323.028 291.368 324.389 293.248 325.733 294.43C327.077 295.613 330.258 296.693 331.364 297.05C331.169 297.969 330.981 298.887 330.752 299.772C330.573 300.367 330.454 300.954 330.25 301.55C330.046 302.145 329.867 302.724 329.689 303.302C329.28 304.399 328.881 305.539 328.464 306.602C328.175 307.342 327.894 308.048 327.613 308.754C327.758 307.836 328.004 306.041 328.004 305.888C327.972 303.796 327.407 301.747 326.363 299.934C326.37 299.7 326.356 299.467 326.32 299.236C326.265 298.797 326.118 298.374 325.889 297.996C325.66 297.617 325.354 297.291 324.991 297.038C324.627 296.785 324.215 296.612 323.78 296.529C323.345 296.446 322.898 296.456 322.467 296.557C319.915 297.246 318.257 301.771 318.129 304.144C318.129 304.28 318.214 305.845 318.291 306.781C318.163 306.22 318.044 305.675 317.899 305.08C317.627 303.94 317.329 302.817 317.006 301.601L316.394 299.815C316.232 299.228 315.977 298.624 315.773 298.02C315.262 296.625 314.684 295.238 314.072 293.852C315.067 293.614 318.597 292.712 320.026 291.632C321.455 290.552 322.935 288.774 322.918 286.894C322.93 286.452 322.849 286.012 322.68 285.603C322.511 285.193 322.258 284.825 321.937 284.52C321.616 284.215 321.235 283.981 320.817 283.833C320.4 283.685 319.957 283.627 319.515 283.662C316.862 283.951 314.565 288.17 314.089 290.466C314.089 290.62 313.901 292.329 313.833 293.265C313.451 292.414 313.076 291.615 312.668 290.781C311.486 288.4 310.21 286.026 308.951 283.645C308.56 282.913 308.185 282.19 307.811 281.459C308.168 281.374 312.379 280.395 313.97 279.179C315.382 278.099 316.87 276.33 316.862 274.45C316.874 274.007 316.793 273.567 316.624 273.158C316.455 272.749 316.201 272.38 315.881 272.076C315.56 271.771 315.178 271.537 314.761 271.389C314.344 271.241 313.9 271.183 313.459 271.217C310.814 271.507 308.517 275.726 308.032 278.022C308.032 278.201 307.777 280.659 307.752 281.289C306.901 279.681 306.093 278.073 305.353 276.457C304.344 274.274 303.475 272.03 302.75 269.737C302.92 269.737 307.326 268.7 308.951 267.449C310.363 266.369 311.86 264.6 311.843 262.72C311.855 262.278 311.774 261.838 311.605 261.429C311.436 261.02 311.183 260.651 310.862 260.346C310.541 260.041 310.16 259.807 309.743 259.659C309.325 259.511 308.882 259.453 308.441 259.488C305.787 259.777 303.49 263.996 303.005 266.292C303.005 266.446 302.801 268.325 302.742 269.219H302.589C301.928 266.89 301.475 264.508 301.236 262.099C301.091 260.781 301.023 259.505 300.981 258.263C301.832 258.161 305.651 257.65 307.241 256.689C308.832 255.728 310.44 254.137 310.644 252.3C310.703 251.862 310.671 251.416 310.547 250.992C310.424 250.567 310.212 250.173 309.927 249.836C309.641 249.498 309.288 249.224 308.89 249.032C308.492 248.839 308.058 248.733 307.616 248.719C304.945 248.719 302.197 252.657 301.466 254.92C301.423 255.048 301.16 256.34 300.972 257.285C300.972 256.732 300.972 256.153 300.972 255.583C300.972 253.568 301.108 251.73 301.236 250.097C301.313 249.161 301.398 248.328 301.491 247.545C302.265 247.009 305.344 244.84 306.297 243.292C307.25 241.744 307.998 239.584 307.284 237.831C307.135 237.415 306.901 237.034 306.596 236.714C306.291 236.393 305.922 236.141 305.513 235.972C305.104 235.804 304.664 235.723 304.221 235.736C303.779 235.748 303.345 235.854 302.946 236.045C300.581 237.27 299.952 242.042 300.343 244.39C300.343 244.585 301.279 247.698 301.313 247.673H301.364C301.262 248.43 301.151 249.238 301.057 250.123C300.896 251.756 300.726 253.602 300.683 255.626C300.61 257.805 300.661 259.986 300.836 262.159C301.025 264.595 301.432 267.009 302.053 269.372C302.05 269.4 302.05 269.428 302.053 269.457C301.627 268.793 300.351 266.99 300.283 266.862C298.727 265.068 294.661 262.507 292.211 263.545C291.808 263.729 291.448 263.996 291.155 264.328C290.862 264.66 290.642 265.05 290.509 265.473C290.377 265.896 290.335 266.342 290.387 266.782C290.438 267.222 290.581 267.647 290.808 268.028C291.718 269.678 293.887 270.486 295.648 270.75C297.63 271.039 301.806 269.822 302.138 269.729C302.827 272.118 303.679 274.457 304.69 276.729C305.259 278.065 305.88 279.383 306.518 280.702C306.136 280.14 305.795 279.647 305.736 279.587C304.179 277.784 300.113 275.224 297.664 276.261C297.26 276.445 296.901 276.712 296.607 277.044C296.314 277.377 296.094 277.767 295.962 278.19C295.829 278.613 295.787 279.059 295.839 279.499C295.89 279.939 296.034 280.363 296.26 280.744C297.17 282.394 299.339 283.211 301.1 283.466C302.861 283.721 306.459 282.76 307.403 282.496C307.658 282.998 307.905 283.5 308.151 284.002C309.359 286.409 310.576 288.808 311.698 291.198C312.098 292.049 312.455 292.899 312.813 293.75C312.481 293.256 312.192 292.84 312.141 292.78C310.584 290.985 306.51 288.417 304.06 289.463C303.657 289.646 303.297 289.913 303.004 290.246C302.71 290.578 302.491 290.969 302.359 291.392C302.228 291.815 302.187 292.261 302.239 292.701C302.292 293.141 302.437 293.565 302.665 293.945C303.567 295.587 305.736 296.404 307.496 296.659C309.257 296.914 312.515 296.055 313.638 295.74C313.978 296.591 314.327 297.492 314.625 298.352C314.812 298.947 315.033 299.5 315.186 300.112C315.339 300.725 315.518 301.295 315.679 301.881C315.96 303.021 316.249 304.195 316.487 305.284C316.657 306.066 316.802 306.806 316.955 307.555C316.572 306.704 315.79 305.08 315.705 304.952C314.437 302.936 310.805 299.789 308.228 300.444C307.797 300.564 307.397 300.774 307.054 301.06C306.71 301.347 306.432 301.703 306.236 302.105C306.041 302.507 305.933 302.946 305.92 303.393C305.907 303.84 305.989 304.284 306.161 304.697C306.807 306.466 308.832 307.598 310.533 308.099C312.404 308.669 316.547 308.15 317.066 308.099C317.312 309.333 317.542 310.541 317.738 311.689C318.435 315.644 318.869 318.962 319.141 321.292C319.184 321.7 319.226 322.075 319.26 322.423H311.239L313.689 370.176H328.319L330.769 322.423H323.199L323.369 322.075C324.389 319.94 325.818 316.869 327.349 313.118C327.843 311.927 328.336 310.651 328.838 309.333C329.34 309.443 333.44 310.277 335.354 309.843C337.055 309.452 339.181 308.474 339.964 306.755C340.159 306.358 340.269 305.925 340.286 305.483C340.302 305.041 340.226 304.6 340.062 304.19C339.897 303.779 339.648 303.407 339.331 303.099C339.014 302.791 338.635 302.553 338.22 302.4C335.668 301.55 331.841 304.416 330.42 306.33C330.344 306.449 329.569 307.776 329.102 308.618C329.306 308.082 329.501 307.555 329.706 307.002C330.105 305.905 330.48 304.791 330.879 303.6C331.058 303.021 331.228 302.434 331.407 301.839C331.585 301.244 331.721 300.614 331.883 299.993C332.223 298.547 332.504 297.067 332.734 295.579C333.695 295.927 337.14 297.118 338.918 296.999C340.695 296.88 342.915 296.217 343.945 294.643C344.199 294.281 344.374 293.869 344.458 293.434C344.542 293 344.534 292.553 344.434 292.121C344.333 291.69 344.143 291.285 343.876 290.933C343.608 290.58 343.269 290.288 342.881 290.075C340.517 288.85 336.264 291.104 334.58 292.78C334.477 292.882 333.397 294.226 332.827 294.975C332.963 294.073 333.108 293.18 333.227 292.261C333.55 289.616 333.805 286.936 334.078 284.257L334.333 281.799C334.673 281.926 338.73 283.441 340.729 283.296C342.499 283.177 344.727 282.522 345.748 280.948C346.003 280.586 346.178 280.174 346.263 279.739C346.348 279.304 346.341 278.857 346.241 278.425C346.142 277.993 345.952 277.587 345.686 277.234C345.419 276.88 345.081 276.586 344.693 276.372C342.32 275.156 338.075 277.401 336.391 279.085C336.264 279.213 334.69 281.144 334.35 281.637C334.537 279.834 334.75 278.039 335.022 276.287C335.378 273.908 335.892 271.555 336.561 269.244C336.715 269.304 340.942 270.903 342.983 270.758C344.761 270.631 346.981 269.984 348.01 268.402C348.265 268.04 348.44 267.628 348.524 267.193C348.608 266.759 348.6 266.312 348.5 265.881C348.399 265.449 348.209 265.044 347.942 264.692C347.674 264.339 347.335 264.047 346.947 263.834C344.583 262.609 340.338 264.863 338.645 266.539C338.535 266.65 337.361 268.121 336.817 268.836L336.68 268.759C337.41 266.454 338.347 264.219 339.479 262.082C340.083 260.891 340.729 259.794 341.384 258.739C342.141 259.113 345.637 260.806 347.466 260.883C349.295 260.959 351.523 260.542 352.723 259.096C353.015 258.763 353.234 258.372 353.365 257.949C353.497 257.525 353.538 257.079 353.486 256.638C353.434 256.198 353.289 255.774 353.063 255.393C352.836 255.012 352.532 254.683 352.17 254.427C349.95 252.955 345.484 254.724 343.621 256.213C343.519 256.289 342.584 257.225 341.92 257.914C342.226 257.446 342.533 256.953 342.83 256.502C343.945 254.801 345.067 253.355 346.071 252.062C346.65 251.33 347.185 250.684 347.696 250.08C348.631 250.08 352.4 249.953 354.05 249.178C355.7 248.404 357.503 247.009 357.894 245.172C357.986 244.746 357.989 244.306 357.903 243.879C357.817 243.452 357.643 243.047 357.393 242.69C357.143 242.333 356.822 242.031 356.45 241.804C356.079 241.577 355.664 241.429 355.232 241.37ZM325.886 312.574C324.287 316.257 322.816 319.268 321.752 321.352C321.54 321.777 321.344 322.143 321.166 322.491H320.995C320.936 322.083 320.885 321.641 320.817 321.139C320.494 318.791 319.966 315.44 319.192 311.459C318.946 310.2 318.656 308.865 318.342 307.495C319.59 306.999 320.808 306.431 321.991 305.794C323.352 307.274 326.848 309.001 327.298 309.197C326.822 310.37 326.354 311.51 325.886 312.574Z" fill="#263238"/>
<path d="M295.129 370.244H367.209" stroke="#263238" stroke-linejoin="round"/>
<path d="M40.7988 370.244H287.472" stroke="#263238" stroke-linejoin="round"/>
<path d="M7.72852 370.244H33.1444" stroke="#263238" stroke-linejoin="round"/>
<path d="M246.908 367.437C246.865 368.062 246.768 368.683 246.618 369.291C245.921 371.843 241.949 370.925 239.618 371.843C237.287 372.762 234.251 373.944 232.15 374.642C230.049 375.339 223.525 375.815 220.241 375.109C218.081 374.65 217.043 373.476 217.001 372.26C216.986 371.591 217.23 370.942 217.681 370.448C219.076 368.815 224.435 366.714 227.471 364.383C230.508 362.053 234.472 356.447 234.472 356.447C238.904 357.621 246.38 356.685 246.38 356.685C246.38 356.685 246.84 359.237 246.84 359.952C247.003 362.444 247.026 364.943 246.908 367.437Z" fill="white" stroke="#263238" stroke-linecap="round" stroke-linejoin="round"/>
<path d="M246.907 367.437C246.864 368.062 246.767 368.683 246.618 369.291C245.92 371.843 241.948 370.925 239.617 371.843C237.287 372.762 234.25 373.944 232.149 374.642C230.048 375.339 223.524 375.815 220.241 375.109C218.08 374.65 217.043 373.476 217 372.26C218.191 373.111 221.091 374.65 226.603 374.165C234.259 373.51 236.87 370.856 240.026 369.538C242.265 368.669 244.565 367.967 246.907 367.437Z" fill="white" stroke="#263238" stroke-linecap="round" stroke-linejoin="round"/>
<path d="M246.585 357.859C246.483 357.213 246.389 356.694 246.389 356.694C244.043 356.963 241.682 357.077 239.321 357.034L239.15 357.162C239.15 357.162 239.618 356.924 239.856 358.795C239.99 360.033 239.99 361.282 239.856 362.521C239.856 362.521 245.164 361.262 245.921 359.493C246.142 358.974 246.372 358.404 246.585 357.859Z" fill="white" stroke="#263238" stroke-linecap="round" stroke-linejoin="round"/>
<path d="M273.013 377.134C270.87 378.495 260.356 384.372 258.553 384.713C256.75 385.053 250.047 384.594 248.15 383.012C246.662 381.787 246.262 380.145 247.223 378.759C247.534 378.326 247.927 377.959 248.38 377.678C250.642 376.207 254.598 372.022 256.409 369.649C258.221 367.275 261.045 363.091 261.045 363.091L261.266 361.849L272.8 362.189C272.8 362.189 273.022 364.673 273.132 365.132C273.553 366.727 273.857 368.35 274.042 369.989C274.178 370.95 274.332 371.852 274.425 372.677C274.604 374.667 274.493 376.181 273.013 377.134Z" fill="white" stroke="#263238" stroke-linecap="round" stroke-linejoin="round"/>
<path d="M273.013 377.134C270.87 378.495 260.356 384.372 258.553 384.713C256.75 385.053 250.047 384.594 248.15 383.012C246.662 381.787 246.262 380.145 247.223 378.759C247.368 379.55 248.456 383.556 255.482 383.267C263.265 382.935 269.39 375.977 272.868 373.655C273.421 373.281 273.94 372.957 274.425 372.677C274.604 374.667 274.493 376.181 273.013 377.134Z" fill="white" stroke="#263238" stroke-linecap="round" stroke-linejoin="round"/>
<path d="M272.757 362.214L261.223 361.874L261.001 363.116L260.457 363.907C260.746 363.907 264.208 363.72 265.178 364.588C266.148 365.455 266.309 368.432 268.682 367.641C270.297 367.054 271.786 366.169 273.071 365.03C272.952 364.366 272.757 362.214 272.757 362.214Z" fill="white" stroke="#263238" stroke-linecap="round" stroke-linejoin="round"/>
<path d="M225.855 249.383C225.855 249.383 224.919 273.88 226.791 288.808C228.662 303.736 229.121 314.47 229.342 315.176C229.564 315.882 234.004 345.5 234.233 347.371C234.463 349.243 235.169 351.335 235.169 352.033C235.169 352.73 235.867 352.968 239.371 353.904C241.701 354.417 244.13 354.255 246.371 353.436C246.371 353.436 248.005 337.343 248.005 333.141C248.005 328.939 245.904 309.809 245.904 309.112C245.904 308.414 247.299 276.457 247.299 276.457L248.464 277.384C248.464 277.384 250.097 304.68 250.803 309.809C251.509 314.938 251.73 319.608 252.666 322.177C253.601 324.746 255.702 341.069 256.63 343.442C257.557 345.815 258.263 354.636 258.263 354.636L258.96 357.434C258.96 357.434 259.896 359.986 265.765 359.986C271.634 359.986 272.765 358.582 272.765 358.582C272.765 358.582 272.995 346.223 272.995 340.388C272.995 334.553 269.958 317.294 269.499 313.331C269.04 309.367 268.325 293.265 269.261 289.999C270.197 286.732 271.813 267.611 271.813 259.445C271.891 255.629 271.734 251.811 271.345 248.013C271.345 248.013 249.187 249.408 241.719 248.243C234.25 247.077 227.258 245.444 227.258 245.444L225.855 249.383Z" fill="#263238" stroke="#263238" stroke-linecap="round" stroke-linejoin="round"/>
<path d="M232.627 248.455C232.627 248.455 242.656 251.484 258.749 250.089L258.978 245.887L233.324 237.253L232.627 248.455Z" fill="#808080" stroke="#263238" stroke-linecap="round" stroke-linejoin="round"/>
<path d="M246.225 247.696L239.604 247.448L239.506 250.058L246.128 250.305L246.225 247.696Z" fill="white" stroke="#263238" stroke-linecap="round" stroke-linejoin="round"/>
<path d="M260.848 179.634C260.848 179.634 252.683 178.706 248.719 179.872C244.755 181.037 239.856 182.424 238.452 186.166C237.049 189.909 230.176 245.308 230.176 245.308C230.176 245.308 237.755 247.758 244.517 247.758C251.279 247.758 258.518 247.29 258.518 247.29C258.518 247.29 259.215 217.426 260.848 212.067C262.481 206.708 260.848 179.634 260.848 179.634Z" fill="#92E3A9" stroke="#263238" stroke-linecap="round" stroke-linejoin="round"/>
<path d="M242.322 183.453C242.322 183.453 242.611 189.245 244.304 190.657C245.997 192.069 246.141 192.503 246.141 192.503L247.128 203.561C247.128 203.561 250.811 196.892 251.237 196.042C251.65 194.514 251.934 192.955 252.087 191.38C253.319 190.455 254.5 189.464 255.626 188.412C256.893 187.136 257.888 178.655 257.888 177.66C257.888 176.665 257.608 171.298 257.608 171.298C257.608 171.298 254.63 177.941 251.381 180.91C248.132 183.878 245.019 184.167 244.313 184.023C243.607 183.878 242.322 183.453 242.322 183.453Z" fill="white" stroke="#263238" stroke-linecap="round" stroke-linejoin="round"/>
<path d="M242.187 181.752C242.187 181.752 241.898 202.259 241.898 210.595C241.898 218.931 239.346 229.402 236.666 236.471C233.987 243.539 228.16 262.558 226.349 266.947C225.162 269.847 224.17 272.822 223.38 275.853C223.38 275.853 220.692 273.727 220.548 266.803C220.403 259.879 222.104 251.815 222.385 246.865C222.666 241.914 222.81 231.554 222.81 231.554C222.81 231.554 222.81 233.953 219.136 235.807C215.461 237.661 213.181 238.495 210.791 233.97C208.401 229.445 208.673 226.757 210.936 222.657C213.198 218.557 215.316 207.95 217.154 203.144C218.991 198.338 218.855 191.55 220.837 190.138C222.819 188.726 232.286 184.907 236.105 182.645C239.924 180.382 241.481 180.382 241.481 180.382C241.481 180.382 242.042 180.059 242.187 181.752Z" fill="white" stroke="#263238" stroke-linecap="round" stroke-linejoin="round"/>
<path d="M215.044 220.632C215.044 220.632 212.212 226.485 213.02 228.5C213.828 230.516 216.422 232.753 219.485 230.925C222.547 229.096 223.516 228.909 222.504 225.073C221.492 221.236 217.664 218.412 215.044 220.632Z" stroke="#263238" stroke-linecap="round" stroke-linejoin="round"/>
<path d="M224.384 200.873C224.29 198.9 224.23 197.59 224.23 197.59L224.384 200.873Z" fill="white"/>
<path d="M224.384 200.873C224.29 198.9 224.23 197.59 224.23 197.59" stroke="#263238" stroke-linecap="round" stroke-linejoin="round"/>
<path d="M222.828 231.529C222.828 231.529 224.81 220.777 224.81 214.695C224.81 211.369 224.64 206.555 224.487 202.88" fill="white"/>
<path d="M222.828 231.529C222.828 231.529 224.81 220.777 224.81 214.695C224.81 211.369 224.64 206.555 224.487 202.88" stroke="#263238" stroke-linecap="round" stroke-linejoin="round"/>
<path d="M241.48 180.34C241.48 180.34 240.247 180.34 237.304 181.922C236.649 185.647 235.39 194.315 236.241 202.26C236.972 208.979 239.388 215.98 241.029 220.122C241.565 216.968 241.85 213.777 241.88 210.578C241.88 202.242 242.169 181.735 242.169 181.735C242.042 180.059 241.48 180.34 241.48 180.34Z" fill="white" stroke="#263238" stroke-linecap="round" stroke-linejoin="round"/>
<path d="M233.034 162.06C233.034 162.06 234.199 169.528 235.373 172.752C236.547 175.976 239.328 179.48 240.477 181.684C241.625 183.887 244.134 186.217 246.916 186.217C249.697 186.217 253.499 182.415 254.231 181.114C254.962 179.812 257.012 177.448 257.165 176.01C257.319 174.573 257.31 172.208 257.31 172.208C258.204 171.912 258.997 171.371 259.599 170.646C260.201 169.921 260.586 169.042 260.712 168.108C261.119 166.347 260.964 164.503 260.27 162.834C259.588 161.2 258.753 159.634 257.778 158.156C255.728 154.754 249 152.882 242.552 153.903C236.105 154.924 232.889 157.671 233.034 162.06Z" fill="white" stroke="#263238" stroke-linecap="round" stroke-linejoin="round"/>
<path d="M233.212 167.972C236.009 167.436 238.885 167.474 241.667 168.082C241.667 168.082 242.399 170.719 240.817 172.472C239.235 174.224 236.274 173.645 235.398 173.322C234.522 172.999 233.161 171.502 233.212 167.972Z" fill="white" stroke="#263238" stroke-linecap="round" stroke-linejoin="round"/>
<path d="M244.594 167.844C247.4 167.267 250.294 167.267 253.1 167.844C253.1 167.844 253.865 170.464 252.249 172.25C250.633 174.037 247.724 173.484 246.848 173.203C245.972 172.922 244.594 171.374 244.594 167.844Z" fill="white" stroke="#263238" stroke-linecap="round" stroke-linejoin="round"/>
<path d="M241.668 168.065C242.581 167.628 243.625 167.55 244.594 167.844" stroke="#263238" stroke-linecap="round" stroke-linejoin="round"/>
<path d="M253.057 167.827L257.037 165.139" stroke="#263238" stroke-linecap="round" stroke-linejoin="round"/>
<path d="M241.898 169.282C241.898 169.282 243.472 168.669 244.45 169.282" stroke="#263238" stroke-linecap="round" stroke-linejoin="round"/>
<path d="M245.393 166.841C247.078 166.138 248.935 165.954 250.726 166.313" stroke="#263238" stroke-linecap="round" stroke-linejoin="round"/>
<path d="M240.758 167.274C239.323 166.465 237.631 166.246 236.037 166.662" stroke="#263238" stroke-linecap="round" stroke-linejoin="round"/>
<path d="M241.898 170.77C241.898 170.77 241.719 177.158 241.804 177.422C242.301 177.908 242.95 178.208 243.642 178.273C244.412 178.185 245.174 178.037 245.921 177.83" stroke="#263238" stroke-linecap="round" stroke-linejoin="round"/>
<path d="M242.596 179.88C242.596 179.88 244.348 181.369 247.58 180.05" stroke="#263238" stroke-linecap="round" stroke-linejoin="round"/>
<path d="M230.397 155.034C230.397 155.034 225.566 156.497 226.442 159.577C227.318 162.656 232.89 163.676 238.453 162.205C242.433 161.069 246.311 159.6 250.046 157.816C249.681 158.265 249.508 158.84 249.564 159.416C249.619 159.993 249.9 160.524 250.344 160.895C251.952 162.358 251.807 157.816 251.807 157.816C251.807 157.816 251.662 163.089 253.712 163.821C255.762 164.553 255.907 164.986 255.907 164.986C255.907 164.986 255.175 167.921 256.051 168.21C256.928 168.499 257.072 165.139 257.072 165.139C257.072 165.139 257.37 163.379 258.833 163.089L260.296 162.792C260.296 162.792 260.007 152.984 259.122 149.327C258.238 145.669 249.315 141.416 241.557 144.223C233.8 147.03 230.1 150.79 230.397 155.034Z" fill="#263238" stroke="#263238" stroke-linecap="round" stroke-linejoin="round"/>
<path d="M213.623 224.596L217.025 219.22L219.849 223.746C218.575 224.491 217.254 225.153 215.894 225.727C215.096 225.438 214.334 225.059 213.623 224.596Z" fill="white" stroke="#263238" stroke-linecap="round" stroke-linejoin="round"/>
<path d="M220.547 227.42C221.373 227.774 222.226 228.058 223.099 228.271C223.946 228.221 224.774 227.994 225.529 227.604C226.283 227.214 226.948 226.671 227.479 226.008C228.33 224.596 226.909 224.452 226.909 224.452L225.208 226.008L222.376 225.872L220.547 227.42Z" fill="white" stroke="#263238" stroke-linecap="round" stroke-linejoin="round"/>
<path d="M211.787 213.283L219.987 225.727L226.911 225.872L219.562 213.283H211.787Z" fill="#263238" stroke="#263238" stroke-linecap="round" stroke-linejoin="round"/>
<path d="M220.276 221.347C220.276 221.347 213.633 223.61 213.633 224.596C213.693 225.101 213.948 225.561 214.344 225.88C214.74 226.198 215.245 226.348 215.751 226.297C216.882 226.297 221.263 223.465 221.705 222.614C222.147 221.764 221.679 221.202 220.276 221.347Z" fill="white" stroke="#263238" stroke-linecap="round" stroke-linejoin="round"/>
<path d="M216.447 226.433C216.549 226.822 216.744 227.18 217.015 227.476C217.287 227.773 217.626 227.999 218.004 228.135C219.28 228.551 223.107 225.872 223.805 224.877C224.502 223.882 222.384 224.171 220.836 224.741C219.288 225.311 216.447 226.433 216.447 226.433Z" fill="white" stroke="#263238" stroke-linecap="round" stroke-linejoin="round"/>
<path d="M213.761 216.541C213.584 216.68 213.437 216.852 213.327 217.048C213.217 217.243 213.147 217.459 213.121 217.682C213.095 217.905 213.113 218.131 213.175 218.347C213.236 218.563 213.34 218.764 213.48 218.94C214.475 220.352 216.882 220.641 216.882 220.641L213.761 216.541Z" fill="white" stroke="#263238" stroke-linecap="round" stroke-linejoin="round"/>
<path d="M257.88 177.652C257.88 177.652 252.368 214.559 251.075 217.808C249.782 221.058 253.482 246.014 253.482 249.408C253.482 252.802 256.731 253.372 257.999 254.078C259.266 254.784 269.601 259.734 271.149 262.278C272.697 264.821 276.669 270.197 276.669 270.197C276.669 270.197 274.296 246.193 273.982 233.221C273.854 227.99 274.262 220.216 274.262 220.216C274.262 220.216 280.216 189.39 279.638 187.127C279.06 184.865 269.601 181.173 265.493 179.778C263 178.916 260.458 178.206 257.88 177.652Z" fill="white" stroke="#263238" stroke-linecap="round" stroke-linejoin="round"/>
<path d="M264.803 182.432C264.948 181.471 265.084 180.442 265.186 179.642C262.792 178.829 260.352 178.156 257.88 177.626C257.88 177.626 252.368 214.534 251.075 217.783C250.827 218.72 250.74 219.692 250.82 220.658C251.568 219.603 254.732 215.078 257.582 210.008C260.848 204.233 264.506 184.439 264.803 182.432Z" fill="white" stroke="#263238" stroke-linecap="round" stroke-linejoin="round"/>
<path d="M254.205 251.96C256.876 252.796 259.622 253.366 262.405 253.661C267.355 254.223 279.06 258.892 283.227 264.013C284.573 265.538 285.759 267.196 286.766 268.963C286.766 268.963 280.922 269.814 279.791 269.925C278.66 270.035 276.116 270.205 276.116 270.205C276.116 270.205 271.591 263.698 269.312 261.861C267.032 260.024 255.047 254.078 254.205 251.96Z" fill="white" stroke="#263238" stroke-linecap="round" stroke-linejoin="round"/>
<path d="M233.325 351.854V355.886C233.326 356.218 233.424 356.541 233.607 356.818C233.79 357.095 234.049 357.312 234.354 357.443C236.126 358.116 237.974 358.57 239.857 358.795C242.182 359.176 244.567 358.8 246.662 357.723C246.922 357.573 247.137 357.358 247.286 357.098C247.436 356.838 247.514 356.543 247.513 356.243V352.552C247.514 352.345 247.47 352.14 247.384 351.952C247.299 351.764 247.173 351.597 247.016 351.462C246.858 351.328 246.674 351.229 246.475 351.173C246.275 351.118 246.066 351.106 245.862 351.14C243.311 351.556 238.292 352.118 234.558 350.884C234.411 350.845 234.256 350.84 234.107 350.87C233.958 350.901 233.818 350.966 233.698 351.06C233.578 351.154 233.482 351.275 233.417 351.413C233.352 351.551 233.321 351.702 233.325 351.854Z" fill="#808080" stroke="#263238" stroke-linecap="round" stroke-linejoin="round"/>
<path d="M257.702 356.141V360.692C257.701 361.066 257.812 361.433 258.019 361.744C258.226 362.056 258.521 362.3 258.867 362.444C260.867 363.202 262.952 363.713 265.076 363.967C267.705 364.406 270.406 363.983 272.774 362.759C273.079 362.593 273.332 362.347 273.506 362.047C273.681 361.747 273.769 361.404 273.761 361.058V356.924C273.762 356.691 273.712 356.461 273.614 356.25C273.517 356.038 273.374 355.851 273.197 355.7C273.02 355.549 272.811 355.439 272.587 355.377C272.363 355.315 272.128 355.303 271.898 355.342C269.015 355.809 263.392 356.439 259.139 355.044C258.97 354.993 258.791 354.982 258.617 355.014C258.444 355.045 258.28 355.117 258.139 355.224C257.999 355.332 257.886 355.471 257.81 355.63C257.734 355.789 257.697 355.965 257.702 356.141Z" fill="#808080" stroke="#263238" stroke-linecap="round" stroke-linejoin="round"/>
<path d="M267.229 255.83L262.627 260.066L269.44 266.692L272.009 262.456L267.229 255.83Z" fill="white" stroke="#263238" stroke-linecap="round" stroke-linejoin="round"/>
<path d="M273.574 204.803C273.574 204.803 272.587 213.147 273.004 216.116C273.421 219.084 280.072 235.594 280.072 235.594L265.936 256.06C265.936 256.06 267.637 263.264 272.443 265.527C272.443 265.527 286.341 251.994 288.987 249.127C294.652 242.986 296.821 237.653 296.821 235.39C296.821 233.128 282.905 191.933 282.624 190.938C282.344 189.943 280.923 186.132 277.393 185.137" fill="white"/>
<path d="M273.574 204.803C273.574 204.803 272.587 213.147 273.004 216.116C273.421 219.084 280.072 235.594 280.072 235.594L265.936 256.06C265.936 256.06 267.637 263.264 272.443 265.527C272.443 265.527 286.341 251.994 288.987 249.127C294.652 242.986 296.821 237.653 296.821 235.39C296.821 233.128 282.905 191.933 282.624 190.938C282.344 189.943 280.923 186.132 277.393 185.137" stroke="#263238" stroke-linecap="round" stroke-linejoin="round"/>
<path d="M281.434 235.56C281.434 235.56 285.465 233.145 289.701 234.752" stroke="#263238" stroke-linecap="round" stroke-linejoin="round"/>
<path d="M286.273 232.941C288.022 232.627 289.825 232.989 291.317 233.953" stroke="#263238" stroke-linecap="round" stroke-linejoin="round"/>
<path d="M238.53 55.1912C242.347 55.1915 246.117 56.0439 249.563 57.6861C253.009 59.3283 256.046 61.719 258.451 64.6838H306.135C309.633 64.7719 312.958 66.2234 315.401 68.7286C317.844 71.2338 319.211 74.5944 319.211 78.0935C319.211 81.5926 317.844 84.9532 315.401 87.4584C312.958 89.9636 309.633 91.4151 306.135 91.5032H261.904C260.023 95.6269 257.089 99.1826 253.398 101.812L239.117 112.87C239.062 112.91 238.997 112.931 238.929 112.93C238.867 112.93 238.807 112.909 238.759 112.87L223.083 101.481C219.868 99.1002 217.265 95.9888 215.49 92.4036C213.715 88.8184 212.819 84.8623 212.876 80.8622C212.885 74.0595 215.59 67.5378 220.398 62.726C225.207 57.9141 231.727 55.2047 238.53 55.1912Z" fill="#263238"/>
<path d="M306.781 88.8663H244.943V62.6424L306.781 62.6424C310.257 62.6424 313.591 64.0234 316.05 66.4815C318.508 68.9397 319.889 72.2737 319.889 75.7501C319.89 77.4721 319.552 79.1775 318.893 80.7688C318.235 82.3601 317.27 83.8061 316.053 85.0241C314.835 86.2422 313.39 87.2085 311.799 87.8677C310.208 88.527 308.503 88.8663 306.781 88.8663Z" fill="white" stroke="#263238" stroke-linecap="round" stroke-linejoin="round"/>
<path d="M308.176 71.9054H275.02" stroke="#263238" stroke-linejoin="round"/>
<path d="M308.176 76.0903H275.02" stroke="#263238" stroke-linejoin="round"/>
<path d="M308.176 80.2668H275.02" stroke="#263238" stroke-linejoin="round"/>
<path d="M223.9 98.8949L239.568 110.293L253.849 99.2351C257.4 96.7149 260.243 93.3234 262.105 89.3868C263.967 85.4502 264.784 81.1008 264.479 76.757C264.174 72.4131 262.756 68.2208 260.362 64.5832C257.968 60.9456 254.679 57.9851 250.81 55.9862C246.941 53.9874 242.623 53.0175 238.272 53.1698C233.92 53.3222 229.68 54.5916 225.961 56.856C222.241 59.1204 219.167 62.3037 217.033 66.0998C214.899 69.8958 213.778 74.177 213.778 78.5316C213.725 82.486 214.616 86.3959 216.376 89.9373C218.136 93.4787 220.716 96.5494 223.9 98.8949Z" fill="white" stroke="#263238" stroke-linecap="round" stroke-linejoin="round"/>
<path d="M261.326 78.6591C261.328 83.0752 260.02 87.3927 257.568 91.0655C255.116 94.7382 251.63 97.6014 247.551 99.293C243.471 100.984 238.982 101.428 234.65 100.568C230.319 99.7086 226.34 97.5835 223.216 94.4621C220.092 91.3406 217.964 87.3629 217.101 83.032C216.237 78.7011 216.678 74.2115 218.366 70.1309C220.055 66.0503 222.915 62.562 226.586 60.1072C230.257 57.6523 234.574 56.3411 238.99 56.3395C241.924 56.3294 244.832 56.8997 247.546 58.0175C250.259 59.1354 252.725 60.7788 254.801 62.8532C256.876 64.9275 258.522 67.3919 259.642 70.1045C260.762 72.8172 261.334 75.7244 261.326 78.6591Z" fill="#92E3A9" stroke="#263238" stroke-linejoin="round"/>
<path d="M255.2 94.0209L239.141 89.8445L222.129 93.3064C222.342 93.5616 222.571 93.8083 222.801 94.0465C224.887 96.2458 227.399 97.9973 230.184 99.1942C232.969 100.391 235.969 101.008 239.001 101.008C242.032 101.008 245.032 100.391 247.817 99.1942C250.602 97.9973 253.114 96.2458 255.2 94.0465V94.0209Z" fill="white" stroke="#263238" stroke-linecap="round" stroke-linejoin="round"/>
<path d="M236.275 88.7387C234.901 89.4733 233.671 90.4502 232.643 91.6222C231.053 93.4851 228.39 98.427 228.637 98.2399C228.884 98.0528 236.369 93.4851 236.369 93.4851L236.275 88.7387Z" fill="#92E3A9" stroke="#263238" stroke-linecap="round" stroke-linejoin="round"/>
<path d="M242.51 87.8031L236.641 94.2336L238.316 100.103L245.215 91.3501L242.51 87.8031Z" fill="#92E3A9" stroke="#263238" stroke-linecap="round" stroke-linejoin="round"/>
<path d="M231.708 65.3558C231.708 65.3558 227.889 66.1043 227.455 62.753C227.021 59.4016 232.21 54.6468 239.661 54.6468C247.112 54.6468 252.981 60.8902 252.701 66.9464C252.445 70.8536 251.111 74.6134 248.848 77.8085C247.455 78.9481 245.833 79.7748 244.093 80.2328C242.791 80.4114 241.864 78.5316 242.511 76.1329C243.157 73.7342 241.116 73.0537 241.958 70.8251C242.8 68.5966 243.914 68.5881 244.28 67.8395C244.646 67.091 240.554 65.5089 236.829 65.696C233.103 65.8832 231.708 65.3558 231.708 65.3558Z" fill="#263238" stroke="#263238" stroke-linecap="round" stroke-linejoin="round"/>
<path d="M235.809 85.1067L235.741 85.4639C235.545 86.6122 234.941 90.2018 234.779 92.3708C234.601 94.9821 236.481 94.9226 237.204 94.14C237.927 93.3575 241.865 89.4873 242.511 87.8116C243.158 86.1359 244.655 81.1004 244.655 81.1004L235.809 85.1067Z" fill="white" stroke="#263238" stroke-linecap="round" stroke-linejoin="round"/>
<path d="M231.707 65.3558C231.707 65.3558 230.406 72.6284 229.938 76.4136C229.47 80.1987 229.003 82.4613 230.593 84.9195C232.184 87.3778 236.641 85.7701 238.878 84.826C241.226 83.6655 243.499 82.3587 245.683 80.9132C245.683 80.9132 248.847 81.1004 250.148 79.5183C250.368 79.2359 250.521 78.9081 250.598 78.5587C250.674 78.2094 250.672 77.8474 250.59 77.4992C250.509 77.151 250.35 76.8255 250.127 76.5464C249.903 76.2673 249.62 76.0417 249.298 75.8862C248.751 75.8666 248.206 75.9549 247.694 76.1461C247.182 76.3373 246.712 76.6276 246.312 77.0005C245.759 77.6554 245.853 78.404 245.198 78.404C244.543 78.404 243.616 78.5826 243.803 77.9361C243.99 77.2897 245.385 75.1377 245.011 73.7427C244.637 72.3477 241.847 71.4121 244.16 70.1106C246.474 68.8092 248.915 68.9028 247.801 66.9464C246.687 64.99 240.902 62.9401 237.27 63.6801C235.361 64.0373 233.496 64.5991 231.707 65.3558Z" fill="white" stroke="#263238" stroke-linecap="round" stroke-linejoin="round"/>
<path d="M232.916 67.4993C232.916 67.4993 235.102 67.04 234.966 69.2685C234.915 70.1191 231.053 74.2105 231.614 75.1377C231.996 75.7367 232.504 76.2448 233.103 76.6262" stroke="#263238" stroke-linecap="round" stroke-linejoin="round"/>
<path d="M237.576 69.8299C237.874 69.5853 238.223 69.4113 238.597 69.3208C238.972 69.2304 239.362 69.2259 239.739 69.3078C240.115 69.3896 240.468 69.5556 240.771 69.7934C241.074 70.0311 241.32 70.3344 241.489 70.6805" stroke="#263238" stroke-linecap="round" stroke-linejoin="round"/>
<path d="M232.184 79.3311C232.184 79.3311 232.745 80.7261 234.974 80.539C235.974 80.5434 236.962 80.3224 237.866 79.8925" stroke="#263238" stroke-linecap="round" stroke-linejoin="round"/>
<path d="M238.861 72.8921C238.733 73.5045 238.359 73.9468 238.01 73.8788C237.661 73.8107 237.525 73.2493 237.661 72.6369C237.797 72.0245 238.163 71.5822 238.512 71.6502C238.861 71.7183 238.988 72.2797 238.861 72.8921Z" fill="#263238"/>
<path d="M233.443 70.8251C233.324 71.4206 232.975 71.8544 232.66 71.7948C232.345 71.7353 232.184 71.1994 232.303 70.604C232.422 70.0086 232.771 69.5748 233.085 69.6428C233.4 69.7109 233.562 70.2297 233.443 70.8251Z" fill="#263238"/>
<path d="M127.763 99.5754C123.945 99.5755 120.175 100.429 116.728 102.072C113.282 103.716 110.246 106.109 107.842 109.077H60.1579C58.3685 109.031 56.5882 109.345 54.9219 109.999C53.2555 110.652 51.7368 111.633 50.4553 112.882C49.1737 114.132 48.1553 115.626 47.4599 117.275C46.7645 118.924 46.4062 120.696 46.4062 122.486C46.4062 124.276 46.7645 126.048 47.4599 127.697C48.1553 129.347 49.1737 130.84 50.4553 132.09C51.7368 133.34 53.2555 134.32 54.9219 134.974C56.5882 135.627 58.3685 135.941 60.1579 135.896H104.389C106.268 140.021 109.202 143.577 112.895 146.205L127.177 157.263C127.227 157.305 127.29 157.329 127.355 157.331C127.419 157.329 127.481 157.309 127.534 157.271L143.219 145.856C146.433 143.477 149.035 140.367 150.809 136.783C152.584 133.199 153.481 129.245 153.426 125.246C153.417 118.442 150.711 111.919 145.9 107.107C141.09 102.295 134.568 99.5866 127.763 99.5754Z" fill="#263238"/>
<path d="M58.7979 133.327H120.636V107.103H58.7979C55.3199 107.105 51.9851 108.488 49.5258 110.947C47.0665 113.407 45.6839 116.741 45.6816 120.219C45.6839 123.697 47.0668 127.031 49.5263 129.488C51.9858 131.946 55.3207 133.327 58.7979 133.327Z" fill="white" stroke="#263238" stroke-linecap="round" stroke-linejoin="round"/>
<path d="M57.4023 116.366H90.5586" stroke="#263238" stroke-linejoin="round"/>
<path d="M57.4023 120.551H90.5586" stroke="#263238" stroke-linejoin="round"/>
<path d="M57.4023 124.736H90.5586" stroke="#263238" stroke-linejoin="round"/>
<path d="M141.679 143.356L126.003 154.754L111.721 143.696C108.17 141.176 105.327 137.784 103.466 133.848C101.604 129.911 100.786 125.562 101.092 121.218C101.397 116.874 102.815 112.682 105.208 109.044C107.602 105.406 110.892 102.446 114.76 100.447C118.629 98.4482 122.947 97.4783 127.299 97.6306C131.651 97.7829 135.89 99.0523 139.61 101.317C143.329 103.581 146.404 106.764 148.537 110.561C150.671 114.357 151.792 118.638 151.793 122.992C151.847 126.946 150.958 130.856 149.199 134.397C147.44 137.939 144.862 141.01 141.679 143.356Z" fill="white" stroke="#263238" stroke-linecap="round" stroke-linejoin="round"/>
<path d="M129.947 145.034C142.122 143.075 150.404 131.618 148.445 119.443C146.486 107.268 135.028 98.986 122.853 100.945C110.678 102.904 102.397 114.361 104.355 126.536C106.314 138.711 117.772 146.993 129.947 145.034Z" fill="#92E3A9" stroke="#263238" stroke-linejoin="round"/>
<path d="M145.797 134.05C147.404 124.957 138.473 121.232 137.58 116.604C137.58 116.604 139.817 116.154 140.566 112.266C141.314 108.379 139.664 103.148 131.745 101.506C123.826 99.8646 114.554 106.61 113.032 112.717C111.509 118.824 115.873 121.682 113.627 123.928C113.242 124.269 112.802 124.542 112.326 124.736C111.203 125.417 109.621 126.386 108.558 126.973C106.771 127.96 105.776 137.691 115.107 138.881C124.438 140.072 126.616 137.095 131.779 136.5C135.028 136.126 140.404 136.457 143.943 136.755" fill="#263238"/>
<path d="M145.797 134.05C147.404 124.957 138.473 121.232 137.58 116.604C137.58 116.604 139.817 116.154 140.566 112.266C141.314 108.379 139.664 103.148 131.745 101.506C123.826 99.8646 114.554 106.61 113.032 112.717C111.509 118.824 115.873 121.682 113.627 123.928C113.242 124.269 112.802 124.542 112.326 124.736C111.203 125.417 109.621 126.386 108.558 126.973C106.771 127.96 105.776 137.691 115.107 138.881C124.438 140.072 126.616 137.095 131.779 136.5C135.028 136.126 140.404 136.457 143.943 136.755" stroke="#263238" stroke-linecap="round" stroke-linejoin="round"/>
<path d="M143.398 131.847C140.268 131.847 136.381 134.084 135.037 134.084C133.693 134.084 133.54 128.411 133.54 128.411L126.514 126.914C126.514 126.914 127.262 132.442 126.965 134.688C126.667 136.934 121.58 137.24 119.488 137.521C117.395 137.801 116.205 139.171 115.609 142.309C115.604 142.375 115.604 142.44 115.609 142.505C118.296 144.003 121.265 144.924 124.328 145.21C127.356 144.674 130.41 144.07 132.834 143.449C134.458 143.032 136.04 142.667 137.538 142.352C141.058 140.331 143.963 137.391 145.941 133.846C145.825 133.265 145.504 132.744 145.038 132.378C144.572 132.011 143.991 131.823 143.398 131.847Z" fill="white" stroke="#263238" stroke-linecap="round" stroke-linejoin="round"/>
<path d="M116.076 142.786C120.847 145.271 126.354 145.95 131.586 144.7C136.817 143.45 141.422 140.354 144.554 135.981C140.829 136.457 140.488 138.422 138.319 138.422C135.929 138.422 133.088 138.124 129.813 139.613C126.539 141.102 126.071 141.705 121.443 141.705C119.6 141.7 117.774 142.068 116.076 142.786Z" fill="#92E3A9" stroke="#263238" stroke-linecap="round" stroke-linejoin="round"/>
<path d="M132.792 108.379C132.792 108.379 138.023 112.419 138.321 117.948C138.618 123.477 136.824 127.509 135.037 129.457C133.251 131.405 130.852 130.648 128.462 129.006C126.883 127.856 125.515 126.44 124.422 124.821C123.694 124.747 123.012 124.433 122.483 123.928C121.876 123.431 121.454 122.745 121.283 121.98C121.283 121.98 125.766 121.836 126.812 118.841C127.858 115.847 126.965 113.168 128.462 111.075C129.569 109.725 131.091 108.777 132.792 108.379Z" fill="white" stroke="#263238" stroke-linecap="round" stroke-linejoin="round"/>
<path d="M131.447 116C131.447 116 128.895 114.81 127.857 117.047" stroke="#263238" stroke-linecap="round" stroke-linejoin="round"/>
<path d="M134.434 115.235C134.434 115.235 136.228 113.891 136.824 115.379" stroke="#263238" stroke-linecap="round" stroke-linejoin="round"/>
<path d="M133.692 126.616C133.331 126.697 132.958 126.698 132.596 126.62C132.235 126.543 131.895 126.387 131.6 126.165" stroke="#263238" stroke-linecap="round" stroke-linejoin="round"/>
<path d="M134.586 116.451C134.26 117.923 134.109 119.427 134.135 120.934C134.288 122.729 133.693 123.179 132.791 122.882" stroke="#263238" stroke-linecap="round" stroke-linejoin="round"/>
<path d="M129.848 120.143C130.144 120.143 130.384 119.625 130.384 118.986C130.384 118.347 130.144 117.829 129.848 117.829C129.552 117.829 129.312 118.347 129.312 118.986C129.312 119.625 129.552 120.143 129.848 120.143Z" fill="#263238"/>
<path d="M136.091 119.522C136.387 119.522 136.626 119.004 136.626 118.365C136.626 117.726 136.387 117.208 136.091 117.208C135.795 117.208 135.555 117.726 135.555 118.365C135.555 119.004 135.795 119.522 136.091 119.522Z" fill="#263238"/>
<path d="M127.008 246.593C123.19 246.593 119.421 247.445 115.975 249.088C112.528 250.73 109.492 253.121 107.087 256.085H59.4023C55.9043 256.173 52.5792 257.625 50.1363 260.13C47.6935 262.635 46.3262 265.996 46.3262 269.495C46.3262 272.994 47.6935 276.355 50.1363 278.86C52.5792 281.365 55.9043 282.817 59.4023 282.905H103.633C105.515 287.028 108.449 290.583 112.139 293.214L126.421 304.272C126.475 304.312 126.541 304.332 126.608 304.331C126.67 304.332 126.73 304.311 126.778 304.272L142.455 292.882C145.67 290.502 148.272 287.39 150.047 283.805C151.822 280.22 152.718 276.264 152.662 272.264C152.653 265.461 149.948 258.939 145.139 254.128C140.33 249.316 133.811 246.606 127.008 246.593Z" fill="#263238"/>
<path d="M58.2796 280.608H120.118V254.384H58.2796C54.8032 254.384 51.4692 255.765 49.011 258.223C46.5529 260.682 45.1719 264.016 45.1719 267.492C45.1708 269.214 45.509 270.919 46.1672 272.511C46.8254 274.102 47.7908 275.548 49.008 276.766C50.2253 277.984 51.6707 278.95 53.2615 279.61C54.8524 280.269 56.5575 280.608 58.2796 280.608Z" fill="white" stroke="#263238" stroke-linecap="round" stroke-linejoin="round"/>
<path d="M56.8848 263.647H90.0411" stroke="#263238" stroke-linejoin="round"/>
<path d="M56.8848 267.832H90.0411" stroke="#263238" stroke-linejoin="round"/>
<path d="M56.8848 272.009H90.0411" stroke="#263238" stroke-linejoin="round"/>
<path d="M141.17 290.637L125.493 302.035L111.212 290.977C107.66 288.457 104.817 285.065 102.956 281.129C101.094 277.192 100.277 272.843 100.582 268.499C100.887 264.155 102.305 259.963 104.699 256.325C107.093 252.687 110.382 249.727 114.251 247.728C118.119 245.729 122.437 244.759 126.789 244.912C131.141 245.064 135.381 246.333 139.1 248.598C142.82 250.862 145.894 254.045 148.028 257.842C150.161 261.638 151.282 265.919 151.283 270.273C151.336 274.227 150.446 278.136 148.688 281.677C146.929 285.219 144.352 288.29 141.17 290.637Z" fill="white" stroke="#263238" stroke-linecap="round" stroke-linejoin="round"/>
<path d="M103.607 270.095C103.607 274.511 104.917 278.828 107.37 282.5C109.824 286.171 113.311 289.033 117.391 290.723C121.471 292.413 125.96 292.855 130.292 291.994C134.623 291.132 138.601 289.006 141.724 285.883C144.847 282.76 146.973 278.782 147.835 274.451C148.696 270.119 148.254 265.63 146.564 261.55C144.874 257.47 142.012 253.983 138.341 251.529C134.669 249.076 130.352 247.767 125.936 247.767C123.002 247.761 120.096 248.335 117.384 249.455C114.673 250.575 112.209 252.219 110.135 254.294C108.06 256.368 106.416 258.832 105.296 261.543C104.176 264.255 103.602 267.161 103.607 270.095Z" fill="#92E3A9" stroke="#263238" stroke-linejoin="round"/>
<path d="M108.736 284.342C110.752 286.772 113.259 288.748 116.093 290.138C118.928 291.529 122.024 292.303 125.179 292.41C128.335 292.517 131.477 291.954 134.398 290.758C137.32 289.563 139.956 287.762 142.131 285.474L131.379 283.075L116.502 282.335L108.736 284.342Z" fill="#92E3A9" stroke="#263238" stroke-linecap="round" stroke-linejoin="round"/>
<path d="M119.547 276.916C120.517 273.352 119.385 267.841 119.385 267.841C121.818 265.416 129.108 277.197 129.108 277.197C129.108 277.197 128.946 279.307 131.379 283.032C131.515 283.25 131.663 283.46 131.821 283.662C130.316 286.077 127.126 290.645 124.736 290.169C122.346 289.692 118.611 285.065 116.502 282.292C118.714 280.94 118.807 279.638 119.547 276.916Z" fill="white" stroke="#263238" stroke-linecap="round" stroke-linejoin="round"/>
<path d="M117.039 263.154C117.039 263.154 115.908 262.984 115.746 265.093C115.585 267.203 116.554 268.342 117.354 268.342H118.647C118.854 269.601 119.138 270.845 119.497 272.068C120.144 274.501 120.144 275.802 125.333 277.903C130.521 280.004 131.814 279.689 133.277 277.418C134.74 275.147 134.732 266.888 134.893 263.324C135.055 259.76 135.701 255.669 135.701 255.669C134.631 254.581 133.367 253.701 131.976 253.074C129.543 251.943 122.092 253.236 119.821 254.376C117.55 255.515 118.366 261.342 118.366 261.342L117.039 263.154Z" fill="white" stroke="#263238" stroke-linecap="round" stroke-linejoin="round"/>
<path d="M132.46 274.058C130.95 274.455 129.354 274.363 127.9 273.795" stroke="#263238" stroke-linecap="round" stroke-linejoin="round"/>
<path d="M132.436 265.255C132.436 265.791 132.657 266.233 132.92 266.233C133.184 266.233 133.414 265.791 133.414 265.255C133.414 264.719 133.193 264.285 132.92 264.285C132.648 264.285 132.436 264.719 132.436 265.255Z" fill="#263238"/>
<path d="M127.74 265.901C127.74 266.446 127.953 266.879 128.225 266.879C128.497 266.879 128.71 266.446 128.71 265.901C128.71 265.357 128.497 264.932 128.225 264.932C127.953 264.932 127.74 265.365 127.74 265.901Z" fill="#263238"/>
<path d="M133.898 262.176C133.649 261.975 133.347 261.853 133.029 261.824C132.711 261.796 132.392 261.862 132.111 262.014" stroke="#263238" stroke-linecap="round" stroke-linejoin="round"/>
<path d="M128.547 262.499C128.547 262.499 126.599 261.691 125.145 263.962" stroke="#263238" stroke-linecap="round" stroke-linejoin="round"/>
<path d="M131.176 264.413L131.788 270.928L128.709 271.252" stroke="#263238" stroke-linecap="round" stroke-linejoin="round"/>
<path d="M113.799 251.807C113.96 249.213 118.052 250.182 120.603 249.213C123.155 248.243 127.731 245.325 131.619 245.325C132.635 245.248 133.647 245.531 134.477 246.123C135.307 246.715 135.903 247.58 136.161 248.566L135.991 245.972C135.991 245.972 138.585 247.435 138.423 250.182C138.262 252.93 136.322 256.179 135.021 256.017C133.72 255.856 122.704 255.371 122.058 256.996C121.411 258.62 123.844 261.691 123.844 261.691C123.683 263.315 121.292 262.984 121.088 263.639C120.996 265.205 121.051 266.777 121.25 268.334C121.262 269.246 121.03 270.145 120.578 270.937C120.546 271.744 120.783 272.54 121.25 273.199C121.637 273.627 122.114 273.964 122.646 274.188C123.178 274.411 123.752 274.515 124.329 274.492C124.329 274.492 128.055 271.09 130.811 271.575C133.566 272.06 134.213 273.361 134.213 273.361H134.289C134.213 273.939 134.128 274.475 134.034 274.986C133.575 274.271 132.231 272.527 130.164 272.527C127.612 272.527 124.814 275.607 124.814 275.607C124.814 275.607 127.57 277.384 129.024 277.384C130.479 277.384 130.164 275.607 131.134 275.768C132.103 275.93 131.78 276.899 132.265 276.899C132.872 276.79 133.419 276.463 133.805 275.981C133.682 276.472 133.493 276.944 133.243 277.384C131.78 279.655 130.487 279.936 125.299 277.869C120.11 275.802 120.11 274.467 119.464 272.034L119.285 271.345C119.438 270.19 119.698 269.051 120.059 267.943C120.101 265.978 119.846 264.081 119.302 263.426C118.451 262.448 117.031 263.103 117.031 263.103C117.031 263.103 113.637 254.401 113.799 251.807Z" fill="#263238" stroke="#263238" stroke-linecap="round" stroke-linejoin="round"/>
</svg>
