<svg width="368" height="275" viewBox="0 0 368 275" fill="none" xmlns="http://www.w3.org/2000/svg">
<path d="M368 240.966H0V241.15H368V240.966Z" fill="#EBEBEB"/>
<path d="M331.126 252.809H306.75V252.993H331.126V252.809Z" fill="#EBEBEB"/>
<path d="M243.779 254.811H237.383V254.995H243.779V254.811Z" fill="#EBEBEB"/>
<path d="M306.014 245.979H291.891V246.163H306.014V245.979Z" fill="#EBEBEB"/>
<path d="M70.3992 247.215H38.6113V247.399H70.3992V247.215Z" fill="#EBEBEB"/>
<path d="M81.6159 247.215H76.957V247.399H81.6159V247.215Z" fill="#EBEBEB"/>
<path d="M165.71 250.321H96.7617V250.505H165.71V250.321Z" fill="#EBEBEB"/>
<path d="M174.432 208.141H32.3182C31.2049 208.139 30.1379 207.695 29.3513 206.907C28.5648 206.119 28.123 205.052 28.123 203.938V4.16576C28.1327 3.05883 28.5788 2.00043 29.3643 1.22045C30.1498 0.440465 31.2113 0.00189622 32.3182 0H174.432C175.547 0 176.616 0.442769 177.404 1.2309C178.192 2.01903 178.635 3.08797 178.635 4.20256V203.938C178.635 205.053 178.192 206.122 177.404 206.91C176.616 207.698 175.547 208.141 174.432 208.141ZM32.3182 0.147201C31.2537 0.14915 30.2335 0.573392 29.4815 1.32681C28.7294 2.08022 28.307 3.10125 28.307 4.16576V203.938C28.307 205.003 28.7294 206.024 29.4815 206.777C30.2335 207.531 31.2537 207.955 32.3182 207.957H174.432C175.498 207.955 176.519 207.531 177.272 206.778C178.025 206.024 178.449 205.003 178.451 203.938V4.16576C178.449 3.10057 178.025 2.07956 177.272 1.32636C176.519 0.573153 175.498 0.149146 174.432 0.147201H32.3182Z" fill="#EBEBEB"/>
<path d="M333.637 208.141H191.515C190.401 208.139 189.333 207.695 188.546 206.908C187.758 206.12 187.314 205.052 187.312 203.938V4.16576C187.324 3.05816 187.772 1.99977 188.558 1.21999C189.345 0.440208 190.407 0.00187554 191.515 0H333.637C334.742 0.00383051 335.802 0.443255 336.586 1.22303C337.37 2.00281 337.815 3.06011 337.825 4.16576V203.938C337.825 205.05 337.384 206.117 336.599 206.905C335.814 207.692 334.749 208.137 333.637 208.141ZM191.515 0.147201C190.45 0.149146 189.429 0.573153 188.676 1.32636C187.922 2.07956 187.498 3.10057 187.497 4.16576V203.938C187.498 205.003 187.922 206.024 188.676 206.778C189.429 207.531 190.45 207.955 191.515 207.957H333.637C334.702 207.955 335.723 207.531 336.476 206.778C337.229 206.024 337.653 205.003 337.655 203.938V4.16576C337.653 3.10057 337.229 2.07956 336.476 1.32636C335.723 0.573153 334.702 0.149146 333.637 0.147201H191.515Z" fill="#EBEBEB"/>
<path d="M234.24 167.381H322.663C322.665 168.945 322.062 170.448 320.982 171.578C319.901 172.708 318.426 173.377 316.864 173.446C307.362 173.873 292.745 175.374 288.108 180.629C279.467 190.433 280.306 224.863 290.655 232.834C293.9 235.336 303.358 240.304 303.358 240.304H253.538C253.538 240.304 262.37 235.233 265.454 232.834C275.758 224.796 276.045 190.388 267.36 180.629C262.907 175.624 249.21 174.005 240.01 173.497C238.449 173.409 236.981 172.726 235.908 171.588C234.834 170.45 234.238 168.945 234.24 167.381Z" fill="#F5F5F5"/>
<path d="M311.71 173.762C302.723 174.498 291.963 176.257 288.106 180.629C286.847 182.139 285.852 183.851 285.162 185.693H270.332C269.639 183.853 268.644 182.141 267.388 180.629C263.517 176.279 252.668 174.491 243.836 173.762H311.71Z" fill="#E6E6E6"/>
<path d="M271.908 167.425L273.108 153.684H255.68L254.473 167.425H271.908Z" fill="#EBEBEB"/>
<path d="M271.908 167.425L273.108 153.684H274.043L272.843 167.425H271.908Z" fill="#E0E0E0"/>
<path d="M270.252 166.027L271.209 155.083H257.328L256.371 166.027H270.252Z" fill="#F0F0F0"/>
<path d="M269.184 165.129L269.986 155.988H258.394L257.592 165.129H269.184Z" fill="#FAFAFA"/>
<path d="M277.56 167.381H295.07L293.127 145.176H275.617L277.56 167.381Z" fill="#E6E6E6"/>
<path d="M277.559 167.381H276.72L274.777 145.176H275.616L277.559 167.381Z" fill="#E0E0E0"/>
<path d="M279.143 165.122H293.083L291.537 147.443H277.598L279.143 165.122Z" fill="#F0F0F0"/>
<path d="M280.166 163.664H291.81L290.515 148.9H278.871L280.166 163.664Z" fill="#FAFAFA"/>
<path d="M286.047 155.539C285.86 155.728 285.637 155.878 285.391 155.98C285.145 156.082 284.882 156.135 284.616 156.135C284.349 156.135 284.086 156.082 283.84 155.98C283.595 155.878 283.372 155.728 283.184 155.539C282.995 155.351 282.845 155.128 282.743 154.883C282.641 154.637 282.588 154.374 282.588 154.107C282.588 153.841 282.641 153.578 282.743 153.332C282.845 153.086 282.995 152.863 283.184 152.676C283.565 152.298 284.079 152.086 284.616 152.086C285.152 152.086 285.667 152.298 286.047 152.676C286.425 153.056 286.637 153.571 286.637 154.107C286.637 154.644 286.425 155.158 286.047 155.539Z" fill="#EBEBEB"/>
<path d="M285.193 158.027C285.33 157.887 285.493 157.777 285.673 157.702C285.853 157.626 286.046 157.587 286.242 157.587C286.437 157.587 286.63 157.626 286.81 157.702C286.99 157.777 287.153 157.887 287.29 158.027C287.504 158.232 287.65 158.497 287.71 158.787C287.771 159.077 287.742 159.378 287.629 159.652C287.515 159.925 287.321 160.158 287.073 160.32C286.825 160.482 286.534 160.565 286.238 160.558C285.943 160.563 285.652 160.479 285.406 160.317C285.159 160.154 284.966 159.921 284.854 159.648C284.741 159.375 284.713 159.074 284.773 158.785C284.834 158.496 284.98 158.232 285.193 158.027Z" fill="#F0F0F0"/>
<path d="M136.8 235.763H153.823L144.859 162.744C144.642 161.219 143.892 159.819 142.741 158.794C141.591 157.768 140.114 157.184 138.574 157.143H64.1934L75.0714 235.763H136.8Z" fill="#F5F5F5"/>
<path d="M82.7116 235.763H65.6585L56.672 162.744C56.5618 162.042 56.6071 161.325 56.8048 160.643C57.0025 159.96 57.3477 159.33 57.816 158.795C58.2843 158.261 58.8643 157.836 59.5149 157.551C60.1655 157.265 60.8708 157.126 61.5811 157.143H67.4691C69.0097 157.184 70.4862 157.768 71.6368 158.794C72.7873 159.819 73.5376 161.219 73.7545 162.744L82.7116 235.763Z" fill="#F0F0F0"/>
<path d="M88.9974 235.675L85.9062 200.347C85.8376 199.579 85.5079 198.859 84.9721 198.306C84.4362 197.753 83.7267 197.4 82.9622 197.307L81.6889 197.138C80.6663 197.008 79.7191 196.532 79.0052 195.789C78.2912 195.045 77.8539 194.08 77.766 193.053L77.1993 186.613C77.1453 185.989 77.2213 185.361 77.4227 184.769C77.6241 184.176 77.9464 183.632 78.3692 183.17C78.792 182.709 79.306 182.34 79.8787 182.088C80.4514 181.835 81.0704 181.704 81.6962 181.704H53.213C52.5872 181.704 51.9682 181.835 51.3955 182.088C50.8228 182.34 50.3088 182.709 49.886 183.17C49.4632 183.632 49.1409 184.176 48.9395 184.769C48.7382 185.361 48.6621 185.989 48.7161 186.613L49.2828 193.053C49.3707 194.08 49.808 195.045 50.522 195.789C51.2359 196.532 52.1831 197.008 53.2057 197.138L54.479 197.307C55.2441 197.399 55.9543 197.751 56.4904 198.304C57.0265 198.858 57.3558 199.579 57.423 200.347L60.5142 235.675C60.6245 236.916 61.1955 238.072 62.115 238.913C63.0344 239.755 64.2356 240.222 65.4822 240.223H93.9801C92.73 240.23 91.5233 239.765 90.6 238.922C89.6768 238.08 89.1046 236.92 88.9974 235.675Z" fill="#E6E6E6"/>
<path d="M167.425 191.515C167.661 188.841 168.888 186.352 170.866 184.538C172.843 182.724 175.428 181.715 178.112 181.711H153.309C150.624 181.714 148.037 182.721 146.058 184.536C144.079 186.35 142.85 188.84 142.615 191.515L140.164 219.483H164.975L167.425 191.515Z" fill="#E6E6E6"/>
<path d="M189.151 181.711H178.111C175.426 181.714 172.84 182.721 170.86 184.536C168.881 186.35 167.653 188.84 167.417 191.515L164.967 219.483H105.88L103.43 191.515C103.194 188.84 101.966 186.35 99.9866 184.536C98.0074 182.721 95.4205 181.714 92.7355 181.711H81.6955C81.0696 181.712 80.4507 181.842 79.8779 182.095C79.3052 182.347 78.7912 182.716 78.3684 183.178C77.9456 183.639 77.6233 184.183 77.422 184.776C77.2206 185.369 77.1445 185.997 77.1985 186.62L77.7652 193.06C77.8531 194.087 78.2905 195.053 79.0044 195.796C79.7183 196.54 80.6656 197.016 81.6881 197.145L82.9614 197.314C83.726 197.407 84.4355 197.76 84.9713 198.313C85.5071 198.866 85.8369 199.587 85.9054 200.354L88.9966 235.682C89.1035 236.924 89.6726 238.08 90.5911 238.922C91.5097 239.764 92.711 240.231 93.9572 240.23H176.897C178.144 240.23 179.345 239.763 180.264 238.921C181.184 238.079 181.755 236.924 181.865 235.682L184.949 200.354C185.017 199.587 185.347 198.866 185.883 198.313C186.419 197.76 187.128 197.407 187.893 197.314L189.166 197.152C190.189 197.02 191.135 196.542 191.849 195.798C192.563 195.053 193 194.087 193.089 193.06L193.656 186.62C193.71 185.996 193.634 185.367 193.432 184.774C193.23 184.181 192.907 183.637 192.483 183.175C192.06 182.713 191.545 182.345 190.971 182.093C190.398 181.841 189.778 181.711 189.151 181.711Z" fill="#F0F0F0"/>
<path d="M288.997 56.1494C288.997 56.1494 289.865 50.4675 285.714 46.817C281.563 43.1664 281.931 41.0026 283.116 40.7229C284.301 40.4432 285.398 44.0864 287.216 45.0874C287.216 45.0874 287.275 39.8912 285.427 37.9776C283.58 36.064 282.601 31.1328 284.36 31.0445C286.119 30.9562 286.311 33.9885 286.671 36.1082C287.032 38.2278 288.997 41.2602 288.997 41.2602C288.997 41.2602 289.38 36.6086 290.579 34.695C291.779 32.7814 288.585 28.4022 289.843 26.4886C291.102 24.575 293.266 28.2256 293.082 32.3251C292.898 36.4246 290.138 40.8038 290.8 45.0874C290.8 45.0874 292.007 42.0771 293.097 41.8048C294.186 41.5325 295.268 39.5379 295.996 38.8019C296.725 38.0659 297.638 40.6198 295.996 42.9898C294.355 45.3597 290.167 51.6966 290.8 56.8266L288.997 56.1494Z" fill="#E6E6E6"/>
<path d="M286.525 53.5661L285.164 62.089C285.065 62.7075 285.101 63.3402 285.271 63.9434C285.44 64.5465 285.738 65.1057 286.145 65.5823C286.551 66.0589 287.057 66.4415 287.626 66.7037C288.194 66.966 288.814 67.1015 289.44 67.1011H290.912C291.539 67.1014 292.158 66.9657 292.727 66.7036C293.296 66.4414 293.802 66.0589 294.209 65.5825C294.616 65.1061 294.915 64.5471 295.086 63.9439C295.256 63.3408 295.293 62.708 295.196 62.089L293.834 53.5661H286.525Z" fill="#E6E6E6"/>
<path d="M307.066 63.9584H211.062V68.8896H307.066V63.9584Z" fill="#E0E0E0"/>
<path d="M219.711 45.7719H215.479V63.951H219.711V45.7719Z" fill="#EBEBEB"/>
<path d="M240.164 45.7719H235.932V63.951H240.164V45.7719Z" fill="#EBEBEB"/>
<path d="M263.379 45.3093L259.209 46.0281L262.297 63.9431L266.468 63.2243L263.379 45.3093Z" fill="#EBEBEB"/>
<path d="M224.951 48.1712H220.719V63.9584H224.951V48.1712Z" fill="#EBEBEB"/>
<path d="M234.673 48.1712H230.441V63.9584H234.673V48.1712Z" fill="#EBEBEB"/>
<path d="M259.212 48.1712H254.98V63.9584H259.212V48.1712Z" fill="#EBEBEB"/>
<path d="M245.723 47.6121L241.592 48.5302L245.017 63.9414L249.148 63.0233L245.723 47.6121Z" fill="#EBEBEB"/>
<path d="M228.603 44.8739H226.49V63.9584H228.603V44.8739Z" fill="#EBEBEB"/>
<path d="M253.759 44.8739H251.646V63.9584H253.759V44.8739Z" fill="#EBEBEB"/>
<path d="M211.055 105.712L307.059 105.712V100.78L211.055 100.78V105.712Z" fill="#E0E0E0"/>
<path d="M298.411 100.78H302.643V82.6013H298.411V100.78Z" fill="#EBEBEB"/>
<path d="M277.957 100.78H282.189V82.6013H277.957V100.78Z" fill="#EBEBEB"/>
<path d="M251.665 100.051L255.836 100.77L258.924 82.8548L254.753 82.1359L251.665 100.051Z" fill="#EBEBEB"/>
<path d="M293.178 100.78H297.41V84.9933H293.178V100.78Z" fill="#EBEBEB"/>
<path d="M283.448 100.78H287.68V84.9933H283.448V100.78Z" fill="#EBEBEB"/>
<path d="M258.911 100.78H263.143V84.9933H258.911V100.78Z" fill="#EBEBEB"/>
<path d="M268.986 99.8493L273.117 100.767L276.542 85.3563L272.411 84.4381L268.986 99.8493Z" fill="#EBEBEB"/>
<path d="M289.513 100.78H291.625V81.696H289.513V100.78Z" fill="#EBEBEB"/>
<path d="M264.356 100.78H266.469V81.696H264.356V100.78Z" fill="#EBEBEB"/>
<path d="M220.277 100.611H240.885V86.3843H220.277V100.611Z" fill="#EBEBEB"/>
<path d="M170.951 34.5184H53.6912C52.8294 34.5184 52.1309 35.217 52.1309 36.0787V37.7494C52.1309 38.6112 52.8294 39.3098 53.6912 39.3098H170.951C171.812 39.3098 172.511 38.6112 172.511 37.7494V36.0787C172.511 35.217 171.812 34.5184 170.951 34.5184Z" fill="#E0E0E0"/>
<path d="M165.365 38.3309H59.2852V132.465H165.365V38.3309Z" fill="#E6E6E6"/>
<path d="M162.575 40.9069H61.9414V129.926H162.575V40.9069Z" fill="#F0F0F0"/>
<path d="M85.5596 40.9069L61.9414 129.735V87.9962L74.4092 40.9069H85.5596Z" fill="white"/>
<path d="M93.9209 40.9069L70.0966 129.933H66.2988L90.1231 40.9069H93.9209Z" fill="white"/>
<path d="M162.575 97.0858V111.305L157.754 129.933H153.949L162.575 97.0858Z" fill="white"/>
<path d="M97.0346 39.3098H95.3418V131.921H97.0346V39.3098Z" fill="#E6E6E6"/>
<path d="M129.89 39.3098H128.197V131.921H129.89V39.3098Z" fill="#E6E6E6"/>
<path d="M148.076 36.064C148.076 36.064 150.52 67.9107 164.555 84.1395C164.555 84.1395 154.332 125.127 154.34 139.42L173.336 135.91L166.491 84.3898L169.766 36.064H148.076Z" fill="#E0E0E0"/>
<path d="M76.5447 36.064C76.5447 36.064 74.1012 67.9107 60.0656 84.1395C60.0656 84.1395 70.2887 125.127 70.2813 139.42L51.2852 135.91L58.13 84.3898L54.8842 36.064H76.5447Z" fill="#E0E0E0"/>
<path d="M184 274.204C262.813 274.204 326.703 270.474 326.703 265.873C326.703 261.271 262.813 257.541 184 257.541C105.187 257.541 41.2969 261.271 41.2969 265.873C41.2969 270.474 105.187 274.204 184 274.204Z" fill="#F5F5F5"/>
<path d="M283.41 244.742C283.41 244.507 282.615 221.242 278.847 217.584C275.218 214.051 271.031 217.451 270.854 217.584L270.383 217.017C270.434 216.98 275.255 213.043 279.362 217.017C283.344 220.888 284.117 243.712 284.146 244.676L283.41 244.742Z" fill="#92E3A9"/>
<path d="M283.742 249.32C283.632 248.179 281.144 221.352 291.279 209.708L291.831 210.187C281.909 221.573 284.471 248.974 284.471 249.246L283.742 249.32Z" fill="#92E3A9"/>
<path d="M283.507 246.391L282.771 246.339C282.771 246.03 284.751 214.905 277.361 208.111L277.862 207.567C285.509 214.603 283.595 245.088 283.507 246.391Z" fill="#92E3A9"/>
<path d="M284.47 246.369H283.734C283.734 245.508 283.985 225.282 289.755 221.978C290.308 221.62 290.939 221.4 291.595 221.337C292.251 221.274 292.912 221.37 293.523 221.617C297.019 223.089 298.749 229.264 298.822 229.529L298.086 229.72C298.086 229.661 296.386 223.604 293.221 222.294C292.713 222.092 292.162 222.015 291.618 222.072C291.073 222.128 290.55 222.316 290.093 222.618C284.713 225.709 284.478 246.163 284.47 246.369Z" fill="#92E3A9"/>
<path d="M282.241 246.383L281.505 246.347C281.505 246.185 282.366 230.42 278.127 224.877C277.104 223.553 276.007 222.927 274.852 223.001C272.092 223.192 269.773 227.24 269.751 227.284L269.104 226.924C269.207 226.74 271.65 222.508 274.793 222.265C276.206 222.169 277.531 222.89 278.708 224.428C283.117 230.191 282.278 245.728 282.241 246.383Z" fill="#92E3A9"/>
<path d="M283.034 248.532C282.917 247.002 280.245 210.923 284.955 204.542L285.551 204.983C280.996 211.136 283.734 248.106 283.763 248.481L283.034 248.532Z" fill="#92E3A9"/>
<path d="M294.775 225.326C294.775 225.326 291.956 226.364 292.795 228.815C293.634 231.266 302.547 235.307 302.547 235.307C302.547 235.307 306.278 231.884 302.848 226.327C299.419 220.771 294.848 223.575 294.775 225.326Z" fill="#92E3A9"/>
<path opacity="0.2" d="M294.775 225.326C294.775 225.326 291.956 226.364 292.795 228.815C293.634 231.266 302.547 235.307 302.547 235.307C302.547 235.307 306.278 231.884 302.848 226.327C299.419 220.771 294.848 223.575 294.775 225.326Z" fill="white"/>
<path d="M282.52 220.66C282.52 220.66 285.523 220.535 285.692 223.118C285.862 225.702 279.193 232.863 279.193 232.863C279.193 232.863 274.432 231.141 275.455 224.686C276.478 218.231 281.777 219.063 282.52 220.66Z" fill="#92E3A9"/>
<path opacity="0.2" d="M282.52 220.66C282.52 220.66 285.523 220.535 285.692 223.118C285.862 225.702 279.193 232.863 279.193 232.863C279.193 232.863 274.432 231.141 275.455 224.686C276.478 218.231 281.777 219.063 282.52 220.66Z" fill="white"/>
<path d="M279.98 208.288C279.98 208.288 281.982 208.075 281.82 206.86C281.658 205.646 274.04 202.503 269.551 207.596C269.551 207.596 272.429 212.542 276.587 212.601C280.745 212.66 279.98 208.288 279.98 208.288Z" fill="#92E3A9"/>
<path opacity="0.2" d="M279.98 208.288C279.98 208.288 281.982 208.075 281.82 206.86C281.658 205.646 274.04 202.503 269.551 207.596C269.551 207.596 272.429 212.542 276.587 212.601C280.745 212.66 279.98 208.288 279.98 208.288Z" fill="white"/>
<path d="M283.713 205.344C283.713 205.344 281.902 206.22 281.394 205.101C280.886 203.982 285.685 197.292 292.184 199.213C292.184 199.213 292.361 204.932 288.857 207.184C285.354 209.436 283.713 205.344 283.713 205.344Z" fill="#92E3A9"/>
<path opacity="0.2" d="M283.713 205.344C283.713 205.344 281.902 206.22 281.394 205.101C280.886 203.982 285.685 197.292 292.184 199.213C292.184 199.213 292.361 204.932 288.857 207.184C285.354 209.436 283.713 205.344 283.713 205.344Z" fill="white"/>
<path d="M274.24 224.34C274.24 224.34 275.616 223.229 274.13 222.684C272.643 222.14 265.298 222.294 265.246 229.536C265.246 229.536 273.762 230.949 274.814 228.189C275.867 225.429 274.24 224.34 274.24 224.34Z" fill="#92E3A9"/>
<path opacity="0.2" d="M274.24 224.34C274.24 224.34 275.616 223.229 274.13 222.684C272.643 222.14 265.298 222.294 265.246 229.536C265.246 229.536 273.762 230.949 274.814 228.189C275.867 225.429 274.24 224.34 274.24 224.34Z" fill="white"/>
<path d="M291.603 208.097C291.603 208.097 290.226 206.978 291.713 206.433C293.2 205.889 300.545 206.043 300.589 213.293C300.589 213.293 292.074 214.706 291.021 211.946C289.969 209.186 291.603 208.097 291.603 208.097Z" fill="#92E3A9"/>
<path opacity="0.2" d="M291.603 208.097C291.603 208.097 290.226 206.978 291.713 206.433C293.2 205.889 300.545 206.043 300.589 213.293C300.589 213.293 292.074 214.706 291.021 211.946C289.969 209.186 291.603 208.097 291.603 208.097Z" fill="white"/>
<path d="M287.099 213.933C287.099 213.933 286.981 212.572 288.078 213.109C289.174 213.646 292.979 217.753 289.027 221.654C289.027 221.654 283.713 217.716 284.67 215.663C285.627 213.609 287.099 213.933 287.099 213.933Z" fill="#92E3A9"/>
<path opacity="0.2" d="M287.099 213.933C287.099 213.933 286.981 212.572 288.078 213.109C289.174 213.646 292.979 217.753 289.027 221.654C289.027 221.654 283.713 217.716 284.67 215.663C285.627 213.609 287.099 213.933 287.099 213.933Z" fill="white"/>
<path d="M273.003 215.861C273.003 215.861 273.827 214.78 272.62 214.647C271.413 214.515 265.996 215.957 267.255 221.367C267.255 221.367 273.879 220.874 274.136 218.621C274.394 216.369 273.003 215.861 273.003 215.861Z" fill="#92E3A9"/>
<path opacity="0.2" d="M273.003 215.861C273.003 215.861 273.827 214.78 272.62 214.647C271.413 214.515 265.996 215.957 267.255 221.367C267.255 221.367 273.879 220.874 274.136 218.621C274.394 216.369 273.003 215.861 273.003 215.861Z" fill="white"/>
<path d="M295.305 266.447H272.651L270.215 241.651H297.749L295.305 266.447Z" fill="#263238"/>
<path d="M298.948 238.913H269V244.381H298.948V238.913Z" fill="#263238"/>
<path opacity="0.2" d="M298.948 238.913H269V244.381H298.948V238.913Z" fill="white"/>
<path d="M243.175 266.432H174.852C173.871 266.448 172.899 266.256 171.998 265.867C171.098 265.478 170.291 264.903 169.63 264.178C168.969 263.453 168.47 262.596 168.166 261.664C167.863 260.731 167.761 259.745 167.867 258.77L185.531 57.0179C185.745 54.9444 186.71 53.021 188.245 51.6107C189.78 50.2005 191.779 49.4011 193.863 49.3635H262.164C263.144 49.3451 264.118 49.536 265.019 49.9233C265.92 50.3107 266.729 50.8856 267.39 51.6099C268.052 52.3341 268.551 53.1911 268.856 54.1236C269.16 55.0561 269.262 56.0428 269.156 57.0179L251.492 258.77C251.281 260.843 250.319 262.767 248.787 264.179C247.254 265.591 245.258 266.392 243.175 266.432Z" fill="#92E3A9"/>
<path opacity="0.4" d="M243.175 266.432H174.852C173.871 266.448 172.899 266.256 171.998 265.867C171.098 265.478 170.291 264.903 169.63 264.178C168.969 263.453 168.47 262.596 168.166 261.664C167.863 260.731 167.761 259.745 167.867 258.77L185.531 57.0179C185.745 54.9444 186.71 53.021 188.245 51.6107C189.78 50.2005 191.779 49.4011 193.863 49.3635H262.164C263.144 49.3451 264.118 49.536 265.019 49.9233C265.92 50.3107 266.729 50.8856 267.39 51.6099C268.052 52.3341 268.551 53.1911 268.856 54.1236C269.16 55.0561 269.262 56.0428 269.156 57.0179L251.492 258.77C251.281 260.843 250.319 262.767 248.787 264.179C247.254 265.591 245.258 266.392 243.175 266.432Z" fill="white"/>
<path d="M235.815 266.432H167.492C166.512 266.448 165.539 266.256 164.639 265.867C163.739 265.478 162.931 264.903 162.271 264.178C161.61 263.453 161.111 262.596 160.807 261.664C160.503 260.731 160.401 259.745 160.508 258.77L178.172 57.0179C178.385 54.9444 179.351 53.021 180.886 51.6107C182.421 50.2005 184.419 49.4011 186.503 49.3635H254.804C255.785 49.3451 256.758 49.536 257.66 49.9233C258.561 50.3107 259.369 50.8856 260.031 51.6099C260.692 52.3341 261.192 53.1911 261.496 54.1236C261.801 55.0561 261.903 56.0428 261.796 57.0179L244.132 258.77C243.922 260.843 242.96 262.767 241.427 264.179C239.895 265.591 237.898 266.392 235.815 266.432Z" fill="#263238"/>
<path d="M235.815 266.432H167.492C166.512 266.448 165.539 266.256 164.639 265.867C163.739 265.478 162.931 264.903 162.271 264.178C161.61 263.453 161.111 262.596 160.807 261.664C160.503 260.731 160.401 259.745 160.508 258.77L178.172 57.0179C178.385 54.9444 179.351 53.021 180.886 51.6107C182.421 50.2005 184.419 49.4011 186.503 49.3635H254.804C255.785 49.3451 256.758 49.536 257.66 49.9233C258.561 50.3107 259.369 50.8856 260.031 51.6099C260.692 52.3341 261.192 53.1911 261.496 54.1236C261.801 55.0561 261.903 56.0428 261.796 57.0179L244.132 258.77C243.922 260.843 242.96 262.767 241.427 264.179C239.895 265.591 237.898 266.392 235.815 266.432Z" fill="#92E3A9"/>
<path d="M259.006 56.672L241.342 258.807C241.195 260.47 240.157 261.751 239.001 261.751H164.93C163.87 261.751 163.179 260.566 163.311 259.043L181.056 56.407C181.174 55.0822 181.947 53.9267 182.867 53.9267H201.377C201.9 53.9267 202.334 54.4198 202.466 55.1264L202.996 57.8496C203.129 58.5856 203.563 59.0419 204.086 59.0419H235.601C235.908 58.9963 236.195 58.8609 236.426 58.6527C236.656 58.4445 236.82 58.1727 236.896 57.8717L237.905 55.1338C237.979 54.8281 238.142 54.5509 238.372 54.3365C238.602 54.122 238.89 53.9795 239.2 53.9267H257.446C258.439 53.9267 259.131 55.2 259.006 56.672Z" fill="#263238"/>
<path d="M258.138 66.5565L242.961 239.995H164.975L180.151 66.5565H258.138Z" fill="#92E3A9"/>
<path opacity="0.6" d="M189.137 62.0742H190.101L190.263 60.2195H189.299L189.137 62.0742Z" fill="white"/>
<path opacity="0.6" d="M187.562 62.0742H188.527L188.747 59.6013H187.783L187.562 62.0742Z" fill="white"/>
<path opacity="0.6" d="M185.994 62.0742H186.958L187.231 58.983H186.266L185.994 62.0742Z" fill="white"/>
<path opacity="0.6" d="M184.428 62.0742H185.392L185.716 58.3648H184.752L184.428 62.0742Z" fill="white"/>
<path opacity="0.6" d="M249.762 61.3971H249.188L249.357 59.5424H249.924L249.762 61.3971Z" fill="white"/>
<path opacity="0.6" d="M250.094 62.0742H254.65L254.929 58.8653H250.381L250.094 62.0742Z" fill="white"/>
<path opacity="0.6" d="M220.211 54.1917C220.137 55.0455 219.6 55.7373 219.004 55.7373C218.408 55.7373 217.995 55.0455 218.069 54.1917C218.143 53.3379 218.687 52.6461 219.276 52.6461C219.865 52.6461 220.284 53.3379 220.211 54.1917Z" fill="#263238"/>
<path opacity="0.6" d="M222.376 54.1917C222.332 54.7363 221.986 55.1779 221.603 55.1779C221.22 55.1779 220.963 54.7363 221.007 54.1917C221.051 53.6471 221.404 53.1981 221.78 53.1981C222.155 53.1981 222.427 53.6471 222.376 54.1917Z" fill="#263238"/>
<path opacity="0.7" d="M258.138 66.5565L256.033 90.6163L255.672 94.7674L253.986 114.043L253.722 117.039L251.33 144.366L251.072 147.362L248.776 173.6L248.444 177.376L242.969 239.995H164.975L180.151 66.5565H258.138Z" fill="white"/>
<path d="M183.705 109.325L181.637 113.123L185.773 115.751L183.705 109.325Z" fill="#92E3A9"/>
<path d="M189.74 185.259L192.405 182.292L188.85 178.318L189.74 185.259Z" fill="#92E3A9"/>
<path d="M220.329 73.703L220.13 68.9264L215.795 70.7664L220.329 73.703Z" fill="#92E3A9"/>
<path d="M176.235 183.426L174.174 187.216L178.303 189.844L176.235 183.426Z" fill="#92E3A9"/>
<path d="M178.752 167.153L177.191 171.275L173.982 168.551L176.558 164.121L178.752 167.153Z" fill="#92E3A9"/>
<path d="M210.857 225.65L214.161 225.945L213.749 231.2L209.826 229.742L210.857 225.65Z" fill="#92E3A9"/>
<path d="M184 136.454L186.068 137.036C186.068 137.036 182.969 139.98 184.412 142.291C185.855 144.602 183.382 146.67 183.382 146.67L181.52 144.918C182.002 144.369 182.331 143.702 182.476 142.986C182.62 142.269 182.575 141.527 182.344 140.834C181.52 138.5 184 136.454 184 136.454Z" fill="#92E3A9"/>
<path d="M212.196 119.85L214.264 120.432C214.264 120.432 211.166 123.376 212.608 125.687C214.051 127.998 211.578 130.066 211.578 130.066L209.76 128.314C210.24 127.763 210.568 127.097 210.713 126.381C210.857 125.665 210.813 124.923 210.584 124.229C209.76 121.889 212.196 119.85 212.196 119.85Z" fill="#92E3A9"/>
<path d="M184.206 92.1619L182.307 96.129L186.546 98.3958L184.206 92.1619Z" fill="#92E3A9"/>
<path d="M221.307 94.1786L219.408 98.1456L223.648 100.412L221.307 94.1786Z" fill="#92E3A9"/>
<path d="M203.431 87.8784L204.579 83.3741L200.082 82.6454L203.431 87.8784Z" fill="#92E3A9"/>
<path d="M202.576 105.8L203.18 101.2L206.823 102.422L205.321 107.75L202.576 105.8Z" fill="#92E3A9"/>
<path d="M245.854 99.1686L246.457 94.5686L250.093 95.7904L248.591 101.119L245.854 99.1686Z" fill="#92E3A9"/>
<path d="M242.828 126.283L243.432 121.683L247.075 122.905L245.573 128.233L242.828 126.283Z" fill="#92E3A9"/>
<path d="M232.575 120.586L230.485 120.917C230.485 120.917 232.811 116.803 230.934 115.199C229.057 113.594 230.971 110.584 230.971 110.584L233.12 111.46C233.12 111.46 231.92 113.837 233.216 115.707C234.511 117.576 232.575 120.586 232.575 120.586Z" fill="#92E3A9"/>
<path d="M215.199 175.139L213.131 178.936L217.26 181.564L215.199 175.139Z" fill="#92E3A9"/>
<path d="M202.312 189.844L200.244 193.642L204.373 196.269L202.312 189.844Z" fill="#92E3A9"/>
<path d="M225.694 157.099L228.999 157.386L228.587 162.649L224.664 161.184L225.694 157.099Z" fill="#92E3A9"/>
<path d="M238.044 201.436L241.341 201.723L240.929 206.978L237.006 205.521L238.044 201.436Z" fill="#92E3A9"/>
<path d="M221.735 206.146L223.803 206.735C223.803 206.735 220.704 209.679 222.147 211.99C223.589 214.301 221.116 216.406 221.116 216.406L219.262 214.654C219.75 214.094 220.082 213.414 220.223 212.683C220.364 211.953 220.309 211.198 220.064 210.496C219.262 208.192 221.735 206.146 221.735 206.146Z" fill="#92E3A9"/>
<path d="M239.973 185.045L238.67 185.472C238.67 185.472 239.229 181.579 237.61 180.232C235.991 178.885 236.55 176.022 236.55 176.022L238.17 176.684C238.065 178.058 238.439 179.426 239.229 180.556C240.525 182.182 239.973 185.045 239.973 185.045Z" fill="#92E3A9"/>
<path d="M240.878 80.327L239.575 80.7613C239.575 80.7613 240.135 76.8678 238.515 75.521C236.896 74.1741 237.448 71.311 237.448 71.311L239.067 71.9734C238.967 73.3482 239.344 74.7155 240.135 75.8448C241.408 77.464 240.878 80.327 240.878 80.327Z" fill="#92E3A9"/>
<path d="M189.624 228.005L187.681 229.124C187.681 229.124 189.153 224.274 187.011 223.45C184.869 222.625 186.172 218.989 186.172 218.989H188.38C188.38 218.989 187.681 221.742 189.278 223.052C190.875 224.362 189.624 228.005 189.624 228.005Z" fill="#92E3A9"/>
<path d="M188.776 73.7031C188.776 74.9101 188.084 75.9111 187.231 75.9111C186.377 75.9111 185.678 74.9322 185.678 73.7031C185.678 72.4739 186.37 71.4951 187.231 71.4951C188.092 71.4951 188.776 72.496 188.776 73.7031Z" fill="#92E3A9"/>
<path d="M205.925 157.909C205.925 159.123 205.189 160.117 204.372 160.117C203.555 160.117 202.826 159.138 202.826 157.909C202.826 156.68 203.518 155.701 204.372 155.701C205.226 155.701 205.925 156.702 205.925 157.909Z" fill="#92E3A9"/>
<path d="M246.501 151.645C247.354 151.645 248.046 150.663 248.046 149.452C248.046 148.241 247.354 147.259 246.501 147.259C245.647 147.259 244.955 148.241 244.955 149.452C244.955 150.663 245.647 151.645 246.501 151.645Z" fill="#92E3A9"/>
<path d="M254.059 75.3002C254.059 76.5146 253.368 77.5082 252.507 77.5082C251.645 77.5082 250.961 76.5293 250.961 75.3002C250.961 74.071 251.653 73.0922 252.507 73.0922C253.36 73.0922 254.059 74.0931 254.059 75.3002Z" fill="#92E3A9"/>
<path d="M172.629 211.497L174.271 207.309L169.906 205.58L172.629 211.497Z" fill="#92E3A9"/>
<path d="M234.394 231.914L233.525 236.543L238.052 236.712L234.394 231.914Z" fill="#92E3A9"/>
<path d="M170.818 235.351C170.737 234.144 171.37 233.076 172.223 232.973C173.077 232.87 173.828 233.754 173.901 234.961C173.975 236.168 173.349 237.228 172.496 237.338C171.642 237.448 170.891 236.55 170.818 235.351Z" fill="#92E3A9"/>
<g opacity="0.5">
<path d="M183.707 109.325L181.639 113.123L185.775 115.751L183.707 109.325Z" fill="white"/>
<path d="M189.742 185.259L192.406 182.292L188.852 178.318L189.742 185.259Z" fill="white"/>
<path d="M220.329 73.703L220.13 68.9264L215.795 70.7664L220.329 73.703Z" fill="white"/>
<path d="M176.237 183.426L174.176 187.216L178.305 189.844L176.237 183.426Z" fill="white"/>
<path d="M178.754 167.153L177.193 171.275L173.984 168.551L176.56 164.121L178.754 167.153Z" fill="white"/>
<path d="M210.857 225.65L214.161 225.945L213.749 231.2L209.826 229.742L210.857 225.65Z" fill="white"/>
<path d="M184 136.454L186.068 137.036C186.068 137.036 182.969 139.98 184.412 142.291C185.855 144.602 183.382 146.67 183.382 146.67L181.52 144.918C182.002 144.369 182.331 143.702 182.476 142.986C182.62 142.269 182.575 141.527 182.344 140.834C181.52 138.5 184 136.454 184 136.454Z" fill="white"/>
<path d="M212.196 119.85L214.264 120.432C214.264 120.432 211.166 123.376 212.608 125.687C214.051 127.998 211.578 130.066 211.578 130.066L209.76 128.314C210.24 127.763 210.568 127.097 210.713 126.381C210.857 125.665 210.813 124.923 210.584 124.229C209.76 121.889 212.196 119.85 212.196 119.85Z" fill="white"/>
<path d="M184.207 92.1619L182.309 96.129L186.548 98.3958L184.207 92.1619Z" fill="white"/>
<path d="M221.309 94.1786L219.41 98.1456L223.65 100.412L221.309 94.1786Z" fill="white"/>
<path d="M203.431 87.8784L204.579 83.3741L200.082 82.6454L203.431 87.8784Z" fill="white"/>
<path d="M202.578 105.8L203.182 101.2L206.825 102.422L205.323 107.75L202.578 105.8Z" fill="white"/>
<path d="M245.854 99.1686L246.457 94.5686L250.093 95.7904L248.591 101.119L245.854 99.1686Z" fill="white"/>
<path d="M242.83 126.283L243.434 121.683L247.077 122.905L245.575 128.233L242.83 126.283Z" fill="white"/>
<path d="M232.577 120.586L230.487 120.917C230.487 120.917 232.813 116.803 230.936 115.199C229.059 113.594 230.973 110.584 230.973 110.584L233.122 111.46C233.122 111.46 231.922 113.837 233.218 115.707C234.513 117.576 232.577 120.586 232.577 120.586Z" fill="white"/>
<path d="M215.199 175.139L213.131 178.936L217.26 181.564L215.199 175.139Z" fill="white"/>
<path d="M202.312 189.844L200.244 193.642L204.373 196.269L202.312 189.844Z" fill="white"/>
<path d="M225.694 157.099L228.999 157.386L228.587 162.649L224.664 161.184L225.694 157.099Z" fill="white"/>
<path d="M238.046 201.436L241.343 201.723L240.931 206.978L237.008 205.521L238.046 201.436Z" fill="white"/>
<path d="M221.735 206.146L223.803 206.735C223.803 206.735 220.704 209.679 222.147 211.99C223.589 214.301 221.116 216.406 221.116 216.406L219.262 214.654C219.75 214.094 220.082 213.414 220.223 212.683C220.364 211.953 220.309 211.198 220.064 210.496C219.262 208.192 221.735 206.146 221.735 206.146Z" fill="white"/>
<path d="M239.973 185.045L238.67 185.472C238.67 185.472 239.229 181.579 237.61 180.232C235.991 178.885 236.55 176.022 236.55 176.022L238.17 176.684C238.065 178.058 238.439 179.426 239.229 180.556C240.525 182.182 239.973 185.045 239.973 185.045Z" fill="white"/>
<path d="M240.878 80.327L239.575 80.7613C239.575 80.7613 240.135 76.8678 238.515 75.521C236.896 74.1741 237.448 71.311 237.448 71.311L239.067 71.9734C238.967 73.3482 239.344 74.7155 240.135 75.8448C241.408 77.464 240.878 80.327 240.878 80.327Z" fill="white"/>
<path d="M189.624 228.005L187.681 229.124C187.681 229.124 189.153 224.274 187.011 223.45C184.869 222.625 186.172 218.989 186.172 218.989H188.38C188.38 218.989 187.681 221.742 189.278 223.052C190.875 224.362 189.624 228.005 189.624 228.005Z" fill="white"/>
<path d="M188.778 73.703C188.778 74.9101 188.086 75.911 187.233 75.911C186.379 75.911 185.68 74.9321 185.68 73.703C185.68 72.4739 186.372 71.495 187.233 71.495C188.094 71.495 188.778 72.496 188.778 73.703Z" fill="white"/>
<path d="M205.927 157.909C205.927 159.123 205.191 160.117 204.374 160.117C203.557 160.117 202.828 159.138 202.828 157.909C202.828 156.68 203.52 155.701 204.374 155.701C205.227 155.701 205.927 156.702 205.927 157.909Z" fill="white"/>
<path d="M246.503 151.645C247.356 151.645 248.048 150.663 248.048 149.452C248.048 148.241 247.356 147.259 246.503 147.259C245.649 147.259 244.957 148.241 244.957 149.452C244.957 150.663 245.649 151.645 246.503 151.645Z" fill="white"/>
<path d="M254.061 75.3002C254.061 76.5146 253.37 77.5082 252.508 77.5082C251.647 77.5082 250.963 76.5293 250.963 75.3002C250.963 74.071 251.655 73.0922 252.508 73.0922C253.362 73.0922 254.061 74.0931 254.061 75.3002Z" fill="white"/>
<path d="M172.629 211.497L174.271 207.309L169.906 205.58L172.629 211.497Z" fill="white"/>
<path d="M234.394 231.914L233.525 236.543L238.052 236.712L234.394 231.914Z" fill="white"/>
<path d="M170.819 235.351C170.739 234.144 171.371 233.076 172.225 232.973C173.079 232.87 173.83 233.754 173.903 234.961C173.977 236.168 173.351 237.228 172.498 237.338C171.644 237.448 170.893 236.55 170.819 235.351Z" fill="white"/>
</g>
<path d="M220.483 211.085H190.307C189.293 211.117 188.285 210.933 187.348 210.543C186.412 210.154 185.57 209.569 184.878 208.827C184.187 208.085 183.662 207.204 183.339 206.243C183.016 205.282 182.902 204.263 183.006 203.254C183.252 201.108 184.277 199.127 185.885 197.685C187.494 196.243 189.575 195.441 191.735 195.43H221.911C222.924 195.398 223.932 195.582 224.867 195.971C225.803 196.36 226.645 196.945 227.336 197.685C228.028 198.426 228.553 199.306 228.876 200.267C229.2 201.227 229.314 202.246 229.212 203.254C228.967 205.401 227.943 207.384 226.335 208.827C224.726 210.27 222.644 211.074 220.483 211.085Z" fill="#92E3A9"/>
<path d="M188.122 89.2621C188.139 88.6637 188.38 88.0936 188.8 87.6663C189.219 87.239 189.784 86.9861 190.382 86.9584C190.656 86.9475 190.929 87.0059 191.174 87.1281C191.42 87.2503 191.631 87.4324 191.788 87.6576L191.39 88.0624C191.275 87.8946 191.12 87.7583 190.939 87.6658C190.757 87.5732 190.556 87.5274 190.352 87.5325C189.906 87.5565 189.486 87.7479 189.175 88.0686C188.864 88.3892 188.685 88.8154 188.674 89.2621C188.63 89.4676 188.631 89.6805 188.679 89.8854C188.726 90.0903 188.818 90.2822 188.948 90.4475C189.078 90.6127 189.243 90.7472 189.431 90.8412C189.619 90.9353 189.826 90.9867 190.036 90.9917C190.253 90.9903 190.468 90.9407 190.664 90.8465C190.86 90.7523 191.032 90.6159 191.169 90.447L191.493 90.8592C191.307 91.0876 191.072 91.272 190.806 91.3992C190.541 91.5264 190.25 91.5933 189.955 91.5952C188.785 91.5658 187.997 90.5942 188.122 89.2621Z" fill="#92E3A9"/>
<path d="M192.037 89.2621C192.055 88.6631 192.298 88.0929 192.718 87.6658C193.139 87.2386 193.705 86.986 194.304 86.9584C194.585 86.9633 194.862 87.0303 195.115 87.1546C195.367 87.2789 195.59 87.4574 195.765 87.6775C195.941 87.8975 196.066 88.1536 196.131 88.4275C196.197 88.7014 196.201 88.9864 196.144 89.2621C196.127 89.8604 195.886 90.4305 195.466 90.8579C195.047 91.2852 194.482 91.5381 193.884 91.5658C193.602 91.5606 193.325 91.4936 193.072 91.3693C192.819 91.2451 192.597 91.0667 192.42 90.8469C192.244 90.6271 192.118 90.3711 192.052 90.0972C191.986 89.8233 191.98 89.5382 192.037 89.2621ZM195.592 89.2621C195.637 89.0582 195.637 88.8468 195.592 88.6429C195.546 88.439 195.456 88.2476 195.328 88.0824C195.2 87.9173 195.038 87.7823 194.852 87.6873C194.666 87.5922 194.461 87.5394 194.252 87.5325C193.808 87.5584 193.39 87.7508 193.082 88.0715C192.773 88.3921 192.597 88.8173 192.589 89.2621C192.543 89.4666 192.543 89.6786 192.589 89.883C192.635 90.0875 192.725 90.2792 192.854 90.4445C192.983 90.6098 193.147 90.7446 193.334 90.8392C193.521 90.9338 193.726 90.9859 193.936 90.9917C194.378 90.964 194.794 90.7708 195.101 90.4503C195.408 90.1299 195.583 89.7057 195.592 89.2621Z" fill="#92E3A9"/>
<path d="M200.53 87.0099L200.118 91.5142H199.661L197.645 88.1581L197.343 91.5142H196.791L197.203 87.0099H197.652L199.669 90.3661L199.978 87.0099H200.53Z" fill="#92E3A9"/>
<path d="M204.167 89.2326H204.697L204.542 90.9917C204.122 91.3593 203.584 91.5631 203.026 91.5658C202.743 91.563 202.464 91.4976 202.21 91.3742C201.955 91.2509 201.731 91.0726 201.554 90.8523C201.377 90.632 201.25 90.3751 201.184 90.1002C201.118 89.8252 201.113 89.539 201.171 89.2621C201.189 88.6606 201.435 88.0884 201.858 87.6609C202.282 87.2334 202.851 86.9823 203.453 86.9584C203.73 86.9458 204.006 87.0033 204.256 87.1254C204.505 87.2476 204.72 87.4306 204.881 87.6576L204.498 88.055C204.374 87.8881 204.211 87.7534 204.024 87.6625C203.837 87.5715 203.631 87.5269 203.423 87.5325C202.973 87.551 202.547 87.7401 202.231 88.0613C201.916 88.3825 201.734 88.8118 201.723 89.2621C201.686 89.468 201.694 89.6793 201.745 89.8821C201.796 90.0849 201.89 90.2744 202.02 90.438C202.15 90.6017 202.314 90.7357 202.5 90.8312C202.686 90.9266 202.891 90.9814 203.099 90.9917C203.434 90.9976 203.761 90.8971 204.034 90.7046L204.167 89.2326Z" fill="#92E3A9"/>
<path d="M208.134 91.5142L207.398 90.1306H207.155H206.199L206.073 91.4995H205.521L205.934 86.9952H207.442C207.651 86.968 207.863 86.9906 208.06 87.0614C208.258 87.1321 208.436 87.2488 208.58 87.402C208.724 87.5551 208.829 87.7402 208.887 87.9421C208.945 88.1439 208.955 88.3567 208.914 88.5629C208.906 88.8698 208.808 89.1675 208.633 89.4198C208.457 89.672 208.213 89.8678 207.928 89.9834L208.708 91.4995L208.134 91.5142ZM208.392 88.5702C208.451 87.9299 208.112 87.5619 207.406 87.5619H206.464L206.28 89.5859H207.222C207.366 89.6034 207.512 89.5905 207.651 89.5482C207.791 89.5059 207.919 89.435 208.029 89.3401C208.14 89.2452 208.229 89.1284 208.291 88.9971C208.353 88.8658 208.388 88.7229 208.392 88.5776V88.5702Z" fill="#92E3A9"/>
<path d="M212.137 90.3882H210.083L209.553 91.5142H209.023L211.187 87.0099H211.732L213.079 91.5142H212.497L212.137 90.3882ZM211.99 89.873L211.357 87.665L210.319 89.873H211.99Z" fill="#92E3A9"/>
<path d="M214.551 87.584H213.227L213.278 87.0247H216.48L216.428 87.584H215.103L214.743 91.529H214.176L214.551 87.584Z" fill="#92E3A9"/>
<path d="M216.744 89.5712L216.98 87.0099H217.532L217.296 89.5418C217.208 90.5427 217.561 91.0138 218.253 91.0138C218.945 91.0138 219.394 90.5648 219.482 89.5418L219.717 87.0099H220.247L220.019 89.5712C219.894 90.8739 219.217 91.5658 218.201 91.5658C217.186 91.5658 216.626 90.8739 216.744 89.5712Z" fill="#92E3A9"/>
<path d="M221.389 87.0099H221.941L221.58 90.9549H223.67L223.626 91.5142H220.977L221.389 87.0099Z" fill="#92E3A9"/>
<path d="M226.843 90.3882H224.79L224.26 91.5142H223.693L225.857 87.0099H226.402L227.749 91.5142H227.167L226.843 90.3882ZM226.696 89.873L226.063 87.665L225.033 89.873H226.696Z" fill="#92E3A9"/>
<path d="M229.256 87.584H227.932L227.983 87.0247H231.185L231.104 87.584H229.779L229.418 91.529H228.896L229.256 87.584Z" fill="#92E3A9"/>
<path d="M231.789 87.0099H232.341L231.929 91.5142H231.377L231.789 87.0099Z" fill="#92E3A9"/>
<path d="M232.98 89.2621C233.001 88.663 233.247 88.0937 233.668 87.6671C234.089 87.2405 234.655 86.9875 235.254 86.9584C235.536 86.9633 235.813 87.0303 236.065 87.1546C236.318 87.2789 236.54 87.4574 236.716 87.6775C236.892 87.8975 237.017 88.1536 237.082 88.4275C237.148 88.7014 237.152 88.9864 237.094 89.2621C237.078 89.8604 236.836 90.4305 236.417 90.8579C235.998 91.2852 235.433 91.5381 234.835 91.5658C234.552 91.5617 234.274 91.4954 234.02 91.3716C233.767 91.2479 233.543 91.0697 233.366 90.8497C233.189 90.6297 233.063 90.3734 232.996 90.099C232.929 89.8246 232.924 89.5388 232.98 89.2621ZM236.542 89.2621C236.586 89.0583 236.585 88.8473 236.539 88.644C236.493 88.4406 236.403 88.2498 236.276 88.085C236.148 87.9201 235.986 87.7852 235.8 87.6898C235.615 87.5943 235.411 87.5406 235.203 87.5325C234.758 87.5582 234.339 87.7505 234.029 88.071C233.72 88.3914 233.542 88.8166 233.532 89.2621C233.488 89.467 233.489 89.6792 233.536 89.8836C233.583 90.088 233.674 90.2796 233.803 90.4447C233.932 90.6098 234.097 90.7444 234.284 90.8389C234.471 90.9335 234.677 90.9856 234.886 90.9917C235.329 90.964 235.745 90.7708 236.052 90.4503C236.359 90.1299 236.534 89.7057 236.542 89.2621Z" fill="#92E3A9"/>
<path d="M241.475 87.0099L241.07 91.5142H240.614L238.597 88.1581L238.295 91.5142H237.729L238.141 87.0099H238.597L240.614 90.3661L240.915 87.0099H241.475Z" fill="#92E3A9"/>
<path d="M241.924 90.9991L242.145 90.528C242.303 90.6943 242.493 90.826 242.705 90.9147C242.917 91.0034 243.144 91.0472 243.374 91.0432C244.044 91.0432 244.36 90.7415 244.389 90.3514C244.492 89.2547 242.086 89.9466 242.24 88.2759C242.287 87.8955 242.479 87.5482 242.777 87.3077C243.076 87.0672 243.456 86.9525 243.837 86.9879C244.274 86.9759 244.701 87.1165 245.044 87.3853L244.816 87.9005C244.524 87.6656 244.161 87.536 243.786 87.5325C243.131 87.5325 242.822 87.8563 242.785 88.2685C242.682 89.3725 245.089 88.6807 244.941 90.3367C244.893 90.7198 244.697 91.0688 244.394 91.3084C244.091 91.548 243.706 91.6589 243.322 91.6173C243.059 91.6146 242.8 91.5584 242.559 91.4521C242.319 91.3458 242.103 91.1917 241.924 90.9991Z" fill="#92E3A9"/>
<path d="M193.017 203.386H193.922L193.738 205.41C193.228 205.813 192.599 206.035 191.95 206.043C190.595 206.043 189.705 204.969 189.837 203.467C189.86 202.787 190.141 202.14 190.624 201.66C191.107 201.18 191.755 200.902 192.435 200.884C192.771 200.866 193.106 200.936 193.407 201.087C193.708 201.238 193.964 201.465 194.15 201.745L193.414 202.429C193.301 202.254 193.145 202.111 192.961 202.013C192.777 201.915 192.57 201.866 192.362 201.87C191.946 201.882 191.551 202.055 191.261 202.353C190.971 202.651 190.809 203.051 190.809 203.467C190.763 203.656 190.761 203.853 190.802 204.043C190.844 204.233 190.927 204.412 191.046 204.565C191.166 204.718 191.318 204.843 191.493 204.929C191.667 205.016 191.858 205.062 192.053 205.064C192.333 205.068 192.609 204.991 192.847 204.844L193.017 203.386Z" fill="white"/>
<path d="M195.04 200.972H196.034L195.578 205.962H194.584L195.04 200.972Z" fill="white"/>
<path d="M197.985 201.9L197.867 203.217H199.854L199.766 204.144H197.779L197.617 205.962H196.623L197.079 200.972H200.318L200.237 201.9H197.985Z" fill="white"/>
<path d="M201.818 201.907H200.441L200.53 200.972H204.269L204.18 201.907H202.811L202.436 205.962H201.45L201.818 201.907Z" fill="white"/>
<path d="M205.785 205.469L206.205 204.601C206.585 204.929 207.071 205.112 207.574 205.116C208.155 205.116 208.42 204.888 208.449 204.586C208.53 203.651 205.977 204.292 206.146 202.437C206.171 202.207 206.242 201.984 206.354 201.781C206.466 201.578 206.617 201.399 206.798 201.255C206.98 201.111 207.188 201.004 207.41 200.94C207.633 200.876 207.866 200.857 208.096 200.884C208.622 200.862 209.141 201.018 209.568 201.325L209.185 202.201C208.85 201.954 208.446 201.818 208.03 201.811C207.441 201.811 207.191 202.069 207.161 202.378C207.081 203.298 209.627 202.665 209.465 204.498C209.438 204.728 209.365 204.951 209.252 205.154C209.138 205.356 208.986 205.534 208.803 205.678C208.621 205.821 208.412 205.928 208.188 205.99C207.964 206.053 207.731 206.071 207.5 206.043C206.878 206.067 206.268 205.863 205.785 205.469Z" fill="white"/>
<path d="M213.396 205.035L213.308 205.962H209.988L210.445 200.972H213.683L213.602 201.9H211.343L211.247 202.981H213.234L213.153 203.879H211.166L211.055 205.035H213.396Z" fill="white"/>
<path d="M218.49 200.972L218.033 205.962H217.216L215.354 202.93L215.075 205.962H214.096L214.552 200.972H215.376L217.231 203.997L217.511 200.972H218.49Z" fill="white"/>
<path d="M220.306 201.907H218.93L219.018 200.972H222.757L222.669 201.907H221.3L220.924 205.962H219.938L220.306 201.907Z" fill="white"/>
<path d="M237.137 149.678C240.92 131.143 232.668 113.807 218.706 110.957C204.744 108.108 190.358 120.824 186.576 139.359C182.793 157.895 191.045 175.23 205.007 178.08C218.97 180.929 233.355 168.213 237.137 149.678Z" fill="#92E3A9"/>
<path opacity="0.3" d="M237.137 149.678C240.92 131.143 232.668 113.807 218.706 110.957C204.744 108.108 190.358 120.824 186.576 139.359C182.793 157.895 191.045 175.23 205.007 178.08C218.97 180.929 233.355 168.213 237.137 149.678Z" fill="white"/>
<path d="M171.4 146.501L180.041 140.436L185.797 143.638L202.312 140.547L201.576 146.92L185.635 147.575C185.635 147.575 178.113 152.153 176.641 152.352C175.169 152.551 171.4 146.501 171.4 146.501Z" fill="#E4897B"/>
<path d="M237.574 144.05C237.537 144.477 237.493 144.911 237.449 145.338L195.71 148.525H195.416V147.2V141.849V139.531L196.299 139.354L236.728 131.008C237.683 135.285 237.969 139.685 237.574 144.05Z" fill="#92E3A9"/>
<path opacity="0.2" d="M237.574 144.05C237.537 144.477 237.493 144.911 237.449 145.338L195.71 148.525H195.416V147.2V141.849V139.531L196.299 139.354L236.728 131.008C237.683 135.285 237.969 139.685 237.574 144.05Z" fill="black"/>
<path d="M193.539 139.266L196.387 138.736L195.599 150.254L192.42 149.85L193.539 139.266Z" fill="#92E3A9"/>
<path opacity="0.5" d="M193.539 139.266L196.387 138.736L195.599 150.254L192.42 149.85L193.539 139.266Z" fill="white"/>
<path d="M151.16 128.167L151.278 128.152L151.271 128.138L151.285 128.13L151.278 128.101L151.16 128.167Z" fill="#263238"/>
<path d="M196.21 118.776L195.79 118.835L165.651 120.954L151.52 127.873L151.27 127.887L155.892 155.546L184.551 153.53L200.169 145.949L196.21 118.776Z" fill="#263238"/>
<path opacity="0.2" d="M154.914 129.83L156.158 130.831L157.689 130.368L157.122 131.862L158.027 133.172L156.437 133.098L155.473 134.364L155.054 132.826L153.545 132.296L154.877 131.428L154.914 129.83Z" fill="white"/>
<path opacity="0.2" d="M171.4 130.971V132.568L172.718 133.466L171.202 133.959L170.753 135.49L169.81 134.202L168.221 134.254L169.155 132.958L168.618 131.457L170.134 131.943L171.4 130.971Z" fill="white"/>
<path opacity="0.2" d="M172.07 148.142V149.739L173.388 150.637L171.879 151.138L171.43 152.668L170.488 151.38L168.891 151.425L169.825 150.129L169.288 148.628L170.804 149.121L172.07 148.142Z" fill="white"/>
<path opacity="0.2" d="M164.805 144.352L164.812 145.941L166.129 146.847L164.613 147.34L164.164 148.871L163.222 147.583L161.625 147.634L162.56 146.339L162.022 144.837L163.546 145.323L164.805 144.352Z" fill="white"/>
<path opacity="0.2" d="M172.688 143.262L172.696 144.197L173.461 144.727L172.578 145.014L172.313 145.912L171.761 145.161L170.826 145.183L171.378 144.433L171.062 143.549L171.952 143.836L172.688 143.262Z" fill="white"/>
<path opacity="0.2" d="M159.757 150.637V151.572L160.529 152.094L159.646 152.389L159.381 153.279L158.829 152.529L157.895 152.558L158.439 151.8L158.13 150.917L159.021 151.204L159.757 150.637Z" fill="white"/>
<path opacity="0.2" d="M158.042 141.606L158.05 142.541L158.815 143.064L157.932 143.358L157.667 144.256L157.115 143.498L156.188 143.527L156.732 142.769L156.416 141.893L157.306 142.18L158.042 141.606Z" fill="white"/>
<path opacity="0.2" d="M176.913 126.82V127.755L177.686 128.285L176.802 128.572L176.538 129.47L175.986 128.719L175.051 128.748L175.595 127.99L175.286 127.107L176.177 127.394L176.913 126.82Z" fill="white"/>
<path opacity="0.2" d="M160.514 134.342L161.581 136.167L163.686 136.322L162.28 137.897L162.781 139.943L160.852 139.097L159.057 140.208L159.27 138.11L157.658 136.741L159.719 136.292L160.514 134.342Z" fill="white"/>
<path opacity="0.2" d="M174.534 137.212L176.499 137.971L178.244 136.786L178.126 138.891L179.789 140.179L177.751 140.723L177.044 142.703L175.896 140.937L173.791 140.87L175.123 139.236L174.534 137.212Z" fill="white"/>
<path opacity="0.2" d="M179.09 145.949L180.157 147.774L182.262 147.929L180.856 149.504L181.357 151.55L179.429 150.703L177.633 151.807L177.846 149.71L176.234 148.348L178.295 147.899L179.09 145.949Z" fill="white"/>
<path opacity="0.2" d="M182.993 126.894L183.721 127.777L184.457 127.173L184.31 128.719L184.891 129.941L184.074 130.014L183.699 131.376L183.338 129.875L182.521 129.492L183.118 128.491L182.993 126.894Z" fill="white"/>
<path opacity="0.2" d="M191.523 126.496L191.677 128.093L192.435 128.874L191.707 129.514L191.618 131.082L191.022 129.882L190.205 130.081L190.566 128.697L190.146 127.247L190.971 127.593L191.523 126.496Z" fill="white"/>
<path opacity="0.2" d="M193.48 143.623L193.627 145.213L194.385 145.993L193.656 146.633L193.568 148.201L192.972 147.001L192.155 147.2L192.516 145.816L192.104 144.366L192.92 144.712L193.48 143.623Z" fill="white"/>
<path opacity="0.2" d="M189.409 140.502L189.556 142.092L190.314 142.872L189.586 143.513L189.497 145.088L188.901 143.881L188.092 144.079L188.445 142.696L188.025 141.246L188.85 141.592L189.409 140.502Z" fill="white"/>
<path opacity="0.2" d="M193.341 138.684L193.429 139.612L193.871 140.068L193.444 140.444L193.392 141.364L193.039 140.664L192.568 140.775L192.774 139.965L192.531 139.119L193.017 139.317L193.341 138.684Z" fill="white"/>
<path opacity="0.2" d="M187.415 147.259L187.503 148.194L187.945 148.65L187.518 149.018L187.467 149.945L187.113 149.239L186.642 149.356L186.848 148.547L186.605 147.693L187.084 147.899L187.415 147.259Z" fill="white"/>
<path opacity="0.2" d="M185.692 138.383L185.781 139.317L186.222 139.774L185.795 140.149L185.744 141.069L185.391 140.363L184.92 140.48L185.126 139.671L184.883 138.817L185.369 139.023L185.692 138.383Z" fill="white"/>
<path opacity="0.2" d="M193.958 121.837L194.046 122.772L194.488 123.228L194.061 123.596L194.017 124.524L193.664 123.817L193.185 123.928L193.391 123.125L193.148 122.272L193.634 122.478L193.958 121.837Z" fill="white"/>
<path opacity="0.2" d="M186.274 130.883L186.988 132.612L188.077 132.568L187.51 134.276L187.959 136.278L186.892 135.608L186.075 136.889L185.987 134.769L185.037 133.555L186.053 132.914L186.274 130.883Z" fill="white"/>
<path opacity="0.2" d="M193.715 132.451L194.789 133.032L195.569 131.678L195.709 133.797L196.681 134.938L195.687 135.66L195.51 137.713L194.76 136.05L193.678 136.182L194.208 134.423L193.715 132.451Z" fill="white"/>
<path opacity="0.2" d="M196.865 140.767L197.579 142.49L198.669 142.453L198.102 144.16L198.551 146.162L197.484 145.492L196.667 146.773L196.578 144.653L195.629 143.439L196.637 142.799L196.865 140.767Z" fill="white"/>
<path opacity="0.2" d="M179.916 125.952L196.218 118.901L200.185 146.17L184.575 153.846L179.916 125.952Z" fill="black"/>
<path opacity="0.2" d="M151.152 128.005L165.652 120.954L195.997 118.82L179.908 125.768L151.152 128.005Z" fill="white"/>
<path d="M194.797 148.893L190.888 120.792L161.301 122.875L158.607 124.531L185.685 123.361L191.072 150.556L194.797 148.893Z" fill="#92E3A9"/>
<path d="M180.38 119.916L166.904 126.651L170.532 154.516L166.249 154.818L161.332 127.137L176.449 120.196L180.38 119.916Z" fill="#92E3A9"/>
<path opacity="0.2" d="M190.904 121.035L185.693 123.42L191.081 150.652L194.805 149.011L190.904 121.035Z" fill="black"/>
<path opacity="0.1" d="M161.346 127.254L166.91 126.717L170.531 154.516L166.247 154.818L161.346 127.254Z" fill="black"/>
<path d="M171.664 122.735C171.664 122.735 163.193 117.23 159.822 118.996C157.15 120.388 157.805 123.957 164.849 124.377C162.243 124.796 159.174 125.429 157.371 126.268L162.678 126.526C165.787 125.436 168.979 124.602 172.224 124.031C172.397 124.618 172.44 125.236 172.349 125.841L175.926 125.275C175.926 125.275 174.792 124.34 173.872 123.655C177.972 122.956 186.723 121.006 187.341 117.031C188.106 111.872 175.609 116.178 171.664 122.735ZM159.888 120.02C160.624 118.621 171.186 123.214 171.186 123.214C166.468 124.215 159.137 121.44 159.896 120.02H159.888ZM172.592 122.89C172.592 122.89 182.94 114.316 185.692 115.868C188.445 117.421 175.904 122.971 172.599 122.912L172.592 122.89Z" fill="#92E3A9"/>
<path opacity="0.1" d="M171.664 122.735C171.664 122.735 163.193 117.23 159.822 118.996C157.15 120.388 157.805 123.957 164.849 124.377C162.243 124.796 159.174 125.429 157.371 126.268L162.678 126.526C165.787 125.436 168.979 124.602 172.224 124.031C172.397 124.618 172.44 125.236 172.349 125.841L175.926 125.275C175.926 125.275 174.792 124.34 173.872 123.655C177.972 122.956 186.723 121.006 187.341 117.031C188.106 111.872 175.609 116.178 171.664 122.735ZM159.888 120.02C160.624 118.621 171.186 123.214 171.186 123.214C166.468 124.215 159.137 121.44 159.896 120.02H159.888ZM172.592 122.89C172.592 122.89 182.94 114.316 185.692 115.868C188.445 117.421 175.904 122.971 172.599 122.912L172.592 122.89Z" fill="black"/>
<path d="M188.586 146.641L198.198 142.269L203.262 146.479H220.065L218.173 152.602L202.401 150.313C202.401 150.313 194.157 153.427 192.685 153.39C191.213 153.353 188.586 146.641 188.586 146.641Z" fill="#E4897B"/>
<path d="M237.53 144.499C237.53 144.786 237.478 145.058 237.449 145.338C236.969 149.598 235.886 153.769 234.233 157.725L211.925 153.824L211.682 153.78L212.079 151.697L213.095 146.457L213.389 144.904H214.236L237.53 144.499Z" fill="#92E3A9"/>
<path d="M211.682 143.601H214.574L211.682 154.781L208.635 153.802L211.682 143.601Z" fill="#92E3A9"/>
<path opacity="0.7" d="M211.682 143.601H214.574L211.682 154.781L208.635 153.802L211.682 143.601Z" fill="white"/>
<path d="M144.146 53.7331L134.196 52.0108C132.718 51.755 131.312 52.7457 131.056 54.2237L129.334 64.1737C129.078 65.6516 130.069 67.0571 131.547 67.3129L141.497 69.0351C142.975 69.2909 144.38 68.3002 144.636 66.8223L146.358 56.8723C146.614 55.3944 145.623 53.9889 144.146 53.7331Z" fill="#92E3A9"/>
<path opacity="0.6" d="M142.578 58.2397C141.805 56.2967 139.634 56.6131 138.316 57.7907C137.492 56.2451 135.542 55.2147 134.158 56.7824C131.825 59.4246 135.1 62.8176 136.69 64.1939C136.866 64.3559 137.021 64.4883 137.146 64.5914L137.698 64.3706C139.663 63.6051 143.888 61.5149 142.578 58.2397Z" fill="white"/>
<path d="M138.368 67.2704C138.368 67.2704 135.564 71.5171 130.816 72.1722C130.816 72.1722 133.554 71.1712 134.187 66.3504L138.368 67.2704Z" fill="#92E3A9"/>
<path d="M141.746 96.6147L144.469 89.7626C144.469 89.7626 144.226 87.1203 144.469 86.7597C144.712 86.399 151.373 81.9094 151.373 81.9094C151.373 81.9094 152.403 84.3677 152.337 85.4643C152.271 86.5609 147.789 89.2621 147.789 89.2621L145.073 95.9818L141.746 96.6147Z" fill="#B97964"/>
<path d="M147.045 92.839C147.045 92.839 138.118 113.167 134.43 114.919C131.906 116.119 123.258 114.919 118.062 113.992C115.67 113.58 114.014 113.256 114.014 113.256L117.178 109.038L119.615 105.793C119.615 105.793 127.637 109.112 130.743 109.693C133.849 110.275 143.071 90.7267 143.071 90.7267L147.045 92.839Z" fill="#92E3A9"/>
<path opacity="0.2" d="M118.062 113.984C115.67 113.572 114.014 113.248 114.014 113.248L117.178 109.031C117.652 109.755 117.974 110.566 118.126 111.418C118.277 112.269 118.256 113.142 118.062 113.984Z" fill="black"/>
<path d="M118.357 74.4906C122.037 76.3821 124.127 79.017 124.679 84.1027C125.231 89.1885 122.346 90.8003 124.679 92.839C127.012 94.8778 125.606 97.991 123.943 98.3958C122.279 98.8006 125.12 100.832 125.12 100.832L123.987 101.642C123.987 101.642 124.245 102.451 122.059 101.642C119.873 100.832 120.822 102.635 117.37 103.04C113.918 103.445 107.346 104.041 104.586 100.832C101.826 97.623 102.952 92.736 101.458 90.6899C99.9639 88.6438 103.519 77.6995 107.913 75.2854C112.307 72.8713 118.357 74.4906 118.357 74.4906Z" fill="#263238"/>
<path d="M77.5962 75.3075L79.9882 68.3229C79.9882 68.3229 81.8945 66.4829 81.9313 66.0486C81.9681 65.6144 79.8558 57.8643 79.8558 57.8643C79.8558 57.8643 77.4711 59.0714 76.8014 59.9398C76.1316 60.8083 77.7876 65.7837 77.7876 65.7837L75.4766 72.6579L77.5962 75.3075Z" fill="#B97964"/>
<path d="M96.4099 258.424H91.5449L93.0316 251.697L94.4153 245.522L100.509 244.588L98.3382 251.918L96.4099 258.424Z" fill="#B97964"/>
<path opacity="0.2" d="M98.2855 252.065L92.9863 251.83L94.3921 245.588L100.494 244.624L98.2855 252.065Z" fill="black"/>
<path d="M86.3337 258.424H81.4688L82.9555 251.697L84.3391 245.522L90.4332 244.588L88.262 251.918L86.3337 258.424Z" fill="#B97964"/>
<path opacity="0.2" d="M88.2167 252.065L82.9102 251.83L84.3159 245.588L90.4174 244.624L88.2167 252.065Z" fill="black"/>
<path d="M77.5235 129.838C77.5235 129.838 77.2807 130.36 76.8906 131.31C75.0579 135.836 70.0384 150.129 71.9152 166.704C73.0192 176.508 83.8531 194.157 85.465 203.769C87.3418 214.956 82.4326 234.681 83.6912 249.158L91.4339 249.835L93.767 248.363L100.391 247.377C100.391 247.377 117.665 208.104 117.319 194.525C117.069 183.86 100.391 145.625 100.391 145.625L101.981 131.486" fill="#263238"/>
<path opacity="0.2" d="M94.9821 248.209L93.7677 248.385L91.7805 249.644C93.0464 245.228 103.954 207.037 104.153 198.632C104.366 189.704 91.6406 158.012 91.6406 158.012L94.9011 152.124L94.4153 161.081C94.4153 161.081 106.442 185.73 107.391 198.617C108.318 211.004 95.9904 245.427 94.9821 248.209Z" fill="black"/>
<path d="M90.168 258.218C90.168 257.681 96.792 258.101 96.792 258.101C96.792 258.101 100.847 262.222 104.785 263.149C108.723 264.077 106.529 266.447 102.121 266.447H91.2278C88.0851 266.432 90.0428 263.775 90.168 258.218Z" fill="#263238"/>
<path d="M97.5121 258.954L97.4606 258.91C97.4572 258.893 97.4572 258.876 97.4606 258.859C97.4565 258.842 97.4565 258.824 97.4606 258.807C97.4532 258.783 97.4532 258.757 97.4606 258.733C97.4606 258.66 98.0421 257.129 98.9326 256.761C99.0665 256.699 99.2121 256.668 99.3595 256.668C99.5068 256.668 99.6525 256.699 99.7864 256.761C100.088 256.901 100.228 257.092 100.221 257.313C100.221 257.659 99.7275 258.012 99.1902 258.299C99.6862 258.21 100.198 258.266 100.662 258.461C100.747 258.508 100.822 258.571 100.883 258.647C100.944 258.722 100.989 258.809 101.015 258.903C101.07 259.027 101.083 259.165 101.054 259.297C101.025 259.429 100.955 259.549 100.854 259.639C100.683 259.754 100.478 259.809 100.272 259.793C99.3104 259.676 98.3765 259.392 97.5121 258.954ZM98.1157 258.844C99.0872 259.249 100.324 259.617 100.603 259.359C100.603 259.359 100.714 259.271 100.647 259.013C100.635 258.964 100.613 258.918 100.581 258.879C100.549 258.839 100.509 258.807 100.463 258.785C100.22 258.671 99.9517 258.62 99.6833 258.638C99.1551 258.652 98.6297 258.721 98.1157 258.844ZM99.0283 257.085C98.5086 257.422 98.1112 257.917 97.8948 258.498C98.8737 258.13 99.8158 257.615 99.8305 257.32C99.8305 257.225 99.6907 257.144 99.6024 257.1C99.5066 257.051 99.4007 257.026 99.2933 257.026C99.2015 257.024 99.1106 257.044 99.0283 257.085Z" fill="#92E3A9"/>
<path d="M91.4336 247.274L102.363 245.787L101.443 249.857L92.4272 250.991L91.4336 247.274Z" fill="#92E3A9"/>
<path d="M80.0994 258.218C80.0994 257.681 86.7234 258.101 86.7234 258.101C86.7234 258.101 90.7788 262.222 94.7237 263.149C98.6687 264.077 96.4165 266.432 92.0006 266.432H81.1077C78.0165 266.432 79.967 263.775 80.0994 258.218Z" fill="#263238"/>
<path d="M87.4372 258.954L87.3857 258.91C87.3819 258.893 87.3819 258.876 87.3857 258.859C87.3857 258.859 87.3857 258.859 87.3857 258.807C87.382 258.783 87.382 258.758 87.3857 258.733C87.3857 258.66 87.9671 257.129 88.8577 256.761C88.9914 256.699 89.1371 256.667 89.2845 256.667C89.432 256.667 89.5776 256.699 89.7114 256.761C90.0132 256.901 90.1604 257.092 90.1457 257.313C90.1457 257.659 89.6525 258.012 89.1153 258.299C89.6113 258.21 90.1226 258.266 90.5873 258.461C90.6745 258.505 90.7512 258.567 90.8122 258.643C90.8732 258.719 90.917 258.808 90.9405 258.903C90.9972 259.026 91.0121 259.165 90.9828 259.298C90.9536 259.431 90.8819 259.55 90.7786 259.639C90.6078 259.754 90.4029 259.809 90.1972 259.793C89.2355 259.676 88.3015 259.392 87.4372 258.954ZM88.0407 258.844C89.0122 259.249 90.2487 259.617 90.5284 259.359C90.5284 259.359 90.6388 259.271 90.5725 259.013C90.5604 258.964 90.5377 258.918 90.5059 258.879C90.4741 258.839 90.434 258.807 90.3885 258.785C90.1451 258.671 89.8767 258.62 89.6084 258.638C89.0801 258.652 88.5548 258.721 88.0407 258.844ZM88.9533 257.085C88.4356 257.422 88.0407 257.918 87.8273 258.498C88.7988 258.13 89.7409 257.615 89.7629 257.32C89.7629 257.225 89.6157 257.144 89.5274 257.1C89.4317 257.051 89.3257 257.026 89.2183 257.026C89.1265 257.024 89.0357 257.044 88.9533 257.085Z" fill="#92E3A9"/>
<path d="M82.0938 247.274L93.7667 245.787L92.7878 249.857L83.1609 250.991L82.0938 247.274Z" fill="#92E3A9"/>
<path d="M78.9357 126.658L77.7949 129.941L100.824 136.028L102.171 132.141L78.9357 126.658Z" fill="black"/>
<path d="M86.8219 127.854L85.6914 127.524L84.0098 133.29L85.1403 133.619L86.8219 127.854Z" fill="#263238"/>
<path d="M96.5897 131.092L91.5352 129.825L90.5743 133.659L95.6289 134.925L96.5897 131.092Z" fill="white"/>
<path d="M101.056 131.112L99.9258 130.782L98.2432 136.547L99.3736 136.877L101.056 131.112Z" fill="#263238"/>
<path d="M119.614 105.771C118.613 107.073 117.686 108.295 116.832 109.451C113.476 113.94 111.084 117.127 109.259 119.696C107.201 122.46 105.416 125.418 103.93 128.528C103.334 129.786 102.745 131.163 102.09 132.789L78.9355 126.614C80.8545 119.325 83.154 112.142 85.8245 105.093C86.4648 103.445 87.0463 102.024 87.5615 100.803C88.0767 99.5808 88.5256 98.5945 88.901 97.7113C88.901 97.6672 88.901 97.623 88.9599 97.5715C89.5286 96.3013 90.5319 95.2757 91.7894 94.6794C93.0469 94.083 94.4759 93.955 95.8194 94.3184C97.4827 94.7673 99.4331 95.3341 101.236 95.945C104.593 97.1885 107.859 98.6641 111.01 100.361C114.004 101.956 116.88 103.763 119.614 105.771Z" fill="#92E3A9"/>
<path d="M104.667 104.946C100.773 100.53 101.105 97.4758 101.105 97.4758C106.212 97.2992 107.905 90.7047 107.905 90.7047L112.321 96.3498C111.534 96.974 110.796 97.658 110.113 98.3958C107.243 101.568 108.641 102.878 108.641 102.878C108.111 105.432 104.667 104.946 104.667 104.946Z" fill="#B97964"/>
<path opacity="0.2" d="M112.329 96.3498C111.542 96.974 110.804 97.658 110.121 98.3958C108.09 95.5549 107.869 90.7047 107.869 90.7047L112.329 96.3498Z" fill="black"/>
<path d="M117.134 75.521C123.096 76.993 124.237 80.6288 123.177 86.8774C121.852 94.6864 118.827 99.7206 111.769 96.2688C102.193 91.5805 107.235 73.1069 117.134 75.521Z" fill="#B97964"/>
<path d="M119.408 85.6042C119.665 86.6113 120.046 87.5829 120.542 88.4966C120.307 88.7012 120.021 88.8369 119.715 88.8888C119.408 88.9408 119.093 88.907 118.805 88.791L119.408 85.6042Z" fill="#A24E3F"/>
<path d="M115.876 84.2278C115.773 84.721 115.42 85.0595 115.088 84.9638C114.757 84.8682 114.581 84.4339 114.691 83.9408C114.801 83.4477 115.147 83.1091 115.479 83.2048C115.81 83.3005 115.986 83.7347 115.876 84.2278Z" fill="#263238"/>
<path d="M115.34 83.2048L116.503 83.0134C116.503 83.0134 115.767 83.801 115.34 83.2048Z" fill="#263238"/>
<path d="M122.022 85.4643C121.911 85.9574 121.558 86.3034 121.234 86.2003C120.91 86.0973 120.726 85.6704 120.829 85.1773C120.932 84.6842 121.293 84.3456 121.624 84.4413C121.956 84.537 122.132 84.9712 122.022 85.4643Z" fill="#263238"/>
<path d="M121.477 84.4413L122.639 84.2573C122.639 84.2573 121.911 85.0374 121.477 84.4413Z" fill="#263238"/>
<path d="M114.014 80.6362C113.973 80.6362 113.933 80.6269 113.896 80.6091C113.859 80.5913 113.826 80.5653 113.801 80.5331C113.759 80.4761 113.741 80.4051 113.751 80.335C113.76 80.265 113.797 80.2014 113.852 80.1578C114.304 79.874 114.816 79.6985 115.347 79.6449C115.878 79.5912 116.414 79.661 116.914 79.8487C116.947 79.8612 116.977 79.8801 117.003 79.9043C117.028 79.9285 117.049 79.9575 117.063 79.9896C117.077 80.0217 117.085 80.0564 117.086 80.0915C117.087 80.1267 117.081 80.1617 117.069 80.1946C117.056 80.2274 117.037 80.2575 117.013 80.2831C116.989 80.3086 116.96 80.3291 116.928 80.3435C116.896 80.3579 116.861 80.3657 116.826 80.3667C116.791 80.3677 116.756 80.3617 116.723 80.3491C116.308 80.1944 115.863 80.1352 115.423 80.1759C114.982 80.2167 114.556 80.3564 114.176 80.5847C114.13 80.6202 114.073 80.6384 114.014 80.6362Z" fill="#263238"/>
<path d="M123.471 82.2406C123.434 82.2408 123.397 82.233 123.363 82.2178C123.328 82.2026 123.298 82.1803 123.273 82.1523C123.031 81.8445 122.723 81.5956 122.371 81.4248C122.019 81.2539 121.633 81.1654 121.241 81.1661C121.207 81.1699 121.171 81.1669 121.138 81.1572C121.104 81.1474 121.073 81.1312 121.045 81.1093C121.018 81.0874 120.995 81.0604 120.978 81.0297C120.961 80.9991 120.951 80.9654 120.947 80.9306C120.943 80.8958 120.946 80.8605 120.956 80.8269C120.966 80.7933 120.982 80.7619 121.004 80.7346C121.026 80.7072 121.053 80.6845 121.083 80.6676C121.114 80.6507 121.148 80.64 121.182 80.6362C121.657 80.6266 122.127 80.7258 122.557 80.9261C122.987 81.1264 123.365 81.4225 123.663 81.7917C123.688 81.8158 123.709 81.8448 123.723 81.8771C123.737 81.9094 123.744 81.9442 123.744 81.9794C123.744 82.0145 123.737 82.0493 123.723 82.0816C123.709 82.1139 123.688 82.143 123.663 82.167C123.611 82.2156 123.542 82.242 123.471 82.2406Z" fill="#263238"/>
<path d="M108.192 83.9776C108.192 83.9776 112.167 79.7603 112.667 75.8816C112.667 75.8816 125.657 73.9386 123.317 86.0678C123.317 86.0678 127.063 75.705 116.877 72.967C106.691 70.2291 103.084 85.2362 107.309 90.9917C107.272 90.9843 105.704 86.6198 108.192 83.9776Z" fill="#263238"/>
<path d="M108.84 85.4717C108.953 84.7713 108.784 84.0546 108.37 83.4783C107.956 82.9019 107.332 82.5125 106.632 82.3952C104.733 82.1523 102.952 85.7293 107.302 87.7607C107.912 88.0477 108.442 87.4957 108.84 85.4717Z" fill="#B97964"/>
<path d="M126.895 88.7395C125.342 87.2675 125.584 84.7651 126.792 82.2333C127.999 79.7014 124.871 77.8173 124.871 77.8173C124.871 77.8173 124.613 74.623 122.162 73.335C121.713 73.0995 119.674 73.335 119.674 73.335C116.995 70.391 112.69 67.977 109.304 71.8115C107.317 74.071 105.337 71.7526 102.18 76.4704C99.8981 79.8707 101.488 82.8736 100.825 83.9702C97.7637 89.0045 101.745 90.3661 102.695 92.1178C102.695 92.1178 104.8 91.1094 104.623 90.5133C103.195 85.6851 105.698 82.5571 107.633 83.3299C109.569 84.1027 110.96 83.8893 112.366 82.1155C113.772 80.3418 112.793 78.4355 116.046 77.9939C119.299 77.5523 119.623 75.6902 119.623 75.6902C119.678 76.5191 119.956 77.3177 120.428 78.0017C120.899 78.6857 121.547 79.2297 122.302 79.5763C125.01 80.9968 123.943 82.7117 123.568 85.1331C123.192 87.5545 124.385 88.4893 126.512 90.2409C128.639 91.9926 126.387 93.2733 126.387 93.2733C126.791 93.0696 127.139 92.7682 127.398 92.3964C127.656 92.0246 127.818 91.5941 127.869 91.1439C127.919 90.6938 127.856 90.2381 127.686 89.8183C127.516 89.3984 127.244 89.0276 126.895 88.7395Z" fill="#263238"/>
<path d="M118.357 91.4922C117.83 91.9687 117.338 92.4828 116.885 93.0304L116.562 92.839C115.09 91.9632 114.714 91.0727 114.729 90.3587C114.742 90.0067 114.84 89.6631 115.016 89.3578C115.108 89.1827 115.224 89.0216 115.362 88.8794C116.02 89.819 116.874 90.6049 117.864 91.183C118.159 91.3818 118.357 91.4922 118.357 91.4922Z" fill="#263238"/>
<path d="M117.864 91.183L117.415 91.6247C116.046 90.8003 115.207 90.0349 115.016 89.3578C115.108 89.1827 115.224 89.0216 115.362 88.8794C116.02 89.819 116.873 90.6049 117.864 91.183Z" fill="white"/>
<path d="M116.562 92.8391C115.09 91.9632 114.714 91.0727 114.729 90.3587C115.277 90.7 115.761 91.1361 116.157 91.6467C116.415 91.9913 116.556 92.4088 116.562 92.8391Z" fill="#DE5753"/>
<path d="M103.232 94.1565C103.232 94.1565 107.398 99.4778 112.329 99.5808C112.329 99.5808 109.878 103.555 110.651 105.594C110.651 105.594 107.545 108.796 103.291 105.984C99.0371 103.172 98.3379 95.68 98.3379 95.68C98.3379 95.68 101.392 95.5328 103.232 94.1565Z" fill="#92E3A9"/>
<path d="M94.4292 94.1565C94.4292 94.1565 85.2954 91.9485 78.8922 90.9549C72.489 89.9613 80.2759 69.8464 80.2759 69.8464L76.3898 67.9549C76.3898 67.9549 67.4622 87.2602 71.5028 93.288C73.6887 96.5559 87.5844 100.832 87.5844 100.832L94.4292 94.1565Z" fill="#92E3A9"/>
<path d="M123.98 100.258C123.98 100.258 124.473 98.9994 125.908 100.258C127.343 101.516 127.733 99.5219 128.609 99.6986C129.485 99.8752 129.573 98.337 131.715 97.8438C133.857 97.3507 134.136 97.3434 134.526 96.3718C134.916 95.4003 136.469 95.4003 136.469 95.4003C136.469 95.4003 134.997 94.0461 136.079 92.8317C137.161 91.6173 135.984 88.9088 135.984 88.9088C135.984 88.9088 138.022 88.3126 138.795 89.7699C139.568 91.2272 139.48 91.6173 139.48 91.6173C139.48 91.6173 139.767 89.2621 139.09 88.7837C139.09 88.7837 142.196 90.7414 140.93 93.023C140.287 94.3077 139.175 95.296 137.824 95.783C137.824 95.783 137.147 98.1677 136.079 98.3885C135.133 98.6725 134.268 99.177 133.555 99.8605C132.782 100.442 132.878 100.412 131.42 100.67C129.963 100.928 129.477 103.033 128.609 103.047C127.933 102.952 127.246 102.952 126.57 103.047C125.694 103.261 125.363 104.828 123.98 104.048C122.596 103.268 121.875 103.614 121.212 103.047C120.55 102.481 117.466 103.261 117.363 101.318C117.26 99.3747 122.257 98.1235 123.98 100.258Z" fill="#263238"/>
<path opacity="0.2" d="M94.4153 100.096C94.1651 100.427 89.6019 106.271 85.8262 105.108C86.4665 103.46 87.0479 102.039 87.5631 100.817C87.5852 100.832 92.2294 102.142 94.4153 100.096Z" fill="black"/>
<path opacity="0.2" d="M99.7657 95.5107C99.7657 95.5107 101.289 101.995 105.323 103.68C109.356 105.366 110.114 103.379 110.114 103.379C110.114 103.379 109.716 109.068 105.323 106.941C103.197 105.996 101.474 104.332 100.457 102.24C99.4407 100.149 99.1957 97.7653 99.7657 95.5107Z" fill="black"/>
<path opacity="0.7" d="M101.685 124.664L97.7477 120.932L91.8008 122.117L94.8699 117.156L92.3749 112.446L98.2113 113.108L102.62 109.016L103.157 114.382L108.375 116.568L102.87 119.225L101.685 124.664Z" fill="white"/>
</svg>
