<svg width="368" height="320" viewBox="0 0 368 320" fill="none" xmlns="http://www.w3.org/2000/svg">
<path d="M198.715 319.514C292.208 319.514 368 276.406 368 223.229C368 170.052 292.208 126.944 198.715 126.944C105.221 126.944 29.4297 170.052 29.4297 223.229C29.4297 276.406 105.221 319.514 198.715 319.514Z" fill="#F5F5F5"/>
<path d="M306.099 268.036C328.457 268.036 346.581 256.672 346.581 242.655C346.581 228.637 328.457 217.274 306.099 217.274C283.742 217.274 265.617 228.637 265.617 242.655C265.617 256.672 283.742 268.036 306.099 268.036Z" fill="#E6E6E6"/>
<path d="M38.8267 168.977C38.3414 163.137 36.9929 157.4 34.825 151.954C31.2565 143.155 24.4268 134.317 16.5573 132.663C8.68778 131.008 5.36353 136.286 7.01778 141.485C8.45146 145.96 14.2965 149.678 18.7393 153.585C23.1822 157.492 31.4692 166.977 33.7694 176.059L38.2122 176.548L38.8267 168.977Z" fill="#92E3A9"/>
<g opacity="0.15">
<path d="M38.8267 168.977C38.3414 163.137 36.9929 157.4 34.825 151.954C31.2565 143.155 24.4268 134.317 16.5573 132.663C8.68778 131.008 5.36353 136.286 7.01778 141.485C8.45146 145.96 14.2965 149.678 18.7393 153.585C23.1822 157.492 31.4692 166.977 33.7694 176.059L38.2122 176.548L38.8267 168.977Z" fill="black"/>
</g>
<path d="M35.7795 173.058C35.6527 173.058 35.5308 173.009 35.4397 172.921C35.3485 172.832 35.2952 172.712 35.2912 172.585C34.464 149.646 12.045 136.822 11.8008 136.68C11.6939 136.612 11.617 136.506 11.5857 136.384C11.5544 136.261 11.5712 136.131 11.6326 136.021C11.694 135.91 11.7953 135.827 11.9159 135.788C12.0365 135.75 12.1672 135.759 12.2813 135.814C12.5176 135.948 35.4329 149.048 36.2758 172.53C36.2801 172.661 36.2329 172.787 36.1445 172.883C36.056 172.979 35.9334 173.036 35.8032 173.042L35.7795 173.058Z" fill="white"/>
<path d="M42.3646 209.357C42.3646 209.357 37.7799 212.256 30.6115 211.019C28.2935 210.711 26.1335 209.673 24.4435 208.057C22.5924 206.151 22.3009 204.229 21.781 201.676C21.6378 200.61 21.2728 199.585 20.7097 198.667C19.1342 196.556 16.1093 196.596 13.557 196.044C9.93338 195.256 6.60125 192.657 5.55356 189.104C4.50587 185.551 6.20738 181.227 9.64192 179.825L5.42752 177.123C4.11738 176.354 2.90584 175.428 1.81968 174.366C0.735484 173.283 0.0877575 171.839 0 170.309C0 168.072 1.66213 166.071 3.71025 165.157C5.80824 164.347 8.08475 164.113 10.3036 164.479C12.5512 164.754 14.7604 165.283 16.8891 166.055C17.4692 166.317 18.0962 166.459 18.7324 166.472C19.5605 166.326 20.3366 165.968 20.9854 165.433C25.8063 162.282 33.6601 162.494 36.2439 168.497C36.622 169.379 36.8504 170.324 37.26 171.191C38.7567 174.429 42.9711 173.452 45.6967 174.964C46.5521 175.506 47.2778 176.229 47.8224 177.083C48.3669 177.936 48.717 178.899 48.8477 179.903C49.3912 183.102 48.5011 186.749 47.9103 189.908C47.3195 193.066 46.5711 196.005 45.7125 198.998C45.0114 201.472 44.2394 203.922 43.4202 206.356C43.2469 206.86 42.8687 209.042 42.3646 209.357Z" fill="#92E3A9"/>
<path d="M45.2476 201.968C42.8451 195.358 38.8995 189.416 33.7388 184.638C33.6851 184.522 33.5892 184.432 33.4709 184.386C31.984 182.992 30.4248 181.677 28.7997 180.447C28.1856 176.193 28.7298 171.853 30.3751 167.882C30.4305 167.764 30.4367 167.629 30.3924 167.507C30.3481 167.384 30.2568 167.284 30.1388 167.229C30.0208 167.173 29.8856 167.167 29.7629 167.211C29.6403 167.256 29.5403 167.347 29.485 167.465C27.8534 171.293 27.2271 175.474 27.6653 179.612C21.0626 174.85 13.7379 171.18 5.97098 168.741C5.84469 168.709 5.711 168.728 5.59794 168.792C5.48487 168.857 5.40119 168.963 5.36442 169.088C5.34658 169.15 5.34142 169.216 5.34926 169.28C5.35709 169.345 5.37776 169.407 5.41005 169.464C5.44234 169.52 5.4856 169.57 5.53729 169.609C5.58897 169.649 5.64804 169.678 5.71103 169.694C5.91584 169.749 19.8903 173.72 31.4543 183.874C24.3647 182.637 15.9122 186.056 15.5263 186.237C15.4178 186.278 15.3273 186.356 15.2711 186.457C15.2148 186.558 15.1964 186.676 15.2191 186.79C15.2418 186.903 15.3042 187.005 15.3951 187.077C15.486 187.149 15.5995 187.186 15.7153 187.182C15.7778 187.193 15.8419 187.193 15.9044 187.182C15.9989 187.135 25.9323 183.117 32.951 185.299C38.0486 189.974 41.9542 195.8 44.3417 202.291C44.3748 202.388 44.4374 202.472 44.5208 202.531C44.6042 202.591 44.7041 202.622 44.8065 202.622H44.9719C45.0341 202.598 45.0909 202.563 45.1388 202.517C45.1867 202.471 45.2247 202.415 45.2505 202.354C45.2763 202.293 45.2894 202.227 45.2889 202.161C45.2884 202.094 45.2744 202.029 45.2476 201.968Z" fill="white"/>
<path d="M42.5215 208.672C42.6053 209.824 42.96 210.941 43.5569 211.93C44.1537 212.92 44.9757 213.755 45.956 214.367L142.021 269.808C143.082 270.348 144.257 270.629 145.447 270.629C146.638 270.629 147.812 270.348 148.874 269.808L280.293 193.933C281.326 193.384 282.19 192.565 282.793 191.562C283.396 190.559 283.715 189.412 283.715 188.242C283.715 187.072 283.396 185.924 282.793 184.921C282.19 183.918 281.326 183.099 280.293 182.55L184.244 127.093C183.181 126.557 182.007 126.278 180.817 126.278C179.627 126.278 178.453 126.557 177.39 127.093L45.956 202.984C44.9763 203.595 44.1546 204.428 43.5578 205.417C42.9609 206.405 42.6059 207.52 42.5215 208.672Z" fill="#37474F"/>
<path d="M145.432 263.223V270.635C144.241 270.669 143.062 270.397 142.005 269.847L45.9168 214.367C44.9126 213.838 44.0668 213.052 43.4654 212.089C42.864 211.126 42.5286 210.021 42.4933 208.887C42.4581 207.752 42.7243 206.629 43.2648 205.63C43.8053 204.632 44.6008 203.795 45.5702 203.205C44.0341 204.308 44.1523 205.922 45.9168 206.939L142.021 262.395C143.069 262.956 144.243 263.241 145.432 263.223Z" fill="#263238"/>
<path d="M39.3077 203.102C38.3536 202.453 37.5656 201.589 37.0073 200.579C36.449 199.569 36.136 198.442 36.0938 197.289V82.665C36.1584 81.4765 36.5024 80.32 37.0978 79.2894C37.6931 78.2587 38.5231 77.383 39.5204 76.7333L170.939 0.858307C171.959 0.316805 173.093 0.0232186 174.248 0.00132191C175.403 -0.0205748 176.547 0.22983 177.587 0.732266C178.541 1.38136 179.329 2.24577 179.888 3.25566C180.446 4.26555 180.759 5.39261 180.801 6.54578V121.17C180.737 122.358 180.393 123.515 179.797 124.545C179.202 125.576 178.372 126.452 177.375 127.101L45.9562 202.984C44.9345 203.523 43.8008 203.814 42.646 203.834C41.4913 203.855 40.3479 203.604 39.3077 203.102Z" fill="#455A64"/>
<path d="M45.5466 203.189C44.5632 203.63 43.4953 203.851 42.4176 203.836C41.3399 203.821 40.2785 203.57 39.3077 203.102C38.3536 202.453 37.5656 201.589 37.0073 200.579C36.449 199.569 36.136 198.442 36.0938 197.289V82.665C36.1314 81.4726 36.4789 80.3107 37.1021 79.2935L43.53 82.9958C42.9124 84.0155 42.5654 85.176 42.5217 86.3674V200.999C42.5217 203.031 43.8451 203.937 45.5466 203.189Z" fill="#263238"/>
<path d="M42.5215 86.3831V200.999C42.5215 203.189 44.097 204.071 45.956 202.984L177.374 127.101C178.372 126.452 179.202 125.576 179.797 124.545C180.393 123.515 180.736 122.358 180.801 121.17V6.54576C180.801 4.36372 179.265 3.47358 177.374 4.56853L45.956 80.4435C44.9563 81.0931 44.1241 81.9697 43.5272 83.0019C42.9304 84.034 42.5858 85.1925 42.5215 86.3831Z" fill="#37474F"/>
<path d="M45.957 206.939L142.022 262.395C143.085 262.931 144.258 263.211 145.448 263.211C146.639 263.211 147.812 262.931 148.875 262.395L280.294 186.52C282.192 185.425 282.192 183.653 280.294 182.582L184.245 127.125C183.182 126.589 182.008 126.31 180.818 126.31C179.628 126.31 178.454 126.589 177.391 127.125L45.957 202.984C44.0586 204.071 44.0586 205.844 45.957 206.939Z" fill="#455A64"/>
<path d="M47.8002 86.8084L174.508 13.6669C175.642 13.0131 176.564 13.5487 176.564 14.8564V114.111C176.525 114.825 176.318 115.519 175.961 116.137C175.604 116.756 175.106 117.281 174.508 117.672L47.8002 190.774C46.658 191.428 45.7363 190.9 45.7363 189.585V90.3296C45.7802 89.622 45.9898 88.9346 46.3484 88.3229C46.7069 87.7113 47.2042 87.1925 47.8002 86.8084Z" fill="#FAFAFA"/>
<path d="M57.1032 203.969L179.092 133.529C179.623 133.258 180.21 133.116 180.806 133.116C181.402 133.116 181.989 133.258 182.519 133.529L188.758 137.129C188.963 137.201 189.14 137.335 189.266 137.512C189.391 137.689 189.459 137.901 189.459 138.118C189.459 138.335 189.391 138.547 189.266 138.724C189.14 138.901 188.963 139.035 188.758 139.107L66.753 209.538C66.2227 209.81 65.6355 209.952 65.0397 209.952C64.4439 209.952 63.8566 209.81 63.3263 209.538L57.1032 205.946C56.8983 205.874 56.7209 205.741 56.5953 205.563C56.4698 205.386 56.4023 205.175 56.4023 204.958C56.4023 204.74 56.4698 204.529 56.5953 204.352C56.7209 204.175 56.8983 204.041 57.1032 203.969Z" fill="#37474F"/>
<path d="M73.1804 213.256L195.17 142.825C195.701 142.557 196.288 142.417 196.883 142.417C197.478 142.417 198.065 142.557 198.596 142.825L236.975 164.984C237.18 165.056 237.357 165.189 237.483 165.366C237.608 165.543 237.676 165.755 237.676 165.972C237.676 166.189 237.608 166.401 237.483 166.578C237.357 166.755 237.18 166.889 236.975 166.961L115.128 237.29C114.595 237.56 114.007 237.701 113.41 237.701C112.813 237.701 112.225 237.56 111.693 237.29L73.1883 215.234C72.9794 215.166 72.7971 215.035 72.6675 214.858C72.5379 214.681 72.4677 214.467 72.4668 214.248C72.4659 214.028 72.5345 213.814 72.6627 213.636C72.7908 213.458 72.9721 213.325 73.1804 213.256Z" fill="#263238"/>
<path d="M182.534 174.492L186.347 172.294C186.512 172.199 186.505 172.042 186.347 171.939L181.928 169.387C181.834 169.339 181.73 169.314 181.625 169.314C181.519 169.314 181.415 169.339 181.321 169.387L177.501 171.593C177.335 171.679 177.343 171.837 177.501 171.939L181.912 174.492C182.008 174.541 182.115 174.567 182.223 174.567C182.332 174.567 182.438 174.541 182.534 174.492ZM174.996 165.732L171.167 167.953C171.002 168.048 171.018 168.206 171.167 168.308L175.579 170.852C175.674 170.901 175.779 170.926 175.886 170.926C175.993 170.926 176.098 170.901 176.193 170.852L180.014 168.647C180.171 168.552 180.163 168.395 180.014 168.292L175.594 165.748C175.502 165.701 175.399 165.676 175.295 165.676C175.191 165.676 175.089 165.701 174.996 165.748V165.732ZM162.652 172.916L156.192 176.642C156.027 176.737 156.035 176.894 156.192 176.997L160.604 179.549C160.699 179.596 160.805 179.62 160.911 179.62C161.017 179.62 161.123 179.596 161.218 179.549L167.678 175.823C167.843 175.728 167.827 175.571 167.678 175.468L163.29 172.916C163.192 172.864 163.082 172.836 162.971 172.836C162.86 172.836 162.75 172.864 162.652 172.916ZM169.411 168.978L165.59 171.183C165.433 171.278 165.44 171.435 165.59 171.538L170.009 174.09C170.104 174.136 170.207 174.161 170.313 174.161C170.418 174.161 170.522 174.136 170.616 174.09L174.436 171.884C174.594 171.79 174.586 171.632 174.436 171.538L170.017 168.978C169.923 168.929 169.819 168.904 169.714 168.904C169.608 168.904 169.504 168.929 169.411 168.978ZM154.444 177.643L150.623 179.84C150.466 179.935 150.473 180.093 150.623 180.195L155.042 182.747C155.136 182.796 155.24 182.821 155.346 182.821C155.451 182.821 155.555 182.796 155.649 182.747L159.469 180.542C159.627 180.455 159.619 180.297 159.469 180.195L155.034 177.643C154.941 177.594 154.837 177.569 154.731 177.569C154.626 177.569 154.522 177.594 154.428 177.643H154.444ZM148.859 180.864L145.046 183.07C144.881 183.157 144.888 183.314 145.046 183.417L149.465 185.969C149.559 186.016 149.663 186.04 149.768 186.04C149.874 186.04 149.977 186.016 150.072 185.969L153.892 183.763C154.058 183.669 154.042 183.511 153.892 183.409L149.481 180.857C149.383 180.803 149.274 180.774 149.163 180.773C149.052 180.771 148.942 180.798 148.843 180.849L148.859 180.864ZM166.236 191.231L170.057 189.025C170.214 188.931 170.206 188.773 170.057 188.671L165.637 186.127C165.544 186.078 165.44 186.053 165.334 186.053C165.229 186.053 165.125 186.078 165.031 186.127L161.21 188.332C161.045 188.427 161.061 188.584 161.21 188.687L165.622 191.231C165.716 191.275 165.819 191.296 165.923 191.293C166.027 191.29 166.128 191.264 166.22 191.215L166.236 191.231ZM160.651 194.453L164.472 192.247C164.637 192.153 164.621 191.995 164.472 191.893L160.06 189.348C159.965 189.3 159.86 189.275 159.753 189.275C159.646 189.275 159.541 189.3 159.446 189.348L155.625 191.554C155.468 191.649 155.476 191.806 155.625 191.909L160.044 194.461C160.138 194.501 160.24 194.52 160.343 194.516C160.445 194.512 160.545 194.485 160.635 194.437L160.651 194.453ZM155.066 197.675L158.887 195.469C159.052 195.375 159.044 195.217 158.887 195.123L154.475 192.57C154.381 192.522 154.277 192.497 154.172 192.497C154.066 192.497 153.962 192.522 153.869 192.57L150.048 194.776C149.883 194.87 149.891 195.028 150.048 195.13L154.467 197.683C154.56 197.722 154.661 197.74 154.761 197.736C154.862 197.732 154.961 197.706 155.05 197.659L155.066 197.675ZM149.489 200.897L153.309 198.691C153.467 198.604 153.459 198.447 153.309 198.344L148.851 195.761C148.757 195.712 148.653 195.687 148.547 195.687C148.442 195.687 148.338 195.712 148.244 195.761L144.424 197.958C144.258 198.053 144.274 198.211 144.424 198.313L148.835 200.865C148.932 200.92 149.041 200.95 149.152 200.953C149.263 200.956 149.374 200.931 149.473 200.881L149.489 200.897ZM176.965 177.753L180.786 175.547C180.943 175.453 180.935 175.295 180.786 175.193L176.366 172.641C176.272 172.594 176.168 172.57 176.063 172.57C175.958 172.57 175.854 172.594 175.76 172.641L171.939 174.846C171.782 174.941 171.79 175.098 171.939 175.193L176.359 177.745C176.451 177.788 176.553 177.809 176.655 177.808C176.757 177.807 176.858 177.782 176.949 177.737L176.965 177.753ZM171.813 187.994L180.337 183.07C180.502 182.976 180.486 182.818 180.337 182.724L169.592 176.532C169.497 176.484 169.391 176.458 169.285 176.458C169.178 176.458 169.073 176.484 168.977 176.532L164.574 179.076C164.409 179.171 164.416 179.328 164.574 179.431L170.246 182.708C170.427 182.81 170.435 182.968 170.246 183.054L166.725 185.095C166.559 185.189 166.567 185.347 166.725 185.449L171.144 187.994C171.243 188.05 171.356 188.08 171.471 188.08C171.585 188.08 171.698 188.05 171.798 187.994H171.813ZM143.281 184.055L139.461 186.261C139.295 186.355 139.311 186.513 139.461 186.607L143.872 189.159C143.967 189.208 144.073 189.233 144.179 189.233C144.286 189.233 144.391 189.208 144.487 189.159L148.299 186.954C148.465 186.859 148.457 186.702 148.299 186.599L143.88 184.047C143.783 184.003 143.677 183.982 143.57 183.986C143.463 183.99 143.359 184.019 143.266 184.071L143.281 184.055ZM137.696 187.277L133.876 189.482C133.718 189.577 133.726 189.734 133.876 189.837L138.295 192.381C138.389 192.43 138.493 192.455 138.598 192.455C138.704 192.455 138.808 192.43 138.902 192.381L142.722 190.176C142.88 190.081 142.872 189.923 142.722 189.821L138.303 187.277C138.206 187.228 138.098 187.204 137.99 187.207C137.881 187.21 137.775 187.239 137.681 187.292L137.696 187.277ZM109.803 223.418C109.897 223.465 110.001 223.489 110.106 223.489C110.211 223.489 110.315 223.465 110.409 223.418L114.23 221.212C114.395 221.118 114.387 220.96 114.23 220.866L109.818 218.314C109.723 218.267 109.618 218.243 109.511 218.243C109.405 218.243 109.3 218.267 109.204 218.314L105.391 220.519C105.226 220.614 105.234 220.771 105.391 220.874L109.803 223.418ZM93.0237 213.091L89.2031 215.297C89.0456 215.391 89.0535 215.549 89.2031 215.651L93.6224 218.195C93.7161 218.244 93.8201 218.269 93.9256 218.269C94.0312 218.269 94.1351 218.244 94.2289 218.195L98.0494 215.99C98.207 215.895 98.1991 215.738 98.0494 215.635L93.6302 213.091C93.5365 213.043 93.4325 213.017 93.327 213.017C93.2214 213.017 93.1175 213.043 93.0237 213.091ZM102.012 220.653C102.106 220.7 102.21 220.724 102.315 220.724C102.42 220.724 102.524 220.7 102.618 220.653L106.439 218.448C106.596 218.353 106.589 218.195 106.439 218.093L102.02 215.541C101.926 215.492 101.822 215.467 101.716 215.467C101.611 215.467 101.507 215.492 101.413 215.541L97.5926 217.746C97.435 217.841 97.4429 217.991 97.5926 218.093L102.012 220.653ZM119.641 225.38L123.462 223.174C123.627 223.087 123.612 222.93 123.462 222.827L119.051 220.275C118.955 220.227 118.85 220.201 118.743 220.201C118.637 220.201 118.531 220.227 118.436 220.275L114.616 222.473C114.458 222.567 114.466 222.725 114.616 222.827L119.035 225.38C119.128 225.429 119.232 225.456 119.337 225.457C119.443 225.459 119.547 225.435 119.641 225.387V225.38ZM113.45 228.594C113.545 228.64 113.65 228.664 113.757 228.664C113.863 228.664 113.968 228.64 114.064 228.594L117.877 226.388C118.042 226.293 118.034 226.136 117.877 226.033L113.458 223.481C113.364 223.433 113.26 223.408 113.154 223.408C113.049 223.408 112.945 223.433 112.851 223.481L109.015 225.695C108.849 225.781 108.857 225.939 109.015 226.041L113.45 228.594ZM98.6087 209.845L94.7882 212.051C94.6228 212.146 94.6307 212.303 94.7882 212.398L99.1995 214.95C99.2933 214.998 99.3973 215.024 99.5028 215.024C99.6083 215.024 99.7123 214.998 99.8061 214.95L103.627 212.744C103.792 212.65 103.784 212.492 103.627 212.39L99.2074 209.838C99.1129 209.795 99.01 209.774 98.9063 209.777C98.8026 209.779 98.7008 209.806 98.6087 209.853V209.845ZM126.518 193.728L122.698 195.934C122.532 196.028 122.548 196.186 122.698 196.288L127.109 198.833C127.204 198.881 127.31 198.906 127.416 198.906C127.523 198.906 127.628 198.881 127.724 198.833L131.544 196.627C131.702 196.533 131.694 196.375 131.544 196.273L127.125 193.728C127.03 193.681 126.926 193.657 126.821 193.659C126.715 193.66 126.611 193.687 126.518 193.736V193.728ZM104.21 206.631L100.389 208.837C100.231 208.932 100.239 209.089 100.389 209.184L104.808 211.736C104.902 211.784 105.006 211.81 105.112 211.81C105.217 211.81 105.321 211.784 105.415 211.736L109.235 209.53C109.401 209.436 109.385 209.278 109.235 209.176L104.824 206.624C104.728 206.578 104.622 206.555 104.516 206.557C104.409 206.558 104.305 206.584 104.21 206.631ZM132.119 190.514L128.306 192.72C128.141 192.815 128.149 192.972 128.306 193.074L132.726 195.619C132.819 195.667 132.923 195.692 133.029 195.692C133.135 195.692 133.238 195.667 133.332 195.619L137.153 193.413C137.318 193.319 137.31 193.161 137.153 193.059L132.741 190.514C132.642 190.461 132.531 190.432 132.418 190.432C132.306 190.432 132.195 190.461 132.096 190.514H132.119ZM120.957 196.958L117.136 199.164C116.979 199.258 116.987 199.416 117.136 199.518L121.54 202.063C121.634 202.109 121.738 202.133 121.843 202.133C121.948 202.133 122.052 202.109 122.146 202.063L125.967 199.857C126.132 199.762 126.117 199.605 125.967 199.51L121.54 196.974C121.447 196.923 121.344 196.895 121.238 196.892C121.133 196.89 121.028 196.912 120.933 196.958H120.957ZM115.38 200.18L111.559 202.386C111.394 202.48 111.402 202.638 111.559 202.74L115.978 205.292C116.072 205.341 116.176 205.366 116.282 205.366C116.387 205.366 116.491 205.341 116.585 205.292L120.405 203.087C120.571 202.992 120.563 202.835 120.405 202.74L115.986 200.188C115.89 200.136 115.782 200.108 115.672 200.107C115.562 200.106 115.454 200.131 115.356 200.18H115.38ZM109.795 203.41L105.974 205.615C105.809 205.702 105.824 205.859 105.974 205.962L110.385 208.514C110.481 208.563 110.586 208.588 110.693 208.588C110.799 208.588 110.905 208.563 111 208.514L114.82 206.316C114.978 206.222 114.97 206.064 114.82 205.962L110.401 203.41C110.304 203.357 110.196 203.33 110.086 203.33C109.976 203.33 109.868 203.357 109.771 203.41H109.795ZM138.327 207.348L142.147 205.143C142.312 205.048 142.305 204.891 142.147 204.788L137.728 202.236C137.634 202.189 137.53 202.165 137.425 202.165C137.319 202.165 137.216 202.189 137.121 202.236L133.301 204.442C133.135 204.536 133.143 204.694 133.301 204.788L137.72 207.34C137.811 207.384 137.911 207.405 138.012 207.404C138.113 207.403 138.213 207.378 138.303 207.333L138.327 207.348ZM187.355 158.642L183.535 160.848C183.377 160.943 183.385 161.1 183.535 161.195L187.954 163.747C188.048 163.795 188.152 163.821 188.257 163.821C188.363 163.821 188.467 163.795 188.561 163.747L192.381 161.541C192.547 161.447 192.531 161.289 192.381 161.187L187.97 158.635C187.872 158.583 187.763 158.555 187.652 158.554C187.541 158.552 187.431 158.577 187.332 158.627L187.355 158.642ZM180.597 162.542L176.784 164.747C176.619 164.842 176.626 164.999 176.784 165.102L181.203 167.646C181.297 167.695 181.401 167.72 181.506 167.72C181.612 167.72 181.716 167.695 181.81 167.646L185.63 165.441C185.796 165.346 185.788 165.188 185.63 165.086L181.219 162.542C181.121 162.485 181.011 162.455 180.898 162.452C180.785 162.449 180.673 162.475 180.573 162.526L180.597 162.542ZM192.94 155.452L189.12 157.658C188.955 157.744 188.97 157.902 189.12 158.004L193.531 160.557C193.627 160.603 193.732 160.627 193.838 160.627C193.945 160.627 194.05 160.603 194.146 160.557L197.966 158.351C198.124 158.256 198.116 158.099 197.966 157.996L193.547 155.444C193.454 155.386 193.347 155.351 193.237 155.344C193.127 155.338 193.017 155.358 192.917 155.405L192.94 155.452ZM164.046 185.244L167.867 183.039C168.024 182.944 168.016 182.787 167.867 182.684L163.448 180.14C163.354 180.091 163.25 180.066 163.144 180.066C163.039 180.066 162.935 180.091 162.841 180.14L159.02 182.345C158.863 182.44 158.871 182.598 159.02 182.7L163.44 185.244C163.534 185.282 163.636 185.297 163.737 185.289C163.838 185.28 163.936 185.249 164.023 185.197L164.046 185.244ZM199.132 152.238C199.037 152.19 198.932 152.164 198.825 152.164C198.718 152.164 198.613 152.19 198.518 152.238L194.705 154.436C194.54 154.53 194.547 154.688 194.705 154.79L199.124 157.343C199.218 157.391 199.322 157.416 199.427 157.416C199.533 157.416 199.637 157.391 199.731 157.343L203.551 155.137C203.717 155.05 203.709 154.893 203.551 154.79L199.132 152.238ZM143.912 204.15L147.732 201.952C147.898 201.858 147.882 201.7 147.732 201.598L143.321 199.046C143.226 198.997 143.12 198.972 143.014 198.972C142.907 198.972 142.802 198.997 142.706 199.046L138.87 201.196C138.713 201.283 138.72 201.44 138.87 201.543L143.289 204.095C143.381 204.143 143.484 204.169 143.588 204.17C143.692 204.172 143.795 204.149 143.888 204.103L143.912 204.15ZM212.366 164.629L216.187 162.424C216.352 162.329 216.336 162.171 216.187 162.077L211.775 159.525C211.68 159.476 211.575 159.451 211.468 159.451C211.361 159.451 211.256 159.476 211.161 159.525L207.348 161.73C207.183 161.825 207.191 161.982 207.348 162.085L211.767 164.637C211.862 164.67 211.962 164.683 212.061 164.673C212.16 164.664 212.256 164.632 212.342 164.582L212.366 164.629ZM200.479 164.212L204.3 162.006C204.457 161.912 204.449 161.754 204.3 161.652L199.88 159.107C199.787 159.059 199.683 159.034 199.577 159.034C199.472 159.034 199.368 159.059 199.274 159.107L195.453 161.313C195.288 161.407 195.304 161.565 195.453 161.667L199.865 164.212C199.96 164.249 200.063 164.264 200.166 164.256C200.268 164.248 200.367 164.217 200.455 164.164L200.479 164.212ZM205.442 155.885C205.347 155.837 205.241 155.812 205.135 155.812C205.028 155.812 204.923 155.837 204.827 155.885L201.015 158.091C200.849 158.185 200.857 158.343 201.015 158.445L205.434 160.99C205.528 161.038 205.632 161.063 205.737 161.063C205.843 161.063 205.947 161.038 206.041 160.99L209.861 158.784C210.027 158.69 210.019 158.532 209.861 158.43L205.442 155.885ZM206.616 155.2L217.345 161.399C217.439 161.446 217.543 161.47 217.648 161.47C217.753 161.47 217.857 161.446 217.951 161.399L221.772 159.194C221.929 159.099 221.921 158.942 221.772 158.847L211.043 152.648C210.948 152.601 210.845 152.577 210.739 152.577C210.634 152.577 210.53 152.601 210.436 152.648L206.616 154.853C206.411 154.901 206.419 155.058 206.616 155.153V155.2ZM193.665 162.29L189.845 164.495C189.687 164.59 189.695 164.747 189.845 164.85L194.264 167.394C194.358 167.443 194.462 167.468 194.567 167.468C194.673 167.468 194.777 167.443 194.87 167.394L198.691 165.189C198.856 165.094 198.841 164.936 198.691 164.834L194.28 162.29C194.183 162.234 194.075 162.202 193.964 162.198C193.852 162.194 193.742 162.217 193.642 162.266L193.665 162.29ZM151.631 186.52L147.811 188.726C147.645 188.821 147.661 188.978 147.811 189.081L152.222 191.633C152.317 191.681 152.423 191.707 152.529 191.707C152.636 191.707 152.742 191.681 152.837 191.633L156.649 189.427C156.815 189.333 156.807 189.183 156.649 189.081L152.262 186.536C152.166 186.483 152.058 186.454 151.948 186.452C151.839 186.449 151.73 186.472 151.631 186.52ZM206.151 167.796C206.246 167.844 206.351 167.87 206.458 167.87C206.565 167.87 206.67 167.844 206.765 167.796L210.586 165.59C210.743 165.504 210.735 165.346 210.586 165.244L206.143 162.676C206.049 162.629 205.945 162.605 205.84 162.605C205.735 162.605 205.631 162.629 205.536 162.676L201.716 164.881C201.55 164.976 201.566 165.133 201.716 165.236L206.151 167.796ZM157.209 183.299L153.396 185.504C153.231 185.599 153.238 185.756 153.396 185.859L157.815 188.411C157.91 188.458 158.013 188.482 158.118 188.482C158.224 188.482 158.327 188.458 158.422 188.411L162.242 186.205C162.408 186.111 162.4 185.953 162.242 185.859L157.831 183.306C157.735 183.256 157.629 183.228 157.521 183.227C157.412 183.225 157.305 183.25 157.209 183.299ZM115.372 220.181C115.466 220.227 115.57 220.251 115.675 220.251C115.78 220.251 115.884 220.227 115.978 220.181L119.799 217.975C119.956 217.88 119.949 217.723 119.799 217.628L115.38 215.076C115.286 215.028 115.182 215.002 115.076 215.002C114.971 215.002 114.867 215.028 114.773 215.076L110.953 217.282C110.795 217.376 110.803 217.534 110.953 217.636L115.372 220.181ZM106.975 212.303L103.154 214.501C102.989 214.595 102.996 214.753 103.154 214.855L107.565 217.408C107.66 217.456 107.766 217.481 107.873 217.481C107.979 217.481 108.085 217.456 108.18 217.408L111.992 215.202C112.158 215.115 112.15 214.958 111.992 214.855L107.581 212.303C107.487 212.255 107.383 212.23 107.278 212.23C107.172 212.23 107.068 212.255 106.975 212.303ZM121.54 217.03L125.352 214.824C125.518 214.729 125.51 214.572 125.352 214.469L120.933 211.925C120.839 211.877 120.735 211.851 120.63 211.851C120.524 211.851 120.42 211.877 120.327 211.925L116.506 214.131C116.341 214.225 116.349 214.383 116.506 214.485L120.918 217.03C121.014 217.079 121.12 217.105 121.229 217.105C121.337 217.105 121.444 217.079 121.54 217.03ZM127.117 213.808L130.938 211.602C131.103 211.508 131.087 211.35 130.938 211.248L126.526 208.703C126.431 208.655 126.326 208.63 126.219 208.63C126.112 208.63 126.007 208.655 125.912 208.703L122.091 210.909C121.934 211.003 121.942 211.161 122.091 211.263L126.51 213.808C126.61 213.855 126.719 213.877 126.83 213.872C126.94 213.866 127.047 213.834 127.141 213.776L127.117 213.808ZM132.702 210.586L136.523 208.38C136.68 208.286 136.672 208.128 136.523 208.026L132.103 205.473C132.009 205.427 131.905 205.403 131.8 205.403C131.695 205.403 131.591 205.427 131.497 205.473L127.676 207.679C127.511 207.774 127.527 207.931 127.676 208.026L132.088 210.578C132.188 210.627 132.298 210.65 132.41 210.646C132.521 210.642 132.629 210.61 132.726 210.554L132.702 210.586ZM112.528 209.113L108.708 211.318C108.55 211.413 108.558 211.571 108.708 211.673L113.127 214.225C113.221 214.272 113.325 214.296 113.43 214.296C113.535 214.296 113.639 214.272 113.733 214.225L117.554 212.02C117.719 211.925 117.704 211.768 117.554 211.673L113.143 209.121C113.053 209.071 112.954 209.042 112.851 209.036C112.749 209.029 112.647 209.044 112.552 209.081L112.528 209.113ZM118.113 205.891L114.293 208.097C114.127 208.191 114.143 208.349 114.293 208.451L118.704 211.003C118.8 211.05 118.905 211.074 119.011 211.074C119.118 211.074 119.223 211.05 119.318 211.003L123.139 208.798C123.296 208.703 123.289 208.546 123.139 208.451L118.72 205.899C118.632 205.848 118.534 205.818 118.433 205.811C118.332 205.805 118.23 205.821 118.137 205.859L118.113 205.891ZM140.446 192.972L136.633 195.178C136.467 195.272 136.475 195.43 136.633 195.524L141.052 198.077C141.146 198.125 141.25 198.15 141.355 198.15C141.461 198.15 141.565 198.125 141.659 198.077L145.479 195.871C145.645 195.776 145.637 195.619 145.479 195.516L141.068 192.964C140.971 192.917 140.864 192.894 140.756 192.895C140.648 192.897 140.542 192.923 140.446 192.972ZM134.868 196.194L131.048 198.4C130.882 198.494 130.898 198.652 131.048 198.746L135.459 201.298C135.554 201.347 135.66 201.372 135.766 201.372C135.873 201.372 135.978 201.347 136.074 201.298L139.894 199.093C140.052 198.998 140.044 198.841 139.894 198.738L135.475 196.186C135.382 196.143 135.281 196.122 135.179 196.123C135.076 196.124 134.976 196.149 134.884 196.194H134.868ZM146.031 189.75L142.21 191.956C142.053 192.043 142.06 192.2 142.21 192.302L146.629 194.855C146.723 194.903 146.827 194.928 146.933 194.928C147.038 194.928 147.142 194.903 147.236 194.855L151.056 192.657C151.214 192.562 151.206 192.405 151.056 192.302L146.637 189.75C146.545 189.704 146.444 189.681 146.342 189.681C146.239 189.681 146.138 189.704 146.046 189.75H146.031ZM123.706 202.638L119.886 204.843C119.72 204.938 119.728 205.095 119.886 205.198L124.305 207.742C124.399 207.791 124.503 207.816 124.608 207.816C124.714 207.816 124.818 207.791 124.911 207.742L128.732 205.536C128.897 205.442 128.889 205.284 128.732 205.182L124.313 202.638C124.221 202.592 124.12 202.568 124.017 202.568C123.915 202.568 123.814 202.592 123.722 202.638H123.706ZM129.283 199.416L125.463 201.621C125.305 201.716 125.313 201.874 125.463 201.976L129.882 204.52C129.976 204.569 130.08 204.594 130.185 204.594C130.291 204.594 130.395 204.569 130.489 204.52L134.309 202.315C134.474 202.22 134.459 202.063 134.309 201.96L129.89 199.416C129.798 199.37 129.697 199.346 129.594 199.346C129.492 199.346 129.391 199.37 129.299 199.416H129.283ZM125.211 222.166L129.031 219.96C129.189 219.865 129.181 219.708 129.031 219.613L124.604 217.03C124.51 216.981 124.406 216.956 124.301 216.956C124.195 216.956 124.091 216.981 123.998 217.03L120.177 219.235C120.012 219.33 120.027 219.487 120.177 219.59L124.588 222.142C124.685 222.196 124.794 222.227 124.905 222.231C125.015 222.235 125.126 222.212 125.226 222.166H125.211ZM92.4486 218.857L88.0373 216.313C87.9421 216.264 87.8369 216.239 87.7301 216.239C87.6233 216.239 87.518 216.264 87.4229 216.313L83.6023 218.518C83.4448 218.613 83.4526 218.77 83.6023 218.873L88.0215 221.417C88.1153 221.466 88.2193 221.491 88.3248 221.491C88.4303 221.491 88.5343 221.466 88.6281 221.417L92.4486 219.212C92.6534 219.117 92.6377 218.96 92.4644 218.857H92.4486ZM100.814 221.315L96.4031 218.763C96.3074 218.716 96.2023 218.692 96.0959 218.692C95.9894 218.692 95.8843 218.716 95.7886 218.763L89.9121 222.15C89.7546 222.244 89.7624 222.402 89.9121 222.504L94.3313 225.057C94.4251 225.105 94.5291 225.13 94.6346 225.13C94.7401 225.13 94.8441 225.105 94.9379 225.057L100.814 221.669C101.059 221.575 101.003 221.417 100.83 221.315H100.814ZM85.6741 213.934L81.2627 211.381C81.1676 211.333 81.0623 211.308 80.9555 211.308C80.8487 211.308 80.7435 211.333 80.6483 211.381L75.9219 214.099C75.7643 214.194 75.7722 214.351 75.9219 214.446L80.3411 216.998C80.4349 217.046 80.5388 217.072 80.6444 217.072C80.7499 217.072 80.8539 217.046 80.9476 216.998L85.6741 214.28C85.8789 214.186 85.8631 214.028 85.6898 213.934H85.6741ZM89.2819 211.846C89.3757 211.895 89.4797 211.92 89.5852 211.92C89.6907 211.92 89.7947 211.895 89.8885 211.846L93.709 209.641C93.8666 209.546 93.8587 209.389 93.709 209.286L89.2819 206.789C89.1881 206.741 89.0841 206.715 88.9786 206.715C88.8731 206.715 88.7691 206.741 88.6754 206.789L84.8548 208.995C84.6973 209.089 84.7052 209.247 84.8548 209.349L89.2819 211.846ZM108.613 224.119L104.21 221.559C104.116 221.511 104.012 221.485 103.906 221.485C103.801 221.485 103.697 221.511 103.603 221.559L96.2534 225.797C96.0959 225.892 96.1037 226.049 96.2534 226.152L100.673 228.696C100.766 228.744 100.87 228.77 100.976 228.77C101.081 228.77 101.185 228.744 101.279 228.696L108.621 224.458C108.794 224.371 108.786 224.214 108.613 224.119ZM112.276 229.287L107.857 226.735C107.762 226.688 107.659 226.664 107.554 226.664C107.448 226.664 107.345 226.688 107.25 226.735L102.524 229.444C102.366 229.539 102.374 229.696 102.524 229.799L106.943 232.351C107.037 232.398 107.141 232.422 107.246 232.422C107.351 232.422 107.455 232.398 107.55 232.351L112.276 229.641C112.457 229.539 112.449 229.381 112.276 229.279V229.287ZM130.796 187.883C130.891 187.93 130.997 187.954 131.103 187.954C131.209 187.954 131.314 187.93 131.41 187.883L135.231 185.678C135.388 185.583 135.38 185.426 135.231 185.331L130.812 182.779C130.718 182.73 130.614 182.705 130.508 182.705C130.403 182.705 130.299 182.73 130.205 182.779L126.384 184.984C126.219 185.079 126.235 185.236 126.384 185.339L130.796 187.883ZM119.633 194.327C119.729 194.375 119.834 194.401 119.941 194.401C120.047 194.401 120.153 194.375 120.248 194.327L124.061 192.121C124.226 192.035 124.218 191.877 124.061 191.775L119.641 189.222C119.547 189.176 119.443 189.152 119.338 189.152C119.233 189.152 119.129 189.176 119.035 189.222L115.238 191.428C115.072 191.523 115.08 191.68 115.238 191.783L119.633 194.327ZM94.8749 208.617C94.97 208.665 95.0753 208.69 95.1821 208.69C95.2889 208.69 95.3941 208.665 95.4893 208.617L99.302 206.411C99.4674 206.316 99.4595 206.159 99.302 206.056L94.8827 203.512C94.789 203.464 94.685 203.438 94.5795 203.438C94.4739 203.438 94.37 203.464 94.2762 203.512L90.4556 205.718C90.2902 205.812 90.306 205.97 90.4556 206.072L94.8749 208.617ZM125.219 191.105C125.313 191.152 125.417 191.176 125.522 191.176C125.627 191.176 125.731 191.152 125.825 191.105L129.646 188.899C129.811 188.805 129.795 188.647 129.646 188.553L125.234 186.001C125.139 185.952 125.034 185.927 124.927 185.927C124.82 185.927 124.715 185.952 124.62 186.001L120.799 188.206C120.642 188.301 120.65 188.458 120.799 188.561L125.219 191.105ZM114.056 197.549C114.15 197.597 114.254 197.622 114.36 197.622C114.465 197.622 114.569 197.597 114.663 197.549L118.483 195.351C118.641 195.256 118.633 195.099 118.483 194.997L114.064 192.444C113.97 192.396 113.866 192.371 113.761 192.371C113.655 192.371 113.551 192.396 113.458 192.444L109.637 194.65C109.48 194.737 109.487 194.894 109.637 194.997L114.056 197.549ZM115.348 229.689C115.253 229.64 115.148 229.615 115.041 229.615C114.934 229.615 114.829 229.64 114.734 229.689L108.857 233.084C108.7 233.178 108.708 233.336 108.857 233.43L113.276 235.983C113.37 236.031 113.474 236.056 113.58 236.056C113.685 236.056 113.789 236.031 113.883 235.983L119.76 232.587C119.917 232.493 119.909 232.335 119.76 232.233L115.348 229.689ZM106.045 202.173C106.139 202.219 106.243 202.244 106.348 202.244C106.453 202.244 106.557 202.219 106.652 202.173L110.472 199.967C110.63 199.873 110.622 199.715 110.472 199.613L106.053 197.06C105.959 197.014 105.855 196.99 105.75 196.99C105.644 196.99 105.541 197.014 105.446 197.06L101.626 199.266C101.468 199.361 101.476 199.518 101.626 199.613L106.045 202.173ZM100.46 205.395C100.554 205.443 100.658 205.468 100.763 205.468C100.869 205.468 100.973 205.443 101.066 205.395L104.887 203.189C105.052 203.094 105.045 202.937 104.887 202.835L100.476 200.282C100.38 200.236 100.275 200.211 100.168 200.211C100.062 200.211 99.9569 200.236 99.8612 200.282L96.0486 202.488C95.8832 202.582 95.891 202.74 96.0486 202.835L100.46 205.395ZM218.763 169.946C218.669 169.898 218.565 169.873 218.459 169.873C218.354 169.873 218.25 169.898 218.156 169.946L208.75 175.374C208.593 175.468 208.601 175.626 208.75 175.728L213.17 178.281C213.264 178.327 213.368 178.351 213.473 178.351C213.578 178.351 213.682 178.327 213.776 178.281L223.197 172.916C223.363 172.822 223.355 172.664 223.197 172.57L218.763 169.946ZM206.419 177.036C206.324 176.99 206.221 176.965 206.115 176.965C206.01 176.965 205.906 176.99 205.812 177.036L201.992 179.242C201.834 179.336 201.842 179.494 201.992 179.588L206.411 182.141C206.505 182.187 206.609 182.211 206.714 182.211C206.819 182.211 206.923 182.187 207.017 182.141L210.838 179.935C210.995 179.84 210.988 179.683 210.838 179.58L206.419 177.036ZM130.796 218.873L134.616 216.667C134.782 216.573 134.774 216.415 134.616 216.321L130.205 213.879C130.111 213.83 130.007 213.805 129.902 213.805C129.796 213.805 129.692 213.83 129.598 213.879L125.778 216.084C125.612 216.179 125.62 216.336 125.778 216.439L130.197 218.991C130.295 219.03 130.401 219.047 130.506 219.038C130.611 219.03 130.713 218.998 130.804 218.944L130.796 218.873ZM195.249 183.488C195.155 183.439 195.051 183.414 194.945 183.414C194.84 183.414 194.736 183.439 194.642 183.488L190.821 185.693C190.656 185.788 190.672 185.945 190.821 186.048L195.233 188.592C195.328 188.641 195.433 188.666 195.54 188.666C195.647 188.666 195.752 188.641 195.847 188.592L199.668 186.387C199.825 186.292 199.817 186.134 199.668 186.032L195.249 183.488ZM224.34 166.693C224.245 166.645 224.139 166.619 224.032 166.619C223.926 166.619 223.82 166.645 223.725 166.693L219.905 168.899C219.747 168.993 219.755 169.151 219.905 169.253L224.324 171.798C224.418 171.846 224.522 171.871 224.627 171.871C224.733 171.871 224.837 171.846 224.931 171.798L228.751 169.592C228.916 169.497 228.901 169.34 228.751 169.237L224.34 166.693ZM234.336 166.016L223.607 159.824C223.513 159.776 223.409 159.75 223.304 159.75C223.198 159.75 223.094 159.776 223.001 159.824L219.18 162.03C219.015 162.116 219.03 162.274 219.18 162.376L229.901 168.568C229.996 168.616 230.102 168.642 230.208 168.642C230.315 168.642 230.42 168.616 230.516 168.568L234.336 166.362C234.525 166.346 234.517 166.189 234.344 166.087L234.336 166.016ZM174.389 195.524C174.295 195.478 174.191 195.454 174.086 195.454C173.981 195.454 173.877 195.478 173.783 195.524L169.056 198.234C168.891 198.329 168.907 198.486 169.056 198.589L173.468 201.141C173.563 201.188 173.668 201.212 173.775 201.212C173.881 201.212 173.986 201.188 174.082 201.141L178.808 198.431C178.966 198.337 178.958 198.179 178.808 198.077L174.389 195.524ZM188.498 187.458C188.404 187.41 188.3 187.384 188.194 187.384C188.089 187.384 187.985 187.41 187.891 187.458L182.015 190.853C181.857 190.948 181.865 191.105 182.015 191.208L186.434 193.752C186.528 193.8 186.632 193.826 186.737 193.826C186.843 193.826 186.947 193.8 187.04 193.752L192.917 190.357C193.074 190.262 193.066 190.105 192.917 190.01L188.498 187.458ZM161.47 203.063C161.377 203.015 161.273 202.989 161.167 202.989C161.061 202.989 160.958 203.015 160.864 203.063L129.425 221.181C129.26 221.275 129.275 221.433 129.425 221.535L133.836 224.088C133.932 224.134 134.037 224.159 134.144 224.159C134.25 224.159 134.355 224.134 134.451 224.088L165.882 205.97C166.047 205.875 166.039 205.718 165.882 205.623L161.47 203.063ZM128.275 222.229C128.18 222.18 128.075 222.155 127.968 222.155C127.861 222.155 127.756 222.18 127.661 222.229L122.934 224.938C122.777 225.033 122.784 225.191 122.934 225.293L127.353 227.837C127.447 227.886 127.551 227.911 127.657 227.911C127.762 227.911 127.866 227.886 127.96 227.837L132.686 225.12C132.852 225.033 132.836 224.875 132.686 224.773L128.275 222.229ZM167.938 199.329C167.842 199.281 167.737 199.255 167.63 199.255C167.524 199.255 167.418 199.281 167.323 199.329L162.597 202.039C162.431 202.133 162.439 202.291 162.597 202.393L167.016 204.938C167.11 204.986 167.214 205.011 167.319 205.011C167.425 205.011 167.529 204.986 167.623 204.938L172.349 202.22C172.514 202.133 172.499 201.976 172.349 201.874L167.938 199.329ZM121.808 225.963C121.714 225.914 121.61 225.889 121.504 225.889C121.399 225.889 121.295 225.914 121.201 225.963L116.475 228.68C116.309 228.775 116.325 228.932 116.475 229.035L120.886 231.579C120.981 231.628 121.086 231.653 121.193 231.653C121.3 231.653 121.405 231.628 121.5 231.579L126.227 228.861C126.392 228.767 126.384 228.609 126.227 228.515L121.808 225.963ZM180.888 191.869C180.793 191.821 180.688 191.796 180.581 191.796C180.474 191.796 180.369 191.821 180.274 191.869L175.547 194.587C175.382 194.681 175.39 194.839 175.547 194.934L179.966 197.486C180.061 197.532 180.164 197.557 180.27 197.557C180.375 197.557 180.479 197.532 180.573 197.486L185.299 194.768C185.465 194.674 185.449 194.516 185.299 194.414L180.888 191.869ZM200.865 180.329C200.769 180.282 200.664 180.258 200.558 180.258C200.451 180.258 200.346 180.282 200.251 180.329L196.438 182.535C196.273 182.629 196.28 182.787 196.438 182.881L200.857 185.433C200.951 185.482 201.055 185.507 201.161 185.507C201.266 185.507 201.37 185.482 201.464 185.433L205.284 183.228C205.45 183.133 205.442 182.976 205.284 182.873L200.865 180.329ZM213.099 171.451L216.911 169.245C217.077 169.151 217.069 168.993 216.911 168.891L212.492 166.346C212.398 166.298 212.294 166.273 212.189 166.273C212.083 166.273 211.979 166.298 211.886 166.346L208.065 168.552C207.9 168.647 207.907 168.804 208.065 168.907L212.476 171.451C212.57 171.497 212.672 171.521 212.776 171.521C212.88 171.521 212.982 171.497 213.075 171.451H213.099ZM188.135 171.286L191.956 169.08C192.121 168.993 192.105 168.836 191.956 168.733L187.544 166.181C187.449 166.134 187.344 166.11 187.237 166.11C187.131 166.11 187.026 166.134 186.93 166.181L183.109 168.387C182.952 168.481 182.96 168.639 183.109 168.741L187.529 171.293C187.62 171.337 187.72 171.359 187.821 171.357C187.922 171.356 188.022 171.331 188.112 171.286H188.135ZM175.531 193.161L186.694 186.717C186.851 186.623 186.843 186.465 186.694 186.363L182.196 183.811C182.101 183.764 181.998 183.74 181.892 183.74C181.787 183.74 181.683 183.764 181.589 183.811L170.419 190.246C170.254 190.341 170.261 190.499 170.419 190.601L174.83 193.145C174.927 193.2 175.036 193.23 175.147 193.233C175.259 193.236 175.369 193.211 175.468 193.161H175.531ZM206.946 174.657C207.04 174.705 207.144 174.731 207.25 174.731C207.355 174.731 207.459 174.705 207.553 174.657L211.374 172.451C211.531 172.357 211.523 172.199 211.374 172.097L206.954 169.553C206.861 169.504 206.757 169.479 206.651 169.479C206.546 169.479 206.442 169.504 206.348 169.553L202.527 171.758C202.37 171.853 202.378 172.01 202.527 172.113L206.946 174.657ZM201.243 171.034L205.064 168.828C205.221 168.733 205.213 168.576 205.064 168.473L200.645 165.921C200.551 165.873 200.447 165.848 200.341 165.848C200.236 165.848 200.132 165.873 200.038 165.921L196.217 168.127C196.06 168.213 196.068 168.371 196.217 168.473L200.637 171.026C200.722 171.064 200.814 171.084 200.908 171.086C201.001 171.087 201.094 171.069 201.18 171.034H201.243ZM169.946 196.383L173.767 194.177C173.924 194.083 173.917 193.925 173.767 193.831L169.348 191.278C169.254 191.23 169.15 191.205 169.044 191.205C168.939 191.205 168.835 191.23 168.741 191.278L164.921 193.484C164.763 193.579 164.771 193.736 164.921 193.839L169.34 196.391C169.426 196.427 169.519 196.444 169.612 196.443C169.706 196.442 169.798 196.421 169.883 196.383H169.946ZM194.603 181.786C194.696 181.835 194.8 181.86 194.906 181.86C195.011 181.86 195.115 181.835 195.209 181.786L199.03 179.58C199.195 179.486 199.187 179.328 199.03 179.234L194.61 176.682C194.516 176.635 194.412 176.611 194.307 176.611C194.202 176.611 194.098 176.635 194.004 176.682L190.183 178.887C190.018 178.982 190.026 179.139 190.183 179.242L194.603 181.786ZM142.037 212.508L145.857 210.302C146.015 210.208 146.007 210.05 145.857 209.948L141.438 207.403C141.344 207.355 141.24 207.33 141.135 207.33C141.029 207.33 140.925 207.355 140.832 207.403L137.011 209.609C136.846 209.704 136.861 209.861 137.011 209.964L141.422 212.508C141.51 212.545 141.604 212.564 141.699 212.563C141.794 212.561 141.888 212.54 141.974 212.5L142.037 212.508ZM147.614 209.286L151.435 207.08C151.6 206.986 151.592 206.828 151.435 206.726L147.023 204.174C146.929 204.127 146.825 204.103 146.72 204.103C146.615 204.103 146.511 204.127 146.417 204.174L142.596 206.379C142.431 206.474 142.439 206.631 142.596 206.726L147.015 209.278C147.097 209.313 147.186 209.331 147.275 209.331C147.365 209.331 147.453 209.313 147.535 209.278L147.614 209.286ZM136.452 215.73L140.272 213.524C140.438 213.43 140.422 213.272 140.272 213.17L135.861 210.625C135.766 210.577 135.66 210.552 135.554 210.552C135.447 210.552 135.342 210.577 135.246 210.625L131.426 212.831C131.268 212.925 131.276 213.083 131.426 213.185L135.845 215.73C135.931 215.767 136.024 215.786 136.118 215.784C136.211 215.783 136.304 215.762 136.389 215.722L136.452 215.73ZM158.721 202.85L162.534 200.652C162.699 200.558 162.691 200.4 162.534 200.298L158.115 197.746C158.021 197.697 157.917 197.672 157.811 197.672C157.706 197.672 157.602 197.697 157.508 197.746L153.687 199.951C153.522 200.038 153.538 200.196 153.687 200.298L158.099 202.85C158.195 202.9 158.302 202.926 158.41 202.926C158.518 202.926 158.625 202.9 158.721 202.85ZM153.136 206.08L156.957 203.874C157.114 203.78 157.106 203.622 156.957 203.52L152.537 200.968C152.443 200.921 152.339 200.897 152.234 200.897C152.129 200.897 152.025 200.921 151.931 200.968L148.11 203.173C147.953 203.268 147.961 203.425 148.11 203.52L152.529 206.072C152.625 206.116 152.729 206.138 152.835 206.135C152.94 206.132 153.043 206.105 153.136 206.056V206.08ZM164.298 199.628L168.119 197.423C168.284 197.328 168.268 197.171 168.119 197.076L163.707 194.524C163.612 194.477 163.507 194.453 163.4 194.453C163.294 194.453 163.189 194.477 163.093 194.524L159.28 196.73C159.115 196.824 159.123 196.982 159.28 197.084L163.7 199.636C163.795 199.677 163.899 199.695 164.003 199.69C164.106 199.684 164.207 199.655 164.298 199.605V199.628ZM189.837 151.954C189.932 152.003 190.037 152.028 190.144 152.028C190.251 152.028 190.356 152.003 190.451 151.954L194.272 149.749C194.429 149.662 194.421 149.505 194.272 149.402L193.098 148.725C193.003 148.676 192.898 148.651 192.791 148.651C192.684 148.651 192.579 148.676 192.484 148.725L188.663 150.93C188.505 151.025 188.513 151.183 188.663 151.285L189.837 151.954ZM162.376 169.679C162.47 169.727 162.574 169.752 162.679 169.752C162.785 169.752 162.889 169.727 162.983 169.679L166.803 167.473C166.961 167.378 166.953 167.221 166.803 167.118L162.384 164.574C162.29 164.526 162.186 164.5 162.081 164.5C161.975 164.5 161.871 164.526 161.778 164.574L157.957 166.78C157.799 166.874 157.807 167.032 157.957 167.134L162.376 169.679ZM173.531 163.211C173.624 163.26 173.728 163.285 173.834 163.285C173.939 163.285 174.043 163.26 174.137 163.211L177.958 161.006C178.123 160.911 178.107 160.754 177.958 160.651L173.546 158.099C173.451 158.052 173.346 158.028 173.239 158.028C173.133 158.028 173.028 158.052 172.932 158.099L169.111 160.305C168.954 160.399 168.962 160.557 169.111 160.651L173.531 163.211ZM155.546 173.594C155.642 173.64 155.747 173.665 155.854 173.665C155.96 173.665 156.065 173.64 156.161 173.594L159.981 171.388C160.139 171.293 160.131 171.136 159.981 171.034L155.562 168.481C155.468 168.435 155.364 168.41 155.259 168.41C155.154 168.41 155.05 168.435 154.956 168.481L151.135 170.687C150.97 170.774 150.985 170.931 151.135 171.034L155.546 173.594ZM167.946 166.433C168.041 166.482 168.146 166.507 168.253 166.507C168.36 166.507 168.465 166.482 168.56 166.433L172.373 164.227C172.538 164.133 172.53 163.975 172.373 163.873L167.953 161.329C167.86 161.28 167.756 161.255 167.65 161.255C167.545 161.255 167.441 161.28 167.347 161.329L163.526 163.534C163.361 163.629 163.369 163.786 163.526 163.889L167.946 166.433ZM144.384 180.006C144.478 180.054 144.582 180.079 144.688 180.079C144.793 180.079 144.897 180.054 144.991 180.006L148.811 177.8C148.977 177.706 148.969 177.548 148.811 177.446L144.384 174.949C144.29 174.9 144.186 174.875 144.081 174.875C143.975 174.875 143.871 174.9 143.778 174.949L139.957 177.154C139.792 177.249 139.8 177.406 139.957 177.509L144.384 180.006ZM149.977 176.855C150.071 176.903 150.175 176.928 150.28 176.928C150.386 176.928 150.49 176.903 150.584 176.855L154.404 174.649C154.57 174.555 154.554 174.397 154.404 174.295L149.985 171.742C149.891 171.696 149.787 171.672 149.682 171.672C149.577 171.672 149.473 171.696 149.379 171.742L145.558 173.948C145.4 174.043 145.408 174.2 145.558 174.295L149.977 176.855ZM178.675 158.414C178.768 158.462 178.872 158.488 178.978 158.488C179.083 158.488 179.187 158.462 179.281 158.414L183.102 156.208C183.267 156.114 183.259 155.956 183.102 155.854L181.928 155.176C181.834 155.128 181.73 155.103 181.625 155.103C181.519 155.103 181.415 155.128 181.321 155.176L177.501 157.382C177.335 157.477 177.351 157.634 177.501 157.736L178.675 158.414ZM195.422 148.748C195.516 148.795 195.62 148.819 195.725 148.819C195.83 148.819 195.934 148.795 196.028 148.748L199.849 146.543C200.014 146.448 200.006 146.291 199.849 146.196L198.675 145.519C198.581 145.47 198.477 145.445 198.372 145.445C198.266 145.445 198.162 145.47 198.069 145.519L194.248 147.724C194.083 147.819 194.098 147.976 194.248 148.079L195.422 148.748ZM204.701 154.105C204.796 154.152 204.899 154.176 205.005 154.176C205.11 154.176 205.214 154.152 205.308 154.105L209.128 151.899C209.294 151.805 209.278 151.647 209.128 151.553L204.709 149C204.615 148.952 204.512 148.927 204.406 148.927C204.3 148.927 204.196 148.952 204.103 149L200.282 151.206C200.125 151.301 200.133 151.458 200.282 151.561L204.701 154.105ZM218.652 168.284L222.473 166.079C222.638 165.984 222.622 165.827 222.473 165.724L218.061 163.172C217.966 163.125 217.861 163.101 217.754 163.101C217.648 163.101 217.543 163.125 217.447 163.172L213.626 165.378C213.469 165.472 213.477 165.63 213.626 165.724L218.046 168.276C218.143 168.318 218.249 168.335 218.355 168.327C218.46 168.318 218.562 168.285 218.652 168.229V168.284ZM184.26 155.208C184.354 155.254 184.458 155.279 184.563 155.279C184.668 155.279 184.772 155.254 184.866 155.208L188.687 153.002C188.844 152.908 188.836 152.75 188.687 152.648L187.513 151.97C187.419 151.922 187.315 151.897 187.21 151.897C187.104 151.897 187 151.922 186.906 151.97L183.086 154.176C182.92 154.27 182.928 154.428 183.086 154.53L184.26 155.208ZM138.807 183.314C138.902 183.363 139.007 183.388 139.114 183.388C139.221 183.388 139.326 183.363 139.421 183.314L143.242 181.109C143.4 181.014 143.392 180.857 143.242 180.754L138.823 178.21C138.729 178.161 138.625 178.136 138.52 178.136C138.414 178.136 138.31 178.161 138.216 178.21L134.396 180.415C134.23 180.51 134.246 180.668 134.396 180.77L138.807 183.314Z" fill="#455A64"/>
<path d="M163.567 216.77L201.26 194.973C201.897 194.65 202.602 194.482 203.316 194.482C204.03 194.482 204.735 194.65 205.372 194.973L226.987 207.451C228.122 208.112 228.122 209.176 226.987 209.814L189.286 231.619C188.65 231.945 187.945 232.115 187.23 232.115C186.515 232.115 185.81 231.945 185.174 231.619L163.559 219.141C162.432 218.487 162.432 217.423 163.567 216.77Z" fill="#263238"/>
<path d="M171.806 24.9946V30.753L86.0133 80.286C85.4225 80.6247 84.942 80.349 84.942 79.6637L85.005 77.5998C84.4936 77.3958 83.9668 77.2325 83.4296 77.1114L57.7335 91.9446C57.4206 92.1501 57.1601 92.426 56.9727 92.7501C56.7853 93.0743 56.6763 93.4377 56.6543 93.8115V95.9856C56.6363 96.3594 56.5298 96.7236 56.3435 97.0482C56.1573 97.3727 55.8966 97.6485 55.583 97.8526L52.6211 99.562V93.8115C52.6391 93.4377 52.7456 93.0735 52.9319 92.749C53.1181 92.4244 53.3788 92.1487 53.6924 91.9446L170.735 24.3723C171.325 24.0336 171.806 24.3093 171.806 24.9946Z" fill="#92E3A9"/>
<path d="M171.814 111.22C171.794 111.594 171.685 111.957 171.498 112.28C171.31 112.603 171.049 112.877 170.735 113.08L53.6924 180.652C53.1016 180.998 52.6211 180.715 52.6211 180.029V99.562L55.583 97.8526C56.1738 97.5138 57.1585 92.2911 57.7335 91.9445L83.4296 77.1114C84.0204 76.7727 85.4225 80.6247 86.0133 80.2624L171.806 30.753V111.22H171.814Z" fill="#EBEBEB"/>
<path d="M57.7334 121.619L109.141 91.913C109.732 91.5664 110.213 91.85 110.213 92.5353V143.061C110.195 143.435 110.088 143.799 109.902 144.123C109.716 144.448 109.455 144.724 109.141 144.928L57.7334 174.633C57.1426 174.972 56.6621 174.696 56.6621 174.011V123.486C56.6801 123.112 56.7866 122.748 56.9729 122.423C57.1591 122.098 57.4198 121.823 57.7334 121.619Z" fill="#FAFAFA"/>
<path d="M57.7334 108.274L166.701 45.3656C167.292 45.019 167.773 45.3026 167.773 45.9879V53.5581C167.753 53.9305 167.646 54.2931 167.46 54.6162C167.274 54.9393 167.014 55.2138 166.701 55.4171L57.7334 118.334C57.1426 118.673 56.6621 118.397 56.6621 117.712V110.141C56.6801 109.768 56.7866 109.403 56.9729 109.079C57.1591 108.754 57.4198 108.479 57.7334 108.274Z" fill="#455A64"/>
<path d="M127.369 74.0708V76.0716C127.369 76.4891 127.661 76.6545 128.015 76.4497L159.69 58.1585V54.6609L128.015 72.9522C127.827 73.0751 127.671 73.2403 127.559 73.4346C127.447 73.6289 127.382 73.8468 127.369 74.0708Z" fill="#FAFAFA"/>
<path d="M163.087 52.6994C163.449 52.4946 163.733 52.6994 163.733 53.0696V55.0784C163.721 55.3027 163.657 55.521 163.544 55.7155C163.432 55.91 163.275 56.075 163.087 56.197L159.691 58.1584V54.6609L163.087 52.6994Z" fill="#92E3A9"/>
<path d="M162.842 55.4486L162.456 55.3304C162.497 55.1708 162.518 55.0068 162.519 54.842C162.533 54.6921 162.509 54.5409 162.448 54.4031C162.388 54.2652 162.293 54.1451 162.172 54.0543C162.089 54.0043 161.994 53.9779 161.897 53.9779C161.8 53.9779 161.704 54.0043 161.621 54.0543C161.374 54.2356 161.174 54.473 161.037 54.7469C160.9 55.0209 160.83 55.3235 160.833 55.6298C160.821 55.7796 160.846 55.9303 160.906 56.0679C160.967 56.2055 161.061 56.3257 161.18 56.4175C161.255 56.4586 161.339 56.4802 161.424 56.4805C161.533 56.4772 161.639 56.4446 161.731 56.386C162.014 56.195 162.229 55.9192 162.346 55.5983L162.724 55.7164H162.763C162.793 55.7177 162.822 55.7092 162.846 55.6921C162.871 55.6749 162.889 55.6503 162.897 55.6219C162.91 55.5911 162.911 55.5569 162.901 55.5253C162.891 55.4936 162.87 55.4664 162.842 55.4486ZM161.621 56.1733C161.581 56.1976 161.534 56.2105 161.487 56.2105C161.44 56.2105 161.394 56.1976 161.353 56.1733C161.277 56.1018 161.218 56.013 161.182 55.9144C161.147 55.8158 161.135 55.7102 161.148 55.6062C161.145 55.3525 161.199 55.1013 161.305 54.8709C161.411 54.6406 161.568 54.4369 161.763 54.2749C161.816 54.2435 161.875 54.2246 161.936 54.2197C161.967 54.2082 162 54.2082 162.031 54.2197C162.165 54.2906 162.236 54.5033 162.236 54.779C162.252 55.0437 162.205 55.3085 162.098 55.5511C161.991 55.7938 161.828 56.0072 161.621 56.1733Z" fill="#FAFAFA"/>
<path d="M171.806 30.753V37.756L52.6211 106.565V99.562L54.8346 98.2858C55.4254 97.9392 55.6224 97.4193 55.906 96.4189L56.6543 93.8115C56.6978 93.4432 56.8159 93.0878 57.0014 92.7667C57.187 92.4457 57.4361 92.166 57.7335 91.9445L83.4296 77.1114C83.544 77.0095 83.6814 76.9369 83.8301 76.8999C83.9788 76.863 84.1343 76.8627 84.2831 76.8991C84.4319 76.9355 84.5696 77.0076 84.6844 77.1091C84.7992 77.2105 84.8876 77.3384 84.942 77.4817L85.8637 79.1517C86.2024 79.7346 86.3678 80.0812 86.9586 79.7346L171.806 30.753Z" fill="#E6E6E6"/>
<path d="M166.765 28.6103C167.553 28.1771 168.12 28.5237 168.12 29.3981C168.097 29.8711 167.963 30.3319 167.727 30.7427C167.491 31.1536 167.162 31.5026 166.765 31.7613C165.977 32.1945 165.402 31.8401 165.402 30.9736C165.424 30.4994 165.559 30.0374 165.796 29.6262C166.033 29.215 166.366 28.8667 166.765 28.6103Z" fill="#455A64"/>
<path d="M161.88 31.4226C162.629 30.9893 163.235 31.3359 163.235 32.2103C163.212 32.6833 163.078 33.1442 162.842 33.555C162.607 33.9658 162.277 34.3149 161.88 34.5735C161.093 35.0068 160.525 34.6523 160.525 33.7858C160.548 33.3127 160.682 32.8516 160.918 32.4407C161.153 32.0297 161.483 31.6808 161.88 31.4226Z" fill="#455A64"/>
<path d="M156.988 34.2742C157.736 33.841 158.343 34.1876 158.343 35.062C158.32 35.535 158.185 35.9958 157.95 36.4066C157.714 36.8174 157.384 37.1665 156.988 37.4252C156.2 37.8584 155.633 37.5039 155.633 36.6374C155.655 36.1643 155.789 35.7032 156.025 35.2923C156.261 34.8814 156.591 34.5324 156.988 34.2742Z" fill="#455A64"/>
<path opacity="0.5" d="M57.5601 100.074L55.8664 101.043L56.5124 99.8062C56.5372 99.7602 56.5502 99.7088 56.5502 99.6565C56.5502 99.6043 56.5372 99.5528 56.5124 99.5069C56.4572 99.4438 56.3706 99.5069 56.3154 99.5935L55.4017 101.358V101.421C55.3978 101.452 55.3978 101.484 55.4017 101.516C55.3974 101.539 55.3974 101.563 55.4017 101.586V101.626L56.3154 102.335C56.33 102.342 56.3462 102.346 56.3627 102.346C56.3792 102.346 56.3954 102.342 56.41 102.335C56.4534 102.298 56.4883 102.252 56.5124 102.201C56.5387 102.157 56.5527 102.107 56.5527 102.055C56.5527 102.004 56.5387 101.954 56.5124 101.909L55.8664 101.421L57.5601 100.444C57.6024 100.408 57.6363 100.364 57.6595 100.313C57.6826 100.263 57.6944 100.208 57.694 100.153C57.7334 100.082 57.631 100.027 57.5601 100.074Z" fill="#455A64"/>
<path opacity="0.5" d="M58.9699 99.2548L60.6635 98.278L60.0175 97.7817C59.9624 97.7423 59.9545 97.6084 60.0175 97.4981C60.0806 97.3878 60.1515 97.3248 60.2066 97.3642L61.1283 98.0732C61.1327 98.0993 61.1327 98.1259 61.1283 98.1519C61.132 98.1833 61.132 98.2151 61.1283 98.2465C61.1303 98.2674 61.1303 98.2885 61.1283 98.3095L60.2066 100.074C60.1863 100.115 60.1566 100.15 60.1199 100.176C60.1051 100.187 60.0872 100.193 60.0687 100.193C60.0503 100.193 60.0324 100.187 60.0175 100.176C59.9927 100.13 59.9797 100.079 59.9797 100.027C59.9797 99.9745 59.9927 99.9231 60.0175 99.8771L60.6635 98.6325L58.9699 99.6565C58.8911 99.7038 58.8359 99.6565 58.8359 99.5305C58.8362 99.4774 58.8484 99.4251 58.8716 99.3774C58.8947 99.3297 58.9283 99.2878 58.9699 99.2548Z" fill="#455A64"/>
<path opacity="0.5" d="M64.5156 94.3866C64.5156 94.2842 64.4132 94.2999 64.3738 94.3866L64.1374 94.9537C63.7436 94.9065 63.2631 95.2925 62.9401 95.9778C62.5226 96.868 62.5226 97.9156 62.9401 98.341C63.0449 98.4401 63.1813 98.4992 63.3254 98.5078C63.4694 98.5165 63.6119 98.4742 63.7278 98.3883C64.0758 98.1658 64.3499 97.845 64.5156 97.4666C64.5707 97.3485 64.5707 97.2146 64.5156 97.1673C64.4604 97.12 64.3738 97.1673 64.3265 97.2776C64.0114 97.9393 63.5388 98.2307 63.1922 97.9314C63.0338 97.6687 62.95 97.3677 62.95 97.0609C62.95 96.7542 63.0338 96.4532 63.1922 96.1905C63.4127 95.7179 63.7357 95.4028 63.9799 95.4028L63.8066 95.8281C63.7593 95.9384 63.8066 96.0487 63.8696 96.0014L64.5628 95.5524C64.5893 95.5288 64.6101 95.4996 64.6238 95.4669C64.6374 95.4341 64.6435 95.3988 64.6416 95.3634L64.5156 94.3866Z" fill="#455A64"/>
<path opacity="0.5" d="M82.6815 80.3097L83.3038 79.002C83.3391 78.941 83.3576 78.8717 83.3576 78.8012C83.3576 78.7306 83.3391 78.6614 83.3038 78.6003C83.225 78.5294 83.1069 78.6003 83.036 78.75L82.4215 80.0576L81.8071 79.4589C81.7283 79.3959 81.618 79.4589 81.5393 79.6165C81.504 79.6775 81.4854 79.7468 81.4854 79.8173C81.4854 79.8879 81.504 79.9572 81.5393 80.0182L82.1537 80.6169L81.5393 81.9167C81.5033 81.9789 81.4844 82.0496 81.4844 82.1215C81.4844 82.1934 81.5033 82.264 81.5393 82.3263C81.559 82.3398 81.5823 82.3471 81.6062 82.3471C81.6301 82.3471 81.6535 82.3398 81.6732 82.3263C81.7311 82.2834 81.7772 82.2265 81.8071 82.1609L82.4215 80.8611L83.036 81.4519C83.0447 81.4607 83.0552 81.4677 83.0667 81.4725C83.0782 81.4773 83.0905 81.4797 83.1029 81.4797C83.1154 81.4797 83.1277 81.4773 83.1392 81.4725C83.1507 81.4677 83.1611 81.4607 83.1699 81.4519C83.2295 81.4142 83.2762 81.3593 83.3038 81.2944C83.3397 81.2321 83.3587 81.1614 83.3587 81.0895C83.3587 81.0176 83.3397 80.947 83.3038 80.8847L82.6815 80.3097Z" fill="#455A64"/>
<path d="M66.7617 95.9936V93.8115C66.7797 93.4377 66.8862 93.0736 67.0725 92.749C67.2587 92.4244 67.5194 92.1487 67.833 91.9446L164.678 36.0624C165.268 35.7237 165.749 35.9994 165.749 36.6847V38.8667C165.731 39.2405 165.624 39.6047 165.438 39.9293C165.252 40.2538 164.991 40.5295 164.678 40.7337L67.833 96.6159C67.2422 96.9546 66.7617 96.6789 66.7617 95.9936Z" fill="#FAFAFA"/>
<path d="M164.079 37.2203L164.362 37.819C164.375 37.8286 164.39 37.8338 164.406 37.8338C164.421 37.8338 164.436 37.8286 164.449 37.819L165.087 37.5748C165.181 37.5748 165.229 37.6772 165.15 37.8111L164.693 38.6698C164.679 38.724 164.679 38.781 164.693 38.8352L164.803 39.6229C164.803 39.7411 164.709 39.9065 164.622 39.8986L164.055 39.8277C164.033 39.8267 164.01 39.832 163.991 39.8432C163.971 39.8543 163.955 39.8708 163.945 39.8908L163.378 40.6155C163.283 40.7258 163.181 40.6864 163.196 40.5446L163.307 39.6466C163.317 39.6272 163.322 39.6055 163.322 39.5835C163.322 39.5616 163.317 39.5399 163.307 39.5205L162.842 39.1897C162.771 39.1345 162.842 38.9455 162.913 38.8667L163.543 38.3862C163.589 38.3473 163.622 38.295 163.637 38.2365L163.921 37.3148C163.874 37.1967 164 37.1258 164.079 37.2203Z" stroke="#E0E0E0" stroke-width="0.75" stroke-miterlimit="10"/>
<g opacity="0.5">
<path d="M167.017 35.8024C166.952 35.8009 166.888 35.7827 166.831 35.7497C166.775 35.7166 166.728 35.6697 166.694 35.6134C166.646 35.5265 166.634 35.4241 166.66 35.3283C166.687 35.2324 166.75 35.1509 166.836 35.1014L169.861 33.3526C169.945 33.3183 170.039 33.3156 170.125 33.3448C170.211 33.374 170.284 33.4333 170.33 33.5118C170.376 33.5903 170.392 33.6827 170.375 33.7721C170.359 33.8614 170.31 33.9418 170.239 33.9985L167.23 35.7473C167.168 35.7894 167.092 35.8088 167.017 35.8024Z" fill="#455A64"/>
<path d="M167.017 37.5512C166.951 37.5497 166.887 37.5315 166.831 37.4984C166.774 37.4654 166.727 37.4185 166.694 37.3622C166.67 37.3197 166.655 37.2731 166.649 37.2248C166.643 37.1765 166.647 37.1275 166.66 37.0807C166.673 37.0339 166.696 36.9901 166.726 36.9519C166.756 36.9137 166.793 36.8818 166.836 36.858L169.861 35.1013C169.945 35.0671 170.039 35.0643 170.125 35.0936C170.211 35.1228 170.283 35.1821 170.329 35.2606C170.375 35.3391 170.391 35.4315 170.375 35.5208C170.358 35.6102 170.31 35.6906 170.239 35.7473L167.23 37.5039C167.164 37.5394 167.091 37.5558 167.017 37.5512Z" fill="#455A64"/>
<path d="M167.017 39.3C166.935 39.3 166.855 39.2729 166.791 39.2228C166.726 39.1728 166.679 39.1026 166.659 39.0233C166.638 38.9441 166.644 38.8602 166.676 38.7848C166.708 38.7094 166.764 38.6468 166.836 38.6068L169.861 36.858C169.903 36.8315 169.95 36.8139 169.999 36.8063C170.048 36.7987 170.098 36.8013 170.146 36.8139C170.194 36.8264 170.239 36.8487 170.278 36.8793C170.317 36.9099 170.349 36.9483 170.373 36.9919C170.422 37.0778 170.435 37.1795 170.41 37.2752C170.385 37.371 170.324 37.4531 170.239 37.5039L167.23 39.2527C167.165 39.2881 167.091 39.3045 167.017 39.3Z" fill="#455A64"/>
</g>
<path d="M81.2783 133.529C85.603 129.126 86.7137 127.125 86.7137 125.36C86.7137 123.596 85.9733 122.485 83.6731 123.785C82.0487 124.693 80.8316 126.186 80.27 127.96C80.1262 128.333 79.8998 128.668 79.6079 128.941C79.3159 129.214 78.966 129.417 78.5843 129.535L75.583 130.197C74.8661 130.363 74.3856 129.906 74.5589 129.189C75.8745 123.824 79.1908 118.869 83.8464 116.183C89.4393 112.954 92.7006 115.396 92.7006 120.847C92.7006 126.085 89.9435 130.457 87.1864 133.6C86.6728 134.259 86.3731 135.059 86.3277 135.893V137.673C86.3055 138.072 86.1898 138.46 85.99 138.806C85.7903 139.152 85.512 139.447 85.1776 139.666L81.491 141.793C80.853 142.163 80.3409 141.864 80.3409 141.131V135.759C80.3968 134.932 80.7267 134.148 81.2783 133.529Z" fill="#455A64"/>
<path d="M80.2697 149.182C80.2617 148.088 80.5386 147.011 81.0731 146.056C81.6076 145.102 82.3814 144.303 83.3182 143.738C85.2955 142.588 86.3274 143.605 86.3274 145.684C86.3436 146.778 86.0746 147.858 85.547 148.816C85.0194 149.775 84.2513 150.579 83.3182 151.151C81.2938 152.317 80.2697 151.261 80.2697 149.182Z" fill="#455A64"/>
<path d="M202.417 6.60877L199.526 4.92301C199.246 4.78823 198.934 4.73241 198.624 4.76156C198.315 4.79071 198.019 4.90372 197.769 5.08844L125.793 46.6338C125.074 47.1025 124.476 47.734 124.046 48.4771C123.616 49.2202 123.367 50.0541 123.32 50.9112V154.428C123.292 154.729 123.342 155.031 123.465 155.307C123.588 155.583 123.779 155.823 124.021 156.003L126.936 157.689L197.738 114.285C198.456 113.816 199.053 113.184 199.482 112.441C199.91 111.698 200.157 110.864 200.203 110.007L202.417 6.60877Z" fill="#92E3A9"/>
<path opacity="0.15" d="M126.889 157.689L124.013 156.027C123.771 155.848 123.579 155.608 123.457 155.331C123.336 155.055 123.288 154.752 123.32 154.452V50.9112C123.353 50.0034 123.624 49.1202 124.108 48.3511L127.054 50.029C126.568 50.7998 126.296 51.6862 126.266 52.597V156.122C126.232 156.414 126.27 156.71 126.379 156.984C126.488 157.258 126.663 157.5 126.889 157.689Z" fill="black"/>
<path d="M128.684 48.3274L200.66 6.77422C202.023 5.98648 203.126 6.62455 203.126 8.20003V111.717C203.08 112.573 202.833 113.407 202.404 114.15C201.976 114.893 201.378 115.525 200.66 115.994L128.684 157.547C127.322 158.335 126.211 157.697 126.211 156.122V52.597C126.26 51.7412 126.509 50.9089 126.939 50.1673C127.368 49.4256 127.966 48.7954 128.684 48.3274Z" fill="#92E3A9"/>
<path opacity="0.4" d="M199.525 4.92301L202.345 6.55363C202.072 6.45511 201.779 6.42372 201.491 6.4621C201.204 6.50049 200.929 6.60753 200.691 6.77419L128.716 48.3274C128.031 48.7502 127.46 49.3344 127.053 50.0289L124.131 48.351C124.537 47.652 125.108 47.0625 125.793 46.6338L197.729 5.12782C197.98 4.94356 198.276 4.83145 198.586 4.80368C198.895 4.7759 199.207 4.83352 199.486 4.97027L199.525 4.92301Z" fill="white"/>
<path d="M136.853 52.3921L194.492 19.1102C195.524 18.5115 196.359 18.9999 196.359 20.1894V108.739C196.324 109.387 196.137 110.018 195.812 110.581C195.488 111.143 195.036 111.621 194.492 111.977L136.853 145.196C135.821 145.786 134.979 145.306 134.979 144.116V55.6455C135.01 54.9932 135.196 54.3577 135.522 53.7918C135.848 53.226 136.305 52.7461 136.853 52.3921Z" fill="white"/>
<path d="M182.526 71.8887L183.109 71.4081C182.147 70.3647 180.897 69.63 179.517 69.297L179.328 70.0217C180.551 70.3241 181.662 70.9722 182.526 71.8887Z" fill="#37474F"/>
<path d="M183.81 74.8269L182.621 73.6611C182.339 73.3677 182.182 72.9768 182.182 72.5701C182.182 72.1634 182.339 71.7725 182.621 71.4791C182.914 71.1974 183.305 71.0402 183.712 71.0402C184.118 71.0402 184.509 71.1974 184.803 71.4791L185.984 72.6449C186.266 72.9383 186.423 73.3292 186.423 73.7359C186.423 74.1426 186.266 74.5336 185.984 74.8269C185.691 75.1063 185.302 75.2621 184.897 75.2621C184.492 75.2621 184.103 75.1063 183.81 74.8269Z" fill="#92E3A9"/>
<mask id="mask0_1196_1676" style="mask-type:luminance" maskUnits="userSpaceOnUse" x="134" y="18" width="63" height="128">
<path d="M136.853 52.3921L194.492 19.1102C195.524 18.5115 196.359 18.9999 196.359 20.1894V108.739C196.324 109.387 196.137 110.018 195.812 110.581C195.488 111.143 195.036 111.621 194.492 111.977L136.853 145.196C135.821 145.786 134.979 145.306 134.979 144.116V55.6455C135.01 54.9932 135.196 54.3577 135.522 53.7918C135.848 53.226 136.305 52.7461 136.853 52.3921Z" fill="white"/>
</mask>
<g mask="url(#mask0_1196_1676)">
<path d="M194.295 101.752L196.957 106.305C196.957 106.305 214.398 97.057 215.383 95.8438C216.367 94.6307 216.304 92.1809 216.454 90.8575C216.698 88.6518 215.887 86.7533 215.769 85.9577C215.572 84.5713 217.565 84.4925 218.549 86.4225C219.274 87.8247 219.337 89.4316 219.952 89.4474C220.831 88.8294 221.652 88.1306 222.401 87.3599C223.481 86.1783 225.434 84.2089 226.915 84.4768C227.167 84.5352 227.395 84.6678 227.571 84.8574C227.746 85.047 227.861 85.2848 227.9 85.5402C227.942 86.3544 228.129 87.1546 228.451 87.9034C228.692 88.1876 228.888 88.5063 229.034 88.8487C229.081 89.357 229.081 89.8686 229.034 90.3769C229.097 91.1095 229.822 91.4167 229.901 92.1336C229.878 92.6859 229.817 93.236 229.72 93.78C229.72 94.1344 229.83 94.4417 229.83 94.7961C229.754 95.5239 229.438 96.2058 228.932 96.734C227.457 98.4529 225.708 99.9167 223.756 101.067C222.181 102.106 220.07 103.028 218.242 104.005C216.415 104.982 195.886 120.752 193.153 118.893C192.034 118.105 189.088 114.348 185.992 110.141" fill="#FFA8A7"/>
<path d="M185.346 110.685C182.199 106.304 179.306 101.746 176.681 97.0333C173.53 88.2106 177.098 82.3341 177.098 82.3341C177.098 82.3341 181.628 80.9319 185.401 86.8872C187.063 89.5104 191.411 96.8836 194.263 101.752" fill="#FFA8A7"/>
<path d="M169.174 82.468C169.174 82.468 174.168 80.4435 177.406 80.6562C180.643 80.8689 183.038 81.7827 185.417 85.6032C188.568 90.6999 193.838 99.5068 193.838 99.5068C191.611 104.086 188.056 107.888 183.637 110.417L173.963 95.8281L169.174 82.468Z" fill="#455A64"/>
<path d="M153.325 91.2907C151.659 92.6322 150.43 94.4394 149.796 96.4819C149.057 98.9499 148.696 101.515 148.724 104.091V120.673L148.512 152.057C159.036 155.641 172.412 152.482 183.637 140.004C183.637 140.004 183.015 99.8298 183.015 93.2679C183.015 92.9686 183.015 92.6692 183.015 92.362C182.605 83.0588 174.578 78.742 166.669 83.2164L160.021 86.966L153.348 91.2907H153.325Z" fill="#F0F0F0"/>
<path d="M156.987 53.1169C156.987 53.1169 151.827 52.7151 150.685 57.5046C149.637 61.7741 157.42 78.6317 157.247 78.3481C157.074 78.0646 156.987 53.1169 156.987 53.1169Z" fill="#263238"/>
<path d="M175.208 43.475C175.208 43.475 173.294 38.3231 163.999 41.9861C159.272 43.8531 157.5 49.706 157.5 49.706L175.208 43.475Z" fill="#92E3A9"/>
<path opacity="0.4" d="M175.208 43.475C175.208 43.475 173.294 38.3231 163.999 41.9861C159.272 43.8531 157.5 49.706 157.5 49.706L175.208 43.475Z" fill="black"/>
<path d="M160.533 57.158C160.533 64.2476 165.496 68.6432 171.625 66.9968C177.753 65.3505 182.716 58.3317 182.716 51.2421C182.716 44.1524 177.43 44.1524 171.302 45.8067C165.173 47.4609 160.533 50.0841 160.533 57.158Z" fill="#263238"/>
<path d="M154.742 68.3596C154.742 68.3596 156.373 76.7884 157.027 78.0724C157.224 78.4444 157.511 78.7611 157.862 78.9937C158.212 79.2262 158.616 79.3672 159.035 79.4037L158.925 73.1963L154.742 68.3596Z" fill="#263238"/>
<path d="M156.791 55.1099C156.145 55.2146 155.529 55.4574 154.985 55.8217C154.441 56.186 153.983 56.6633 153.64 57.221C152.301 59.1667 153.049 63.9404 154.727 68.3596L157.799 67.9421L156.791 55.1099Z" fill="#263238"/>
<path d="M158.744 67.6979C158.122 68.2887 157.247 67.1544 156.483 66.4376C155.719 65.7207 153.238 65.1299 151.993 68.4778C150.749 71.8257 153.088 75.3233 155.05 75.5123C158.421 75.8274 158.925 73.1964 158.925 73.1964L159.036 87.5883C164.699 93.5909 174.609 86.517 170.151 83.8623V79.5849C171.698 79.4516 173.224 79.1343 174.696 78.6396C177.177 77.5289 178.737 74.8585 179.493 71.55C180.698 66.2485 181.155 62.0971 180.131 52.5891C179.013 42.1594 168.197 44.948 162.36 50.7537C156.523 56.5593 158.744 67.6979 158.744 67.6979Z" fill="#FFA8A7"/>
<path d="M158.745 68.9347C158.43 69.0292 157.249 67.0835 156.484 66.4769C155.421 65.6419 156.792 55.1492 156.792 55.1492C155.563 52.4394 157.831 48.351 160.203 46.6889C161.906 45.5952 163.829 44.888 165.835 44.6172C167.536 44.3126 169.233 44.0789 170.924 43.9161C172.991 43.8079 175.049 43.5605 177.084 43.1756C178.676 42.7978 180.22 42.2374 181.684 41.5056C182.976 40.9148 184.047 42.2461 182.905 44.4596C181.883 46.4728 180.462 48.2575 178.73 49.7059C173.704 53.4792 167.867 54.3851 162.786 54.9444C161.644 55.0704 161.392 56.4175 160.778 60.0805C160.234 63.2629 159.785 68.5959 158.745 68.9347Z" fill="#263238"/>
<path d="M152.923 55.1965L149.189 53.881C149.717 52.5025 150.985 51.6832 152.01 52.0456C153.034 52.4079 153.451 53.818 152.923 55.1965Z" fill="#263238"/>
<path d="M170.142 79.5849C170.142 79.5849 164.628 79.7818 162.674 79.1122C161.507 78.7052 160.545 77.8568 159.996 76.749C160.263 77.9135 160.782 79.0053 161.516 79.9472C162.934 81.6566 170.142 81.2628 170.142 81.2628V79.5849Z" fill="#F28F8F"/>
<path d="M168.804 63.4205C168.799 63.7634 168.691 64.0971 168.495 64.378C168.298 64.659 168.021 64.8743 167.701 64.996C167.094 65.1535 166.598 64.6887 166.598 63.9561C166.593 63.6052 166.696 63.2611 166.893 62.9708C167.091 62.6805 167.372 62.4579 167.701 62.3334C168.315 62.1995 168.804 62.6327 168.804 63.4205Z" fill="#263238"/>
<path d="M167.031 58.5759L164.667 60.7264C164.502 60.3242 164.466 59.8802 164.564 59.4565C164.663 59.0328 164.892 58.6505 165.219 58.3632C165.336 58.2255 165.485 58.1187 165.653 58.0525C165.821 57.9863 166.002 57.9627 166.182 57.9837C166.361 58.0048 166.532 58.0699 166.681 58.1732C166.829 58.2765 166.949 58.4149 167.031 58.5759Z" fill="#263238"/>
<path d="M169.647 72.0305L172.175 72.448C172.103 72.8499 171.891 73.2133 171.577 73.4741C171.262 73.735 170.866 73.8765 170.458 73.8738C169.757 73.7635 169.394 72.9364 169.647 72.0305Z" fill="#F28F8F"/>
<path d="M178.989 56.4963L176.822 55.1492C177.271 54.3615 178.106 53.944 178.705 54.3142C179.009 54.5818 179.205 54.9506 179.257 55.3519C179.309 55.7533 179.214 56.16 178.989 56.4963Z" fill="#263238"/>
<path d="M178.044 60.561C178.05 60.9142 177.946 61.2607 177.748 61.5527C177.549 61.8447 177.264 62.0679 176.933 62.1916C176.319 62.3492 175.822 61.8844 175.822 61.1518C175.817 60.7996 175.921 60.4544 176.12 60.1637C176.319 59.873 176.603 59.6513 176.933 59.529C177.548 59.3636 178.044 59.8284 178.044 60.561Z" fill="#263238"/>
<path d="M172.561 61.0021L172.687 68.7377L176.665 66.6581L172.561 61.0021Z" fill="#F28F8F"/>
<path d="M136.657 138.256C139.761 106.352 144.778 95.0167 152.64 91.8421C155.279 93.906 155.704 103.319 152.719 110.385C152.719 110.385 146.149 131.544 145.629 138.744C145.298 145.478 145.548 152.227 146.378 158.918C146.42 159.32 146.546 159.709 146.748 160.059C146.95 160.409 147.224 160.713 147.551 160.95C149.229 162.101 149.079 163.707 150.261 165.259C151.191 166.472 152.073 166.709 151.837 167.15C151.64 167.591 151.298 167.952 150.869 168.173C150.439 168.393 149.947 168.461 149.473 168.363C148.72 168.102 148.022 167.701 147.417 167.181C147.862 168.88 148.563 170.5 149.497 171.987C151.624 175.429 151.466 177.706 146.251 178.344C142.982 178.745 140.659 176.666 139.217 168.465C138.807 166.102 137.799 161.848 137.413 158.792C136.294 150.072 136.153 143.392 136.657 138.256Z" fill="#FFA8A7"/>
<path d="M154.892 90.3297C154.892 90.3297 149.173 92.173 146.227 96.7497C143.281 101.326 140.335 108.731 138.098 121.957C138.098 121.957 141.564 126.952 151.024 123.1C151.024 123.1 155.507 106.273 156.034 99.5856C156.578 92.2911 154.892 90.3297 154.892 90.3297Z" fill="#455A64"/>
<path d="M160.21 43.727C154.861 47.0749 152.553 51.1396 152.419 56.0394C152.373 59.4051 152.507 62.771 152.821 66.1224C151.814 66.8478 150.983 67.7913 150.391 68.8824C149.799 69.9736 149.461 71.1843 149.402 72.4243C149.402 75.7407 152.089 77.71 155.405 76.8199C157.069 76.3273 158.54 75.3312 159.615 73.9685C160.69 72.6058 161.316 70.9436 161.407 69.2104C161.475 68.1345 161.139 67.072 160.464 66.2311C159.79 65.3903 158.825 64.8318 157.76 64.6651C157.09 59.9852 157.104 55.2328 157.8 50.5567C158.989 43.467 172.239 39.3787 175.209 43.467C174.319 39.938 167.646 39.04 160.21 43.727Z" fill="#92E3A9"/>
<path opacity="0.15" d="M160.21 43.727C154.861 47.0749 152.553 51.1396 152.419 56.0394C152.373 59.4051 152.507 62.771 152.821 66.1224C151.814 66.8478 150.983 67.7913 150.391 68.8824C149.799 69.9736 149.461 71.1843 149.402 72.4243C149.402 75.7407 152.089 77.71 155.405 76.8199C157.069 76.3273 158.54 75.3312 159.615 73.9685C160.69 72.6058 161.316 70.9436 161.407 69.2104C161.475 68.1345 161.139 67.072 160.464 66.2311C159.79 65.3903 158.825 64.8318 157.76 64.6651C157.09 59.9852 157.104 55.2328 157.8 50.5567C158.989 43.467 172.239 39.3787 175.209 43.467C174.319 39.938 167.646 39.04 160.21 43.727Z" fill="black"/>
<path d="M158.281 70.0454C158.298 69.6928 158.227 69.3416 158.075 69.0231C157.923 68.7046 157.694 68.4288 157.409 68.2204C157.124 68.012 156.792 67.8775 156.442 67.829C156.093 67.7804 155.737 67.8193 155.406 67.9421C154.608 68.1786 153.904 68.6561 153.389 69.3092C152.874 69.9623 152.574 70.7588 152.531 71.5893C152.519 71.9402 152.593 72.2887 152.748 72.6038C152.903 72.9189 153.133 73.191 153.418 73.3958C153.703 73.6007 154.035 73.7321 154.383 73.7784C154.731 73.8247 155.085 73.7844 155.414 73.6611C156.205 73.4261 156.905 72.9529 157.418 72.306C157.931 71.659 158.233 70.8697 158.281 70.0454Z" fill="#92E3A9"/>
</g>
<path d="M112.922 120.658C112.792 120.784 112.674 120.921 112.567 121.067C112.378 121.3 112.236 121.568 112.15 121.855C112.093 122.021 112.093 122.201 112.15 122.367C112.171 122.484 112.229 122.592 112.315 122.674C112.357 122.722 112.404 122.765 112.457 122.8L109.566 121.13C109.45 121.066 109.355 120.97 109.29 120.855C109.244 120.745 109.221 120.627 109.221 120.508C109.221 120.389 109.244 120.271 109.29 120.161C109.353 119.966 109.443 119.78 109.558 119.61C109.708 119.386 109.876 119.175 110.062 118.98L112.922 120.658Z" fill="#92E3A9"/>
<path d="M112.945 120.626C111.44 122.202 111.968 123.265 114.126 122.989L126.21 121.595V106.841L112.945 120.626Z" fill="#92E3A9"/>
<path d="M112.946 120.626C111.993 121.619 111.859 122.406 112.426 122.792L109.535 121.122C108.928 120.744 109.062 119.941 110.023 118.932L123.297 105.171L126.219 106.864L112.946 120.626Z" fill="#92E3A9"/>
<path opacity="0.15" d="M112.922 120.658C112.792 120.784 112.674 120.921 112.567 121.067C112.384 121.304 112.243 121.571 112.15 121.855C112.103 122.023 112.103 122.199 112.15 122.367C112.173 122.484 112.23 122.591 112.315 122.674C112.357 122.722 112.404 122.765 112.457 122.8L109.566 121.13C109.45 121.066 109.355 120.97 109.29 120.855C109.244 120.745 109.221 120.627 109.221 120.508C109.221 120.389 109.244 120.271 109.29 120.161C109.357 119.967 109.447 119.782 109.558 119.61C109.708 119.386 109.876 119.175 110.062 118.98L112.922 120.658Z" fill="black"/>
<path opacity="0.4" d="M126.219 106.841L112.946 120.626L110.016 118.932L123.297 105.171L126.219 106.841Z" fill="white"/>
<path d="M194.296 101.752L196.959 106.305C196.959 106.305 214.399 97.0569 215.384 95.8438C216.369 94.6307 216.306 92.1808 216.455 90.8574C216.7 88.6518 215.888 86.7533 215.77 85.9577C215.534 84.2641 217.968 84.6579 218.74 85.3275C219.247 85.8673 219.669 86.4809 219.992 87.1472C220.371 87.7774 221.079 89.8334 221.804 89.9594C222.371 90.0618 223.498 89.2583 223.963 88.9117C225.877 87.4623 227.058 85.4535 228.531 83.6181C228.794 83.2232 229.159 82.9073 229.587 82.7043C229.963 82.6295 230.352 82.6409 230.723 82.7378C231.094 82.8347 231.438 83.0145 231.73 83.2636C232.351 83.6107 232.888 84.0892 233.305 84.6658C233.56 85.0978 233.741 85.5689 233.841 86.0601C234.629 89.4001 232.911 92.2202 230.887 94.7252C228.855 97.189 226.446 99.3159 223.75 101.027C222.174 102.067 220.063 102.989 218.236 103.965C216.408 104.942 196.825 121.351 194.084 119.492C190.807 116.942 187.87 113.982 185.348 110.685" fill="#FFA8A7"/>
<path d="M322.949 73.2909C329.251 73.2909 332.56 75.1815 335.175 81.0029C337.68 86.5722 345.455 102.729 345.069 106.644C344.683 110.559 328.715 127.227 328.715 127.227L324.154 121.713L334.048 105.092L324.304 90.9914L322.949 73.2909Z" fill="#FFA8A7"/>
<path d="M307.652 244.726C307.652 244.726 308.361 246.877 308.747 248.768C309.054 250.264 309.487 252.761 308.96 253.888C308.432 255.014 306.392 255.739 303.225 255.715C301.169 255.715 297.971 257.094 295.781 258.323C293.591 259.552 288.809 260.087 286.415 259.804C283.594 259.473 280.672 257.834 280.215 256.653C279.758 255.471 279.372 253.888 287.013 251.438C287.076 251.438 296.253 248.429 299.467 244.876L307.652 244.726Z" fill="#263238"/>
<path d="M307.652 244.939L306.194 244.758L299.467 244.892C296.253 248.445 287.076 251.438 287.013 251.454L285.792 251.863C284.461 252.935 285.587 254.754 288.738 255.014C291.889 255.274 301.712 251.989 303.886 250.942C305.027 250.412 305.989 249.563 306.658 248.498C307.326 247.433 307.671 246.196 307.652 244.939Z" fill="#FFA8A7"/>
<path d="M307.651 242.048C307.651 242.048 307.651 243.884 307.651 244.939C307.651 245.995 306.422 247.554 303.208 247.436C300.955 247.357 299.38 246.751 299.466 244.892V242.237L307.651 242.048Z" fill="#FFA8A7"/>
<path d="M329.22 232.65C329.795 232.887 329.913 234.005 329.936 236.219C329.936 237.889 330.244 240.819 328.266 241.355C326.289 241.891 323.43 241.505 322.217 239.898C320.704 237.889 319.688 236.124 317.49 233.659C315.607 231.524 313.551 229.523 312.858 226.569C312.22 223.907 312.858 222.78 314.662 222.055C316.466 221.331 318.128 221.929 320.649 224.033C321.352 224.509 322.105 224.908 322.894 225.222C324.572 225.75 328.637 232.414 329.22 232.65Z" fill="#263238"/>
<path d="M329.275 230.602L329.196 233.32C329.196 233.32 327.384 236.873 322.335 233.32C322.224 233.052 321.768 227.806 321.768 227.806L329.275 230.602Z" fill="#FFA8A7"/>
<path d="M322.917 225.238C322.128 224.923 321.376 224.525 320.672 224.048C318.64 223.394 314.37 224.151 316.285 227.113C317.889 229.547 319.942 231.654 322.335 233.32C324.619 234.446 325.415 233.052 325.415 233.052L324.627 226.679C324.173 226.077 323.588 225.584 322.917 225.238Z" fill="#FFA8A7"/>
<path d="M332.961 193.043C331.952 184.134 330.022 178.99 330.022 178.99C330.022 178.99 331.732 167 333.071 155.507C336.222 128.511 334.127 128.078 330.314 118.688C330.314 118.688 295.709 114.238 294.259 128.63C292.455 146.551 293.274 181.306 293.574 187.663C293.873 194.02 294.362 196.895 296.284 210.208C297.717 220.346 299.08 242.505 299.08 242.505C303.617 245.12 307.982 242.048 307.982 242.048C307.982 242.048 312.322 214.8 312.22 207.466C312.131 202.038 311.337 196.644 309.856 191.42C309.856 191.42 312.802 162.211 313.551 157.547C313.551 157.547 314.386 166.866 314.693 173.223C315 179.581 316.718 185.685 318.238 197.525C319.553 207.766 321.743 229.216 321.743 229.216C326.281 231.831 329.447 230.65 329.447 230.65C329.447 230.65 333.961 201.944 332.961 193.043Z" fill="#92E3A9"/>
<path d="M308.305 67.4616L309.573 80.9162L321.389 80.1678L320.444 65.248L308.305 67.4616Z" fill="#FFA8A7"/>
<path d="M332.007 79.002C330.802 75.4414 328.36 73.3539 322.948 73.2909L320.955 73.3539C320.577 75.339 314.756 76.946 309.005 74.9294C308.218 75.1421 305.973 75.5517 304.72 75.7171L301.963 76.1189C297.78 77.4895 295.929 84.784 295.527 96.2929C295.126 107.802 293.4 132.482 293.4 132.482C293.4 132.482 302.404 137.303 316.615 135.436C329.337 133.766 334.284 126.243 333.843 127.204C332.351 120.82 330.148 114.623 327.273 108.731C333.969 92.2596 333.788 84.2877 332.007 79.002Z" fill="#455A64"/>
<path d="M309.572 135.845C311.927 135.87 314.28 135.728 316.615 135.42C328.21 133.899 333.346 127.542 333.827 127.125C332.337 120.763 330.138 114.588 327.273 108.715C330.66 100.397 332.283 94.2526 332.834 89.5183C332.283 92.9686 327.186 106.329 320.514 110.338C320.514 110.338 324.279 110.921 327.501 115.348C330.723 119.775 328.076 134.892 309.572 135.845Z" fill="#37474F"/>
<path d="M304.721 75.7014C299.167 76.4024 294.386 77.395 292.361 82.8462C289.691 90.2696 285.594 97.0989 280.301 102.949C276.85 106.644 262.687 113.718 259.497 113.19C256.306 112.662 253.431 108.117 251.793 109.062C250.154 110.007 253.746 113.253 253.549 114.056C253.352 114.86 247.602 113.19 244.884 111.26C242.166 109.33 240.551 114.868 244.096 119.011C247.641 123.155 254.274 123.478 261.49 122.036C268.705 120.595 281.892 116.309 287.13 111.425C294 105.005 295.252 101.516 298.23 95.9856C307.714 88.6281 304.721 75.7014 304.721 75.7014Z" fill="#FFA8A7"/>
<path d="M302.121 50.7537C302.121 50.7537 297.662 45.4364 301.16 40.2531C305.287 34.1403 312.55 32.0764 321.53 34.7389C325.973 36.0545 332.504 42.1988 332.835 50.8167C333.087 57.4573 314.464 61.845 314.764 66.3982L302.121 50.7537Z" fill="#263238"/>
<path d="M299.569 52.6994C299.569 52.6994 296.953 56.6381 297.292 57.0792C297.906 57.4816 298.586 57.7723 299.301 57.9379L299.569 52.6994Z" fill="#F28F8F"/>
<path d="M307.533 40.1665C304.989 41.482 300.593 43.9082 299.459 53.2823C298.301 62.9006 300.443 66.2406 301.751 67.501C302.641 68.3518 307.21 68.659 309.628 67.9185C312.614 66.9969 319.081 63.8065 322.098 58.8438C325.659 52.9987 326.392 45.2159 322.28 42.1595C316.458 37.8663 309.684 39.0558 307.533 40.1665Z" fill="#FFA8A7"/>
<path d="M306.785 40.5761C306.785 40.5761 304.563 49.3515 307.218 54.8972C307.218 54.8972 308.793 51.4705 311.716 52.4552C314.638 53.4399 314.41 57.3943 312.078 59.4109C311.483 59.9912 310.736 60.391 309.923 60.5639C309.11 60.7368 308.265 60.6757 307.486 60.3877C307.486 60.3877 307.564 65.2481 311.716 67.1702C311.716 67.1702 320.381 71.3215 328.258 62.94C335.348 55.3304 334.458 41.6711 323.973 38.2129C313.488 34.7547 306.785 40.5761 306.785 40.5761Z" fill="#263238"/>
<path d="M342.059 77.5998C340.406 77.5998 338.769 77.2735 337.242 76.6395C335.716 76.0055 334.33 75.0764 333.163 73.9054C331.996 72.7344 331.073 71.3446 330.444 69.8157C329.816 68.2868 329.496 66.6489 329.502 64.996V48.8946C332.83 48.8946 336.022 50.2167 338.375 52.57C340.729 54.9234 342.051 58.1152 342.051 61.4433L342.059 77.5998Z" fill="#263238"/>
<path d="M300.026 36.6374C296.127 40.5761 295.906 52.085 307.218 54.9051L314.631 34.5893C310.314 31.7771 303.508 33.0768 300.026 36.6374Z" fill="#263238"/>
<path d="M306.083 58.0324C305.799 57.9382 305.537 57.7882 305.313 57.5913C305.088 57.3943 304.905 57.1544 304.775 56.8856C304.645 56.6169 304.569 56.3248 304.554 56.0265C304.538 55.7282 304.582 55.4298 304.684 55.1489C304.786 54.868 304.942 54.6102 305.145 54.3909C305.348 54.1715 305.592 53.995 305.864 53.8717C306.136 53.7483 306.43 53.6808 306.729 53.6729C307.028 53.665 307.325 53.717 307.603 53.8258L306.083 58.0324Z" fill="#263238"/>
<path opacity="0.1" d="M313.566 157.563L315.449 145.519C319.241 145.065 322.89 143.796 326.147 141.801C326.147 141.801 323.783 145.353 317.56 146.834L315.638 160.785L314.85 175.398L313.566 157.563Z" fill="black"/>
</svg>
