<svg width="29" height="29" viewBox="0 0 29 29" fill="none" xmlns="http://www.w3.org/2000/svg">
<path d="M14.1343 0.078125C6.40223 0.078125 0.134766 6.34678 0.134766 14.0776C0.134766 21.8097 6.40223 28.0772 14.1343 28.0772C21.8652 28.0772 28.1338 21.8085 28.1338 14.0776C28.1338 6.34678 21.8652 0.078125 14.1343 0.078125ZM10.7047 17.8369C10.7047 18.5935 10.0916 19.2055 9.33615 19.2055C8.57954 19.2055 7.96762 18.5935 7.96762 17.8369V12.0023C7.96762 11.2457 8.57954 10.6326 9.33615 10.6326C10.0916 10.6326 10.7047 11.2457 10.7047 12.0023V17.8369ZM20.3721 17.7385C20.3721 18.8082 19.7471 19.1912 18.6775 19.1912H13.756C12.6863 19.1912 11.8194 18.3243 11.8194 17.2547V12.4138C11.8194 12.4138 11.7234 11.6086 12.6152 10.852C13.1192 10.4239 13.8675 9.60681 14.3904 8.6154C15.4293 6.64563 16.0507 6.07165 16.5239 6.22582C18.2766 6.79386 17.4002 9.39217 16.8346 10.4773H18.4355C19.504 10.4773 20.3721 11.3442 20.3721 12.4138V17.7385Z" fill="#1E9D42"/>
</svg>
