<svg width="25" height="25" viewBox="0 0 25 25" fill="none" xmlns="http://www.w3.org/2000/svg">
<g clip-path="url(#clip0_1850_4790)">
<mask id="mask0_1850_4790" style="mask-type:luminance" maskUnits="userSpaceOnUse" x="0" y="0" width="25" height="25">
<path d="M12.5996 22.0306C13.9131 22.0323 15.2139 21.7745 16.4274 21.2718C17.6409 20.7691 18.7431 20.0316 19.6706 19.1016C20.6006 18.1741 21.3381 17.0719 21.8408 15.8585C22.3434 14.645 22.6013 13.3441 22.5996 12.0306C22.6013 10.7172 22.3434 9.41634 21.8407 8.20286C21.3381 6.98939 20.6006 5.8872 19.6706 4.95965C18.7431 4.02966 17.6409 3.29215 16.4274 2.78949C15.2139 2.28683 13.9131 2.02895 12.5996 2.03065C11.2862 2.02897 9.98531 2.28687 8.77183 2.78953C7.55835 3.29218 6.45617 4.02968 5.52862 4.95965C4.59865 5.8872 3.86115 6.98939 3.3585 8.20286C2.85584 9.41634 2.59794 10.7172 2.59962 12.0306C2.59792 13.3441 2.8558 14.645 3.35846 15.8585C3.86112 17.0719 4.59863 18.1741 5.52862 19.1016C6.45617 20.0316 7.55835 20.7691 8.77183 21.2718C9.98531 21.7744 11.2862 22.0323 12.5996 22.0306Z" fill="white" stroke="white" stroke-width="4" stroke-linejoin="round"/>
<path d="M8.59961 12.0306L11.5996 15.0306L17.5996 9.03064" stroke="black" stroke-width="4" stroke-linecap="round" stroke-linejoin="round"/>
</mask>
<g mask="url(#mask0_1850_4790)">
<path d="M0.599609 0.0306396H24.5996V24.0306H0.599609V0.0306396Z" fill="#0FA958"/>
</g>
</g>
<defs>
<clipPath id="clip0_1850_4790">
<rect width="24" height="24" fill="white" transform="translate(0.599609 0.0306396)"/>
</clipPath>
</defs>
</svg>
