<svg width="37" height="37" viewBox="0 0 37 37" fill="none" xmlns="http://www.w3.org/2000/svg">
<rect x="0.640625" y="0.680908" width="35.9649" height="35.965" rx="17.9825" fill="#5ED680"/>
<path d="M26.3864 21.9407C25.8501 23.2088 25.0114 24.3263 23.9434 25.1954C22.8755 26.0646 21.611 26.6589 20.2603 26.9264C18.9097 27.1939 17.514 27.1264 16.1955 26.73C14.8769 26.3335 13.6755 25.6201 12.6964 24.6521C11.7172 23.684 10.9901 22.4909 10.5786 21.1769C10.1671 19.863 10.0837 18.4683 10.3358 17.1146C10.5879 15.761 11.1677 14.4898 12.0246 13.412C12.8815 12.3343 13.9893 11.4828 15.2513 10.9321" stroke="white" stroke-width="1.68585" stroke-linecap="round" stroke-linejoin="round"/>
<path d="M27.0523 18.6624C27.0523 17.5554 26.8343 16.4593 26.4107 15.4366C25.9871 14.414 25.3662 13.4847 24.5835 12.702C23.8007 11.9193 22.8715 11.2984 21.8488 10.8748C20.8261 10.4512 19.73 10.2332 18.623 10.2332V18.6624H27.0523Z" stroke="white" stroke-width="1.68585" stroke-linecap="round" stroke-linejoin="round"/>
</svg>
