<svg width="368" height="275" viewBox="0 0 368 275" fill="none" xmlns="http://www.w3.org/2000/svg">
<path d="M368 240.966H0V241.15H368V240.966Z" fill="#EBEBEB"/>
<path d="M331.126 252.809H306.75V252.993H331.126V252.809Z" fill="#EBEBEB"/>
<path d="M243.779 254.811H237.383V254.995H243.779V254.811Z" fill="#EBEBEB"/>
<path d="M306.014 245.979H291.891V246.163H306.014V245.979Z" fill="#EBEBEB"/>
<path d="M70.3992 247.215H38.6113V247.399H70.3992V247.215Z" fill="#EBEBEB"/>
<path d="M81.6159 247.215H76.957V247.399H81.6159V247.215Z" fill="#EBEBEB"/>
<path d="M165.71 250.321H96.7617V250.505H165.71V250.321Z" fill="#EBEBEB"/>
<path d="M174.432 208.141H32.3182C31.2049 208.139 30.1379 207.695 29.3513 206.907C28.5648 206.119 28.123 205.052 28.123 203.938V4.16576C28.1327 3.05883 28.5788 2.00043 29.3643 1.22045C30.1498 0.440465 31.2113 0.00189622 32.3182 0H174.432C175.547 0 176.616 0.442769 177.404 1.2309C178.192 2.01903 178.635 3.08797 178.635 4.20256V203.938C178.635 205.053 178.192 206.122 177.404 206.91C176.616 207.698 175.547 208.141 174.432 208.141ZM32.3182 0.147201C31.2537 0.14915 30.2335 0.573392 29.4815 1.32681C28.7294 2.08022 28.307 3.10125 28.307 4.16576V203.938C28.307 205.003 28.7294 206.024 29.4815 206.777C30.2335 207.531 31.2537 207.955 32.3182 207.957H174.432C175.498 207.955 176.519 207.531 177.272 206.778C178.025 206.024 178.449 205.003 178.451 203.938V4.16576C178.449 3.10057 178.025 2.07956 177.272 1.32636C176.519 0.573153 175.498 0.149146 174.432 0.147201H32.3182Z" fill="#EBEBEB"/>
<path d="M333.637 208.141H191.515C190.401 208.139 189.333 207.695 188.546 206.908C187.758 206.12 187.314 205.052 187.312 203.938V4.16576C187.324 3.05816 187.772 1.99977 188.558 1.21999C189.345 0.440208 190.407 0.00187554 191.515 0H333.637C334.742 0.00383051 335.802 0.443255 336.586 1.22303C337.37 2.00281 337.815 3.06011 337.825 4.16576V203.938C337.825 205.05 337.384 206.117 336.599 206.905C335.814 207.692 334.749 208.137 333.637 208.141ZM191.515 0.147201C190.45 0.149146 189.429 0.573153 188.676 1.32636C187.922 2.07956 187.498 3.10057 187.497 4.16576V203.938C187.498 205.003 187.922 206.024 188.676 206.778C189.429 207.531 190.45 207.955 191.515 207.957H333.637C334.702 207.955 335.723 207.531 336.476 206.778C337.229 206.024 337.653 205.003 337.655 203.938V4.16576C337.653 3.10057 337.229 2.07956 336.476 1.32636C335.723 0.573153 334.702 0.149146 333.637 0.147201H191.515Z" fill="#EBEBEB"/>
<path d="M278.407 194.782V205.234L282.823 208.443H262.215L268.795 205.999V195.511L278.407 194.782Z" fill="#E0E0E0"/>
<path d="M222.816 208.141V241.062H314.816V208.141H222.816ZM224.472 210.275H296.483V221.036H224.48L224.472 210.275Z" fill="#E0E0E0"/>
<path d="M222.816 208.141V241.062H298.698V208.141H222.816ZM224.472 210.275H296.483V221.036H224.48L224.472 210.275Z" fill="#EBEBEB"/>
<path d="M224.473 221.036H239.311V210.275H224.473V221.036Z" fill="#E0E0E0"/>
<path d="M278.119 221.036H296.482V215.655H278.119V221.036Z" fill="#E0E0E0"/>
<path d="M262.944 221.036H276.766V217.841H262.944V221.036Z" fill="#E0E0E0"/>
<path d="M246.583 221.036H259.75V214.5H246.583V221.036Z" fill="#E0E0E0"/>
<path d="M283.433 223.376L283.823 224.664H289.108L289.505 223.376H296.482V237.662H273.32V223.376H283.433Z" fill="#E0E0E0"/>
<path d="M255.907 223.376L256.304 224.664H261.589L261.986 223.376H272.092V237.662H248.93V223.376H255.907Z" fill="#E0E0E0"/>
<path d="M234.652 223.376L235.042 224.664H240.326L240.724 223.376H247.701V237.662H224.539V223.376H234.652Z" fill="#E0E0E0"/>
<path d="M236.27 201.031H304.711C306.145 201.031 307.309 199.868 307.309 198.433V159.138C307.309 157.703 306.145 156.54 304.711 156.54H236.27C234.835 156.54 233.672 157.703 233.672 159.138V198.433C233.672 199.868 234.835 201.031 236.27 201.031Z" fill="#E0E0E0"/>
<path d="M234.541 201.031H302.982C304.417 201.031 305.58 199.868 305.58 198.433V159.138C305.58 157.703 304.417 156.54 302.982 156.54H234.541C233.106 156.54 231.943 157.703 231.943 159.138V198.433C231.943 199.868 233.106 201.031 234.541 201.031Z" fill="#E6E6E6"/>
<path d="M303.416 198.867V158.696H234.107V198.867H303.416Z" fill="#F0F0F0"/>
<path d="M140.679 38.743H53.3672V128.962H140.679V38.743Z" fill="#EBEBEB"/>
<path d="M143.734 38.743H56.4219V128.962H143.734V38.743Z" fill="#F0F0F0"/>
<path d="M141.423 40.8848H58.623V126.872H141.423V40.8848Z" fill="#E0E0E0"/>
<path d="M139.355 40.8848H58.623V126.872H139.355V40.8848Z" fill="#F5F5F5"/>
<path d="M99.8229 40.8848H98.1816V126.872H99.8229V40.8848Z" fill="#EBEBEB"/>
<path d="M109.23 40.8848L132.238 126.864H134.446L111.438 40.8848H109.23Z" fill="white"/>
<path d="M100.523 39.56H99.1172V128.52H100.523V39.56Z" fill="#F0F0F0"/>
<path d="M117.576 40.8848L139.354 122.257V77.5303L129.551 40.8848H117.576Z" fill="white"/>
<path d="M58.623 48.6864V56.937L77.3395 126.864H79.5475L58.623 48.6864Z" fill="white"/>
<path d="M58.623 65.3494V110.076L63.1126 126.864H75.08L58.623 65.3494Z" fill="white"/>
<path d="M294.068 43.8877H241.201V108.214H294.068V43.8877Z" fill="#E6E6E6"/>
<path d="M281.968 92.2797L254.191 64.9741L284.242 60.0134L281.968 92.2797Z" fill="#E0E0E0"/>
<path d="M254.863 85.8102L253.486 64.871L274.403 70.0083L275.92 86.0237L254.863 85.8102Z" fill="#F0F0F0"/>
<path d="M288.193 62.3122C291.49 59.0154 291.49 53.6703 288.193 50.3735C284.896 47.0767 279.551 47.0767 276.254 50.3735C272.958 53.6703 272.958 59.0154 276.254 62.3122C279.551 65.6089 284.896 65.6089 288.193 62.3122Z" fill="#FAFAFA"/>
<path d="M257.599 93.2733C257.601 92.4618 257.362 91.6682 256.912 90.9929C256.462 90.3176 255.822 89.791 255.072 89.4799C254.323 89.1687 253.498 89.0869 252.702 89.2448C251.906 89.4027 251.175 89.7933 250.601 90.3671C250.027 90.9409 249.637 91.672 249.479 92.4679C249.321 93.2638 249.403 94.0887 249.714 94.8381C250.025 95.5875 250.552 96.2277 251.227 96.6776C251.902 97.1275 252.696 97.3669 253.507 97.3654C254.592 97.3635 255.632 96.9317 256.399 96.1647C257.166 95.3977 257.597 94.358 257.599 93.2733Z" fill="#E0E0E0"/>
<path d="M254.473 100.471L266.293 93.2733L256.357 85.0816L254.473 100.471Z" fill="#F5F5F5"/>
<path d="M268.442 103.437H270.768V52.072H268.442V103.437Z" fill="#E0E0E0"/>
<path d="M246.162 101.163H249.172V52.072H246.162V101.163Z" fill="#EBEBEB"/>
<path d="M273.386 101.399H288.754V86.031H273.386V101.399Z" fill="#EBEBEB"/>
<path d="M97.8151 208.708L88.0851 180.666C88.0851 180.666 101.569 190.668 101.495 179.584C101.421 168.5 95.3421 177.111 93.2445 173.012C91.1469 168.912 99.2282 168.956 96.3872 162.744C93.5463 156.532 85.4871 166.078 84.0592 160.573C82.6314 155.068 80.3792 152.271 74.4912 152.764C74.4912 152.764 71.3191 160.006 75.2272 165.239C79.1354 170.472 65.5783 166.27 66.9767 171.532C68.3751 176.795 72.8647 181.387 74.8592 177.685C76.8538 173.983 79.3635 181.078 75.9706 182.911C72.5776 184.743 80.3866 192.663 82.1309 188.504C83.3294 185.742 84.8092 183.11 86.5469 180.651L95.5187 210.658L97.8151 208.708Z" fill="#EBEBEB"/>
<path d="M107.846 208.958L118.812 191.021C118.812 191.021 107.963 195.908 109.7 188.247C111.437 180.585 114.33 187.459 116.405 184.942C118.481 182.425 112.873 181.262 115.78 177.361C118.687 173.461 122.823 181.314 124.612 177.722C126.4 174.13 128.417 172.533 132.413 173.762C132.413 173.762 133.517 179.253 130.029 182.285C126.54 185.317 136.535 184.493 134.791 187.893C133.046 191.294 129.227 193.826 128.41 190.963C127.593 188.1 124.774 192.633 126.849 194.407C128.925 196.181 122.301 200.486 121.741 197.351C121.329 195.259 120.702 193.214 119.872 191.25L109.134 210.658L107.846 208.958Z" fill="#E6E6E6"/>
<path d="M100.457 209.127L105.476 180.239C105.476 180.239 93.9135 192.14 92.2281 181.314C90.5426 170.487 97.829 177.921 99.2274 173.586C100.626 169.251 92.7433 170.59 94.5244 164.076C96.3055 157.563 105.69 165.593 106.205 159.999C106.72 154.405 108.486 151.314 114.301 150.865C114.301 150.865 118.547 157.416 115.581 163.142C112.615 168.868 125.149 162.619 124.634 167.97C124.119 173.321 120.461 178.517 117.937 175.22C115.412 171.922 114.08 179.253 117.679 180.489C121.278 181.726 114.904 190.705 112.564 186.929C110.957 184.427 109.095 182.099 107.007 179.981L103.04 210.658L100.457 209.127Z" fill="#F5F5F5"/>
<path d="M94.2088 241.607H111.446C112.028 241.608 112.588 241.387 113.012 240.989C113.436 240.591 113.692 240.046 113.728 239.465L115.553 209.76C115.572 209.449 115.527 209.138 115.422 208.846C115.316 208.553 115.152 208.285 114.939 208.058C114.726 207.831 114.468 207.651 114.183 207.527C113.898 207.403 113.59 207.339 113.279 207.339H92.3762C92.065 207.339 91.7573 207.403 91.4718 207.527C91.1863 207.651 90.9292 207.831 90.7162 208.058C90.5032 208.285 90.3388 208.553 90.2332 208.846C90.1275 209.138 90.0829 209.449 90.1019 209.76L91.9272 239.502C91.9718 240.076 92.2317 240.612 92.6549 241.002C93.078 241.392 93.6331 241.608 94.2088 241.607Z" fill="#EBEBEB"/>
<path d="M90.344 210.658H115.552C116.112 210.658 116.653 210.452 117.071 210.078C117.49 209.705 117.756 209.191 117.819 208.634C117.857 208.314 117.827 207.989 117.731 207.681C117.635 207.372 117.474 207.088 117.26 206.847C117.046 206.606 116.783 206.412 116.488 206.28C116.194 206.148 115.875 206.08 115.552 206.08H90.344C90.0226 206.08 89.7049 206.148 89.4116 206.279C89.1183 206.411 88.8561 206.602 88.6421 206.842C88.4281 207.082 88.2671 207.364 88.1698 207.67C88.0724 207.977 88.0408 208.3 88.0771 208.619C88.137 209.179 88.4016 209.696 88.82 210.073C89.2385 210.449 89.7812 210.658 90.344 210.658Z" fill="#F5F5F5"/>
<path d="M184 274.204C262.813 274.204 326.703 270.474 326.703 265.873C326.703 261.271 262.813 257.541 184 257.541C105.187 257.541 41.2969 261.271 41.2969 265.873C41.2969 270.474 105.187 274.204 184 274.204Z" fill="#F5F5F5"/>
<path d="M262.258 47.5676V254.73C262.258 255.158 262.173 255.583 262.007 255.978C261.842 256.373 261.599 256.732 261.294 257.033C260.988 257.333 260.626 257.57 260.228 257.73C259.83 257.889 259.404 257.967 258.976 257.961H147.663C147.275 257.967 146.889 257.895 146.529 257.749C146.169 257.603 145.842 257.386 145.568 257.112C145.293 256.837 145.077 256.51 144.931 256.15C144.785 255.79 144.713 255.405 144.719 255.017V47.3027C144.705 46.9589 144.759 46.6158 144.879 46.293C144.998 45.9703 145.179 45.6742 145.413 45.4219C145.647 45.1695 145.929 44.9659 146.241 44.8226C146.554 44.6793 146.892 44.5992 147.236 44.5869H173.695C174.104 44.5949 174.5 44.7245 174.835 44.9592C175.169 45.1939 175.426 45.5229 175.572 45.9043L176.786 48.8483C176.936 49.228 177.194 49.5548 177.53 49.7868C177.866 50.0188 178.263 50.1456 178.671 50.151H228.432C228.836 50.1479 229.231 50.0244 229.565 49.7964C229.899 49.5683 230.158 49.246 230.308 48.8704L231.523 45.8749C231.669 45.4927 231.925 45.1626 232.259 44.9267C232.594 44.6907 232.991 44.5596 233.4 44.55H259.41C260.187 44.5751 260.922 44.9064 261.456 45.4717C261.99 46.0371 262.278 46.7905 262.258 47.5676Z" fill="#263238"/>
<path d="M262.266 58.4089H144.734V243.27H262.266V58.4089Z" fill="#92E3A9"/>
<path opacity="0.7" d="M262.266 58.4089H144.734V243.27H262.266V58.4089Z" fill="white"/>
<path opacity="0.6" d="M158.615 53.4998H160.139V51.4758H158.615V53.4998Z" fill="white"/>
<path opacity="0.6" d="M156.135 53.4998H157.658V50.7987H156.135V53.4998Z" fill="white"/>
<path opacity="0.6" d="M153.654 53.4998H155.178V50.1216H153.654V53.4998Z" fill="white"/>
<path opacity="0.6" d="M151.174 53.4998H152.697V49.4445H151.174V53.4998Z" fill="white"/>
<path opacity="0.6" d="M248.642 50.7325H247.744V52.7565H248.642V50.7325Z" fill="white"/>
<path opacity="0.6" d="M249.26 53.4998H256.443V49.9891H249.26V53.4998Z" fill="white"/>
<path d="M197.681 76.7648H236.358C236.473 76.7757 236.59 76.7624 236.7 76.7257C236.809 76.689 236.91 76.6298 236.996 76.5519C237.082 76.4739 237.15 76.379 237.197 76.273C237.244 76.1671 237.268 76.0526 237.268 75.9368C237.268 75.821 237.244 75.7064 237.197 75.6005C237.15 75.4946 237.082 75.3996 236.996 75.3217C236.91 75.2437 236.809 75.1845 236.7 75.1479C236.59 75.1112 236.473 75.0979 236.358 75.1088H197.681C197.475 75.1282 197.284 75.2239 197.144 75.377C197.005 75.5301 196.928 75.7297 196.928 75.9368C196.928 76.1438 197.005 76.3434 197.144 76.4966C197.284 76.6497 197.475 76.7453 197.681 76.7648Z" fill="#263238"/>
<path d="M245.162 79.8339H197.469C197.383 79.8245 197.297 79.8332 197.215 79.8594C197.134 79.8856 197.058 79.9288 196.994 79.9861C196.93 80.0434 196.879 80.1135 196.844 80.1919C196.809 80.2703 196.791 80.3552 196.791 80.4411C196.791 80.5269 196.809 80.6119 196.844 80.6903C196.879 80.7687 196.93 80.8388 196.994 80.8961C197.058 80.9534 197.134 80.9966 197.215 81.0228C197.297 81.049 197.383 81.0577 197.469 81.0483H245.162C245.311 81.0318 245.449 80.9607 245.55 80.8487C245.65 80.7366 245.706 80.5915 245.706 80.4411C245.706 80.2907 245.65 80.1455 245.55 80.0335C245.449 79.9214 245.311 79.8504 245.162 79.8339Z" fill="#263238"/>
<path d="M231.17 83.3151H197.469C197.383 83.3057 197.297 83.3144 197.215 83.3406C197.134 83.3669 197.058 83.41 196.994 83.4673C196.93 83.5246 196.879 83.5948 196.844 83.6732C196.809 83.7516 196.791 83.8365 196.791 83.9223C196.791 84.0082 196.809 84.0931 196.844 84.1715C196.879 84.2499 196.93 84.3201 196.994 84.3774C197.058 84.4346 197.134 84.4778 197.215 84.504C197.297 84.5303 197.383 84.539 197.469 84.5295H231.17C231.32 84.5131 231.458 84.442 231.558 84.3299C231.659 84.2179 231.714 84.0728 231.714 83.9223C231.714 83.7719 231.659 83.6268 231.558 83.5147C231.458 83.4027 231.32 83.3316 231.17 83.3151Z" fill="#263238"/>
<path d="M260.86 105.837H146.133V220.564H260.86V105.837Z" fill="#92E3A9"/>
<path d="M257.165 232.973L253.934 230.184L250.695 232.973V225.304H257.165V232.973Z" fill="#92E3A9"/>
<path d="M245.491 225.304H240.619C240.299 225.304 239.992 225.432 239.766 225.658C239.539 225.884 239.412 226.191 239.412 226.511V229.838C239.412 230.158 239.539 230.465 239.766 230.692C239.992 230.918 240.299 231.045 240.619 231.045H242.275V232.973L243.534 231.045H245.491C245.65 231.046 245.808 231.016 245.955 230.955C246.101 230.895 246.235 230.806 246.347 230.694C246.459 230.582 246.548 230.448 246.609 230.301C246.669 230.154 246.699 229.997 246.699 229.838V226.511C246.699 226.353 246.669 226.195 246.609 226.048C246.548 225.901 246.459 225.768 246.347 225.656C246.235 225.543 246.101 225.455 245.955 225.394C245.808 225.334 245.65 225.303 245.491 225.304Z" fill="#92E3A9"/>
<path d="M235.725 226.217C234.827 224.745 233.09 225.297 232.192 226.438C231.302 225.29 229.572 224.708 228.652 226.18C227.114 228.653 230.249 230.972 231.736 231.884L232.156 232.142L232.583 231.884C234.047 230.994 237.241 228.712 235.725 226.217Z" fill="#92E3A9"/>
<g opacity="0.3">
<path opacity="0.7" d="M237.434 115.493H241.776L239.605 121.124L237.434 115.493Z" fill="white"/>
<path opacity="0.7" d="M251.424 143.52L252.741 147.656L246.721 147.288L251.424 143.52Z" fill="white"/>
<path d="M249.733 125.37L247.672 130.427L253.935 132.612V128.52L249.733 125.37Z" fill="white"/>
<path d="M168.521 114.139H171.708L168.521 118.312V114.139Z" fill="white"/>
<path d="M156.539 134.71L160.145 133.886L161.154 136.984L156.995 138.434L156.539 134.71Z" fill="white"/>
<path d="M193.031 118.312C193.807 118.312 194.437 117.683 194.437 116.906C194.437 116.13 193.807 115.5 193.031 115.5C192.254 115.5 191.625 116.13 191.625 116.906C191.625 117.683 192.254 118.312 193.031 118.312Z" fill="white"/>
<path d="M172.548 211.166C172.548 211.718 172.384 212.257 172.077 212.716C171.77 213.175 171.334 213.533 170.824 213.744C170.314 213.955 169.753 214.009 169.211 213.901C168.67 213.793 168.173 213.526 167.783 213.136C167.393 212.745 167.128 212.247 167.021 211.705C166.915 211.164 166.971 210.603 167.183 210.093C167.395 209.584 167.754 209.149 168.214 208.843C168.674 208.537 169.214 208.375 169.766 208.376C170.132 208.376 170.494 208.449 170.832 208.589C171.17 208.729 171.477 208.935 171.735 209.194C171.994 209.453 172.199 209.76 172.338 210.099C172.477 210.437 172.549 210.8 172.548 211.166Z" fill="white"/>
<path d="M159.115 186.929L160.145 188.674L155.163 190.808L154.029 189.645L159.115 186.929Z" fill="white"/>
<path d="M191.624 215.486L190.652 213.021H194.443L191.624 215.486Z" fill="white"/>
<path d="M231.891 213.02L232.185 210.275L237.381 211.644V215.655L231.891 213.02Z" fill="white"/>
<path d="M243.057 198.867H247.701L245.382 201.612L243.057 198.867Z" fill="white"/>
<path d="M250.697 170.62L249.732 176.449L250.8 177.42L251.801 170.62H250.697Z" fill="white"/>
<path d="M151.049 153.544L155.163 156.532L152.219 158.696L151.049 153.544Z" fill="white"/>
<path d="M169.302 129.889C169.558 129.889 169.765 129.682 169.765 129.426C169.765 129.17 169.558 128.962 169.302 128.962C169.045 128.962 168.838 129.17 168.838 129.426C168.838 129.682 169.045 129.889 169.302 129.889Z" fill="white"/>
<path d="M228.888 124.362C229.246 124.362 229.536 124.072 229.536 123.714C229.536 123.357 229.246 123.067 228.888 123.067C228.53 123.067 228.24 123.357 228.24 123.714C228.24 124.072 228.53 124.362 228.888 124.362Z" fill="white"/>
<path d="M211.504 212.491C211.504 212.629 211.449 212.762 211.351 212.86C211.253 212.958 211.12 213.013 210.982 213.013C210.843 213.013 210.71 212.958 210.612 212.86C210.514 212.762 210.459 212.629 210.459 212.491C210.459 212.352 210.514 212.219 210.612 212.121C210.71 212.023 210.843 211.968 210.982 211.968C211.12 211.968 211.253 212.023 211.351 212.121C211.449 212.219 211.504 212.352 211.504 212.491Z" fill="white"/>
<path d="M217.635 111.614L222.816 110.834V113.359L217.635 114.139V111.614Z" fill="white"/>
<path d="M251.801 114.139H253.501L252.647 116.222L251.801 114.139Z" fill="white"/>
<path d="M154.029 116.906H156.539L155.28 118.312L154.029 116.906Z" fill="white"/>
<path d="M249.173 215.486L248.93 210.658L252.646 211.968L249.173 215.486Z" fill="white"/>
<path d="M252.742 187.702L250.799 186.149V187.702L252.742 188.872V187.702Z" fill="white"/>
<path d="M153.102 172.172L155.281 174.02L154.192 175.668L151.307 173.357L153.102 172.172Z" fill="white"/>
<path d="M151.306 128.962H154.03L151.049 129.889L151.306 128.962Z" fill="white"/>
</g>
<path d="M198.77 124.553L203.694 119.924L208.566 124.597L214.483 121.337L218.046 127.078L224.589 125.4L226.605 131.84H233.362L233.722 138.581L240.266 140.26L238.926 146.884L244.851 150.137L241.914 156.216L246.838 160.838L242.481 165.997L246.102 171.701L240.597 175.617L242.687 182.035L236.387 184.456L236.814 191.198L230.101 191.978L228.843 198.617L222.145 197.697L219.275 203.813L213.019 201.259L208.713 206.47L203.289 202.444L197.828 206.419L193.574 201.171L187.296 203.659L184.484 197.52L177.786 198.367L176.587 191.721L169.882 190.874L170.375 184.14L164.097 181.66L166.246 175.256L160.777 171.289L164.457 165.622L160.145 160.419L165.12 155.848L162.242 149.732L168.196 146.538L166.923 139.906L173.481 138.294L173.9 131.553L180.657 131.619L182.74 125.194L189.268 126.938L192.882 121.234L198.77 124.553Z" fill="#92E3A9"/>
<path opacity="0.4" d="M243.217 167.469L247.574 162.317L242.65 157.695L245.594 151.616L239.67 148.363L241.009 141.739L234.466 140.061L234.105 133.319H227.349L225.332 126.879L218.789 128.557L215.227 122.816L209.339 126.077L204.467 121.403L199.543 126.033L193.655 122.713L190.041 128.425L183.513 126.673L181.43 133.098L174.674 133.032L174.254 139.774L167.696 141.386L168.97 148.01L163.015 151.204L165.893 157.32L160.881 161.92L165.194 167.124L161.514 172.791L166.982 176.758L164.833 183.161L171.111 185.641L170.618 192.376L177.323 193.222L178.515 199.846L185.22 199L188.032 205.138L194.31 202.65L198.564 207.898L204.025 203.924L209.449 207.949L213.755 202.739L220.011 205.292L222.881 199.176L229.572 200.096L230.838 193.472L237.55 192.692L237.116 185.95L243.423 183.529L241.333 177.104L246.838 173.196L243.217 167.469ZM241.863 172.224L236.998 175.683L238.845 181.358L233.274 183.492L233.657 189.446L227.724 190.138L226.613 196.026L220.725 195.217L218.186 200.619L212.666 198.367L208.861 202.959L204.069 199.404L199.249 202.915L195.495 198.278L189.945 200.486L187.465 195.062L181.54 195.798L180.488 189.91L174.6 189.174L175.042 183.227L169.492 181.019L171.391 175.367L166.563 171.863L169.816 166.859L166.003 162.266L170.419 158.225L167.807 152.794L173.069 149.975L171.943 144.087L177.743 142.666L178.111 136.712L184.072 136.771L185.912 131.096L191.675 132.642L194.869 127.6L200.073 130.544L204.415 126.452L208.721 130.581L213.946 127.703L217.097 132.774L222.874 131.302L224.655 136.999H230.624L230.941 142.961L236.718 144.433L235.541 150.276L240.766 153.147L238.176 158.52L242.525 162.604L238.676 167.16L241.863 172.224Z" fill="black"/>
<path opacity="0.4" d="M198.77 124.553L203.694 119.924L208.566 124.597L214.483 121.337L218.046 127.078L224.589 125.4L226.605 131.84H233.362L233.722 138.581L240.266 140.26L238.926 146.884L244.851 150.137L241.914 156.216L246.838 160.838L242.481 165.997L246.102 171.701L240.597 175.617L242.687 182.035L236.387 184.456L236.814 191.198L230.101 191.978L228.843 198.617L222.145 197.697L219.275 203.813L213.019 201.259L208.713 206.47L203.289 202.444L197.828 206.419L193.574 201.171L187.296 203.659L184.484 197.52L177.786 198.367L176.587 191.721L169.882 190.874L170.375 184.14L164.097 181.66L166.246 175.256L160.777 171.289L164.457 165.622L160.145 160.419L165.12 155.848L162.242 149.732L168.196 146.538L166.923 139.906L173.481 138.294L173.9 131.553L180.657 131.619L182.74 125.194L189.268 126.938L192.882 121.234L198.77 124.553Z" fill="black"/>
<path d="M242.481 165.997L246.838 160.845L241.914 156.223L244.858 150.144L238.933 146.891L240.273 140.267L233.73 138.589L233.369 131.847H226.613L224.596 125.407L218.053 127.085L214.491 121.344L208.603 124.605L203.73 119.931L198.807 124.561L192.919 121.241L189.305 126.953L182.777 125.201L180.694 131.626L173.937 131.56L173.518 138.302L166.96 139.914L168.233 146.538L162.279 149.732L165.157 155.848L160.145 160.448L164.457 165.651L160.777 171.319L166.246 175.286L164.097 181.689L170.375 184.169L169.882 190.904L176.587 191.75L177.779 198.374L184.484 197.528L187.296 203.666L193.574 201.178L197.828 206.426L203.289 202.451L208.713 206.477L213.019 201.267L219.275 203.82L222.145 197.704L228.835 198.624L230.101 192L236.814 191.22L236.379 184.478L242.687 182.057L240.597 175.632L246.102 171.723L242.481 165.997ZM241.127 170.752L236.262 174.211L238.109 179.886L232.538 182.02L232.92 187.974L226.988 188.666L225.877 194.554L219.989 193.745L217.45 199.147L211.93 196.895L208.124 201.487L203.333 197.932L198.512 201.443L194.759 196.806L189.209 199.014L186.729 193.59L180.804 194.326L179.752 188.438L173.864 187.702L174.305 181.755L168.756 179.547L170.655 173.895L165.826 170.391L169.08 165.387L165.267 160.794L169.683 156.753L167.07 151.322L172.333 148.503L171.207 142.615L177.006 141.194L177.374 135.24L183.336 135.299L185.176 129.624L190.939 131.17L194.133 126.128L199.337 129.072L203.679 124.98L207.985 129.109L213.21 126.231L216.36 131.302L222.138 129.83L223.919 135.527H229.888L230.204 141.489L235.982 142.961L234.804 148.804L240.03 151.675L237.439 157.048L241.789 161.132L237.94 165.688L241.127 170.752Z" fill="#92E3A9"/>
<path opacity="0.6" d="M242.481 165.997L246.838 160.845L241.914 156.223L244.858 150.144L238.933 146.891L240.273 140.267L233.73 138.589L233.369 131.847H226.613L224.596 125.407L218.053 127.085L214.491 121.344L208.603 124.605L203.73 119.931L198.807 124.561L192.919 121.241L189.305 126.953L182.777 125.201L180.694 131.626L173.937 131.56L173.518 138.302L166.96 139.914L168.233 146.538L162.279 149.732L165.157 155.848L160.145 160.448L164.457 165.651L160.777 171.319L166.246 175.286L164.097 181.689L170.375 184.169L169.882 190.904L176.587 191.75L177.779 198.374L184.484 197.528L187.296 203.666L193.574 201.178L197.828 206.426L203.289 202.451L208.713 206.477L213.019 201.267L219.275 203.82L222.145 197.704L228.835 198.624L230.101 192L236.814 191.22L236.379 184.478L242.687 182.057L240.597 175.632L246.102 171.723L242.481 165.997ZM241.127 170.752L236.262 174.211L238.109 179.886L232.538 182.02L232.92 187.974L226.988 188.666L225.877 194.554L219.989 193.745L217.45 199.147L211.93 196.895L208.124 201.487L203.333 197.932L198.512 201.443L194.759 196.806L189.209 199.014L186.729 193.59L180.804 194.326L179.752 188.438L173.864 187.702L174.305 181.755L168.756 179.547L170.655 173.895L165.826 170.391L169.08 165.387L165.267 160.794L169.683 156.753L167.07 151.322L172.333 148.503L171.207 142.615L177.006 141.194L177.374 135.24L183.336 135.299L185.176 129.624L190.939 131.17L194.133 126.128L199.337 129.072L203.679 124.98L207.985 129.109L213.21 126.231L216.36 131.302L222.138 129.83L223.919 135.527H229.888L230.204 141.489L235.982 142.961L234.804 148.804L240.03 151.675L237.439 157.048L241.789 161.132L237.94 165.688L241.127 170.752Z" fill="white"/>
<path opacity="0.4" d="M181.865 161.044C181.865 161.044 185.619 160.396 187.466 161.044C189.313 161.692 197.13 175.028 197.13 175.028C197.13 175.028 212.291 154.17 224.413 145.051C224.413 145.051 208.685 159.138 199.566 182.786C199.566 182.786 196.497 184.14 194.326 181.718C193.7 180.982 186.656 168.978 185.295 168.529C184.228 168.169 180.783 168.345 180.783 168.345L181.865 161.044Z" fill="black"/>
<path d="M181.129 160.308C181.129 160.308 184.882 159.66 186.73 160.308C188.577 160.956 196.393 174.292 196.393 174.292C196.393 174.292 211.555 153.434 223.677 144.315C223.677 144.315 207.949 158.402 198.83 182.05C198.83 182.05 195.76 183.404 193.589 180.982C192.964 180.246 185.92 168.242 184.559 167.793C183.491 167.433 180.047 167.609 180.047 167.609L181.129 160.308Z" fill="white"/>
<path d="M186.79 83.2784C186.805 86.2954 186.045 89.2657 184.582 91.9043L184.258 92.4563C183.206 94.2016 181.859 95.7506 180.276 97.0343L180.188 97.1079C178.69 98.3155 177.004 99.2701 175.198 99.9341C173.246 100.649 171.183 101.013 169.104 101.009C168.442 101.013 167.781 100.976 167.124 100.898C166.02 100.781 164.931 100.557 163.871 100.228C161.289 99.4348 158.926 98.0543 156.967 96.1952C154.825 94.1798 153.217 91.6634 152.288 88.8723C151.36 86.0813 151.14 83.1033 151.647 80.206C152.155 77.3088 153.376 74.5833 155.198 72.2746C157.021 69.966 159.389 68.1466 162.089 66.9803C164.79 65.8139 167.737 65.337 170.668 65.5926C173.598 65.8482 176.419 66.8283 178.876 68.4445C181.334 70.0608 183.351 72.2627 184.747 74.852C186.142 77.4414 186.872 80.337 186.871 83.2784H186.79Z" fill="#92E3A9"/>
<path d="M184.552 91.9043L184.228 92.4563C180.17 92.393 176.121 92.8506 172.18 93.818L170.863 94.1418L169.965 94.3773C168.838 94.6791 167.757 94.9956 166.837 95.2973L166.417 95.4372L166.115 95.5328C165.019 95.9008 164.084 96.232 163.37 96.5043C162.303 96.9091 161.692 97.1741 161.692 97.1741C161.343 96.7241 161.023 96.2521 160.735 95.761L160.691 95.68C159.094 93.001 156.275 86.848 157.6 78.016C159.072 68.1904 167.219 68.816 170.112 69.3607C170.457 69.4179 170.799 69.4965 171.135 69.5962C171.135 69.5962 180.254 71.7453 180.592 77.4272C180.64 78.1878 180.734 78.9448 180.872 79.6941C181.73 83.8665 182.961 87.9531 184.552 91.9043Z" fill="#263238"/>
<path d="M175.168 99.9341C173.216 100.649 171.153 101.013 169.074 101.009C168.412 101.013 167.751 100.976 167.094 100.898C165.991 100.781 164.901 100.557 163.841 100.228L163.274 95.5991L163.002 93.3911L175.139 95.1133V96.1511L175.175 99.1981V99.9341H175.168Z" fill="#92E3A9"/>
<path d="M180.158 97.1078C178.66 98.3154 176.974 99.2701 175.168 99.9341C173.216 100.649 171.153 101.013 169.074 101.009C168.413 101.013 167.751 100.976 167.094 100.898C165.991 100.781 164.901 100.557 163.841 100.228C161.26 99.4347 158.897 98.0543 156.938 96.1952C157.497 96.1069 158.064 96.0406 158.63 95.967H158.77C159.44 95.8934 160.11 95.8272 160.779 95.7757C161.574 95.7094 162.362 95.6579 163.157 95.6285H163.297L164.268 95.5917H165.424H166.778C168.25 95.5917 169.741 95.6456 171.253 95.7536L172.776 95.8787L173.578 95.9597L174.741 96.1363L174.999 96.1731H175.176L176.545 96.4086C176.758 96.4454 176.971 96.4969 177.185 96.5264L177.59 96.6073L178.024 96.6883L178.76 96.8355L179.275 96.9386L180.158 97.1078Z" fill="#263238"/>
<path d="M172.063 100.096C167.007 99.2349 165.564 96.9974 165.564 96.9974C167.728 95.128 167.471 92.2208 167.036 90.3734C166.897 89.797 166.71 89.2332 166.477 88.688L172.549 90.0864C172.373 90.9308 172.257 91.7868 172.203 92.6477C172.157 93.2846 172.189 93.9248 172.299 94.5539C172.637 96.3939 173.683 96.4675 173.683 96.4675C174.647 98.5651 172.063 100.096 172.063 100.096Z" fill="#E4897B"/>
<path opacity="0.2" d="M172.181 92.6919C172.135 93.3288 172.167 93.969 172.277 94.5981C169.863 94.1712 168.096 92.1546 167.014 90.4176C166.875 89.8412 166.688 89.2774 166.455 88.7322L172.527 90.1306C172.351 90.975 172.235 91.831 172.181 92.6919Z" fill="black"/>
<path d="M171.356 72.7315C177.104 72.9818 178.826 76.1392 178.988 82.0787C179.201 89.4976 177.332 94.6864 170.215 92.8023C160.544 90.2336 161.81 72.3194 171.356 72.7315Z" fill="#E4897B"/>
<path d="M175.287 81.593C175.712 82.4723 176.241 83.2976 176.862 84.0512C176.682 84.2804 176.443 84.4564 176.171 84.5601C175.899 84.6638 175.603 84.6915 175.317 84.64L175.287 81.593Z" fill="#DE5753"/>
<path d="M169.377 78.016C169.312 78.0163 169.249 77.9928 169.2 77.9498C169.175 77.9257 169.154 77.8966 169.14 77.8643C169.126 77.832 169.119 77.7972 169.119 77.7621C169.119 77.7269 169.126 77.6921 169.14 77.6599C169.154 77.6276 169.175 77.5985 169.2 77.5744C169.564 77.2258 170.005 76.9676 170.487 76.8206C170.969 76.6736 171.479 76.6419 171.975 76.728C172.009 76.7342 172.042 76.7471 172.071 76.766C172.101 76.785 172.126 76.8095 172.146 76.8382C172.166 76.8669 172.18 76.8993 172.187 76.9334C172.194 76.9676 172.195 77.0028 172.188 77.0371C172.182 77.0715 172.169 77.1043 172.15 77.1336C172.132 77.1629 172.107 77.1883 172.078 77.2081C172.05 77.2279 172.017 77.2419 171.983 77.2492C171.949 77.2565 171.914 77.2569 171.879 77.2506C171.473 77.1861 171.057 77.2134 170.662 77.3306C170.267 77.4477 169.903 77.6518 169.598 77.9277C169.57 77.9586 169.536 77.9827 169.498 77.998C169.459 78.0133 169.418 78.0195 169.377 78.016Z" fill="#263238"/>
<path d="M178.363 77.7805C178.308 77.779 178.254 77.7611 178.209 77.729C177.931 77.494 177.605 77.3238 177.254 77.2309C176.902 77.1379 176.535 77.1245 176.177 77.1917C176.144 77.2032 176.109 77.2079 176.073 77.2056C176.038 77.2033 176.004 77.194 175.972 77.1782C175.941 77.1624 175.913 77.1405 175.89 77.1138C175.867 77.087 175.85 77.056 175.839 77.0224C175.818 76.9551 175.823 76.8821 175.855 76.8189C175.887 76.7558 175.941 76.7073 176.008 76.6839C176.445 76.5882 176.899 76.5935 177.333 76.6994C177.768 76.8052 178.173 77.0088 178.518 77.2948C178.575 77.3373 178.612 77.4004 178.623 77.4705C178.634 77.5406 178.618 77.6122 178.577 77.6701C178.552 77.7032 178.519 77.7303 178.482 77.7494C178.445 77.7685 178.405 77.7791 178.363 77.7805Z" fill="#263238"/>
<path d="M164.658 82.1523C164.658 82.1523 167.55 77.545 167.3 73.8797C167.3 73.8797 178.892 69.7139 178.958 81.2986C178.958 81.2986 180.511 71.0829 170.642 70.4279C160.772 69.7728 160.19 84.2352 165.107 88.7616C165.107 88.7616 162.869 85.0301 164.658 82.1523Z" fill="#263238"/>
<path d="M165.549 83.4035C165.52 82.7371 165.23 82.109 164.741 81.6556C164.251 81.2022 163.603 80.9601 162.936 80.9821C161.14 81.0998 160.139 84.721 164.533 85.7882C165.159 85.9427 165.542 85.376 165.549 83.4035Z" fill="#E4897B"/>
<path d="M175.426 86.3328C175.035 86.9157 174.685 87.5256 174.381 88.1581L174.02 88.055C172.416 87.5546 171.812 86.7965 171.672 86.1046C171.601 85.7632 171.614 85.4097 171.709 85.0742C171.756 84.883 171.83 84.6995 171.93 84.5296C172.784 85.2758 173.788 85.8304 174.874 86.1562C175.212 86.2739 175.426 86.3328 175.426 86.3328Z" fill="#263238"/>
<path d="M174.881 86.1562L174.557 86.6861C173.085 86.215 172.04 85.6851 171.709 85.0742C171.756 84.883 171.83 84.6995 171.93 84.5296C172.786 85.2767 173.792 85.8313 174.881 86.1562Z" fill="white"/>
<path d="M174.02 88.0551C172.415 87.5546 171.812 86.7965 171.672 86.1047C172.281 86.3035 172.849 86.6102 173.35 87.01C173.681 87.2765 173.916 87.6433 174.02 88.0551Z" fill="#DE5753"/>
<path d="M171.224 73.1584C171.224 73.1584 168.501 82.5203 162.554 82.145C156.607 81.7696 166.308 70.185 166.308 70.185C166.308 70.185 176.177 66.9392 180.755 72.3047C185.333 77.6701 178.96 81.2986 178.96 81.2986C178.96 81.2986 179.637 73.9901 171.224 73.1584Z" fill="#263238"/>
<path d="M166.807 81.225C166.77 81.2245 166.735 81.213 166.704 81.192C166.674 81.171 166.651 81.1415 166.638 81.1072C166.62 81.0632 166.621 81.0141 166.639 80.9703C166.656 80.9264 166.69 80.8911 166.734 80.8717C171.37 78.8845 171.01 72.5622 171.01 72.496C171.008 72.4484 171.024 72.4018 171.056 72.3661C171.087 72.3305 171.132 72.3084 171.179 72.3046C171.227 72.3025 171.275 72.3187 171.312 72.3501C171.349 72.3815 171.372 72.4258 171.378 72.4739C171.378 72.5402 171.753 79.0979 166.881 81.2102L166.807 81.225Z" fill="#263238"/>
<path d="M171.901 81.2691C171.953 81.7107 171.754 82.1008 171.459 82.1376C171.165 82.1744 170.878 81.8358 170.826 81.4016C170.775 80.9674 170.974 80.5699 171.268 80.5331C171.562 80.4963 171.85 80.8202 171.901 81.2691Z" fill="#263238"/>
<path d="M171.143 80.5626L172.07 80.0695C172.07 80.0695 171.68 80.96 171.143 80.5626Z" fill="#263238"/>
<path d="M177.413 80.5184C177.464 80.96 177.266 81.3501 176.971 81.3869C176.677 81.4237 176.39 81.0925 176.338 80.6509C176.287 80.2093 176.485 79.8192 176.78 79.7824C177.074 79.7456 177.376 80.0768 177.413 80.5184Z" fill="#263238"/>
<path d="M176.641 79.8118L177.561 79.3187C177.561 79.3187 177.2 80.224 176.641 79.8118Z" fill="#263238"/>
<path d="M180.248 97.0342L180.159 97.1078C178.661 98.3155 176.975 99.2701 175.169 99.9341V99.4115V99.1834L174.205 97.233L174.698 96.0701L175.118 95.0986L175.545 96.0259L180.248 97.0342Z" fill="#92E3A9"/>
<path opacity="0.6" d="M180.248 97.0342L180.159 97.1078C178.661 98.3155 176.975 99.2701 175.169 99.9341V99.4115V99.1834L174.205 97.233L174.698 96.0701L175.118 95.0986L175.545 96.0259L180.248 97.0342Z" fill="white"/>
<path d="M169.185 97.0858L167.176 99.6103L167.073 100.906C165.969 100.788 164.88 100.564 163.82 100.236C161.238 99.4421 158.875 98.0617 156.916 96.2026L158.587 95.9671H158.727L162.267 95.4666L163.003 93.3984L166.609 95.5476L169.207 97.1005L169.185 97.0858Z" fill="#92E3A9"/>
<path opacity="0.6" d="M169.178 97.0858L167.176 99.6102L167.073 100.906C165.969 100.788 164.88 100.564 163.82 100.236C161.238 99.4421 158.875 98.0617 156.916 96.2026L158.727 95.9523L162.267 95.4592L163.003 93.3911L166.609 95.5402L169.178 97.0858Z" fill="white"/>
<path d="M188.005 98.2781C188.005 99.2315 187.722 100.164 187.192 100.956C186.663 101.749 185.91 102.367 185.029 102.732C184.148 103.097 183.179 103.192 182.244 103.006C181.308 102.82 180.449 102.361 179.775 101.687C179.101 101.013 178.642 100.154 178.456 99.2186C178.27 98.2834 178.365 97.3141 178.73 96.4332C179.095 95.5524 179.713 94.7994 180.506 94.2697C181.299 93.74 182.231 93.4573 183.184 93.4573C184.463 93.4573 185.689 93.9652 186.593 94.8693C187.497 95.7733 188.005 96.9995 188.005 98.2781Z" fill="white"/>
<path d="M187.297 98.2781C187.297 99.0918 187.056 99.8873 186.603 100.564C186.151 101.24 185.509 101.768 184.757 102.079C184.005 102.391 183.178 102.472 182.38 102.313C181.582 102.155 180.849 101.763 180.273 101.187C179.698 100.612 179.306 99.8789 179.147 99.0808C178.989 98.2827 179.07 97.4554 179.382 96.7037C179.693 95.9519 180.22 95.3093 180.897 94.8572C181.573 94.4052 182.369 94.1639 183.183 94.1639C184.274 94.1639 185.32 94.5973 186.092 95.3689C186.863 96.1405 187.297 97.187 187.297 98.2781Z" fill="#263238"/>
<path d="M183.021 100.42L180.828 98.4842L181.314 97.9322L182.904 99.3306L184.994 96.4602L185.59 96.8944L183.021 100.42Z" fill="white"/>
<path d="M285.626 245.493C285.626 245.493 281.335 236.138 286.237 226.916C291.139 217.694 292.552 215.523 289.431 213.631C286.311 211.74 284.875 220.991 284.875 220.991C284.875 220.991 282.24 214.61 284.419 207.942C286.598 201.274 287.952 190.403 284.986 189.233C282.02 188.063 284.419 202.79 281.843 207.81C280.531 204.287 279.684 200.608 279.326 196.865C278.965 191.507 279.525 182.948 277.177 180.754C274.829 178.561 273.335 180.077 275.639 191.905C277.023 198.971 277.787 206.145 277.92 213.344C277.92 213.344 272.834 197.829 269.419 197.381C266.004 196.932 266.012 201.951 268.934 206.308C271.856 210.665 277.493 218.474 278.421 222.5C278.421 222.5 272.834 210.827 267.808 214.404C262.781 217.981 272.179 225.032 276.367 227.586C280.555 230.14 283.47 246.104 283.47 246.104L285.626 245.493Z" fill="#92E3A9"/>
<path opacity="0.2" d="M285.626 245.493C285.626 245.493 281.335 236.138 286.237 226.916C291.139 217.694 292.552 215.523 289.431 213.631C286.311 211.74 284.875 220.991 284.875 220.991C284.875 220.991 282.24 214.61 284.419 207.942C286.598 201.274 287.952 190.403 284.986 189.233C282.02 188.063 284.419 202.79 281.843 207.81C280.531 204.287 279.684 200.608 279.326 196.865C278.965 191.507 279.525 182.948 277.177 180.754C274.829 178.561 273.335 180.077 275.639 191.905C277.023 198.971 277.787 206.145 277.92 213.344C277.92 213.344 272.834 197.829 269.419 197.381C266.004 196.932 266.012 201.951 268.934 206.308C271.856 210.665 277.493 218.474 278.421 222.5C278.421 222.5 272.834 210.827 267.808 214.404C262.781 217.981 272.179 225.032 276.367 227.586C280.555 230.14 283.47 246.104 283.47 246.104L285.626 245.493Z" fill="black"/>
<path d="M282.24 249.335C282.24 249.335 286.413 239.914 281.401 230.765C276.388 221.617 274.946 219.468 278.052 217.517C281.158 215.567 282.696 224.826 282.696 224.826C282.696 224.826 285.25 218.408 282.998 211.769C280.746 205.131 279.252 194.282 282.203 193.075C285.154 191.868 282.939 206.625 285.566 211.6C286.837 208.059 287.641 204.368 287.958 200.619C288.245 195.253 287.59 186.708 289.909 184.478C292.227 182.248 293.743 183.742 291.58 195.607C290.28 202.705 289.603 209.904 289.556 217.12C289.556 217.12 294.457 201.532 297.865 201.031C301.273 200.531 301.332 205.55 298.461 209.951C295.591 214.353 290.041 222.243 289.165 226.268C289.165 226.268 294.612 214.493 299.676 218.018C304.739 221.543 295.436 228.712 291.278 231.317C287.119 233.923 284.404 249.946 284.404 249.946L282.24 249.335Z" fill="#92E3A9"/>
<path d="M301.495 242.615H267.006L269.795 267.3H298.705L301.495 242.615Z" fill="#263238"/>
<path d="M72.9742 250.564L94.2078 248.481V222.353H102.613V248.466L123.905 250.564C124.926 250.663 125.873 251.138 126.561 251.898C127.25 252.657 127.631 253.646 127.63 254.671V257.858H69.25V254.656C69.2525 253.633 69.6351 252.648 70.3233 251.892C71.0116 251.136 71.9564 250.662 72.9742 250.564Z" fill="#263238"/>
<path opacity="0.1" d="M72.9742 250.564L94.2078 248.481V222.353H102.613V248.466L123.905 250.564C124.926 250.663 125.873 251.138 126.561 251.898C127.25 252.657 127.631 253.646 127.63 254.671V257.858H69.25V254.656C69.2525 253.633 69.6351 252.648 70.3233 251.892C71.0116 251.136 71.9564 250.662 72.9742 250.564Z" fill="white"/>
<path d="M126.255 267.224C129.252 266.737 131.288 263.913 130.801 260.916C130.315 257.919 127.49 255.884 124.493 256.37C121.496 256.857 119.461 259.681 119.947 262.678C120.434 265.675 123.258 267.71 126.255 267.224Z" fill="#263238"/>
<path d="M76.9202 262.699C77.4067 259.702 75.3714 256.878 72.3743 256.391C69.3771 255.905 66.553 257.94 66.0665 260.937C65.5799 263.935 67.6152 266.759 70.6124 267.245C73.6096 267.732 76.4337 265.696 76.9202 262.699Z" fill="#263238"/>
<path d="M100.994 228.764H95.7753C94.9691 228.764 94.196 228.443 93.6259 227.873C93.0559 227.303 92.7356 226.53 92.7356 225.724V202.223H104.033V225.724C104.033 226.53 103.713 227.303 103.143 227.873C102.573 228.443 101.8 228.764 100.994 228.764Z" fill="#263238"/>
<path opacity="0.2" d="M100.994 228.764H95.7753C94.9691 228.764 94.196 228.443 93.6259 227.873C93.0559 227.303 92.7356 226.53 92.7356 225.724V202.223H104.033V225.724C104.033 226.53 103.713 227.303 103.143 227.873C102.573 228.443 101.8 228.764 100.994 228.764Z" fill="white"/>
<path d="M69.0377 156.135C69.0377 156.135 75.3305 195.445 87.7541 202.216H75.1244C75.1244 202.216 62.6492 188.821 58.8809 156.135H69.0377Z" fill="#263238"/>
<path opacity="0.1" d="M69.0377 156.135C69.0377 156.135 75.3305 195.445 87.7541 202.216H75.1244C75.1244 202.216 62.6492 188.821 58.8809 156.135H69.0377Z" fill="white"/>
<path d="M74.5062 196.659H123.759C124.735 196.659 125.671 197.047 126.361 197.737C127.052 198.427 127.439 199.363 127.439 200.339V205.263H70.8262V200.339C70.8262 199.363 71.2139 198.427 71.904 197.737C72.5941 197.047 73.5302 196.659 74.5062 196.659Z" fill="#92E3A9"/>
<path d="M128.314 200.957H69.9423C69.1252 200.957 68.4629 201.62 68.4629 202.437V203.776C68.4629 204.593 69.1252 205.256 69.9423 205.256H128.314C129.131 205.256 129.794 204.593 129.794 203.776V202.437C129.794 201.62 129.131 200.957 128.314 200.957Z" fill="#263238"/>
<path opacity="0.6" d="M128.314 200.957H69.9423C69.1252 200.957 68.4629 201.62 68.4629 202.437V203.776C68.4629 204.593 69.1252 205.256 69.9423 205.256H128.314C129.131 205.256 129.794 204.593 129.794 203.776V202.437C129.794 201.62 129.131 200.957 128.314 200.957Z" fill="white"/>
<path d="M57.3491 164.128H77.5891C83.4771 164.128 87.3705 159.373 86.1856 153.508L84.64 145.676C83.4624 139.788 77.6995 135.063 71.7747 135.063H51.52C45.632 135.063 41.7385 139.818 42.9235 145.676L44.4912 153.508C45.632 159.373 51.4243 164.128 57.3491 164.128Z" fill="#92E3A9"/>
<path d="M76.4043 125.37H89.299L90.484 133.061L79.0171 135.063L76.4043 125.37Z" fill="#92E3A9"/>
<path d="M162.03 232.215L157.401 234.026L154.074 227.748L151.049 222.044L156.179 218.967L159.277 225.974L162.03 232.215Z" fill="#E4897B"/>
<path opacity="0.2" d="M159.277 225.974L154.074 227.748L151.049 222.044L156.179 218.967L159.277 225.974Z" fill="black"/>
<path d="M158.322 222.552L152.021 225.952C152.021 225.952 128.227 184.118 124.569 184.464C120.911 184.81 86.201 206.912 75.6173 198.72C65.0337 190.528 75.3303 165.961 75.3303 165.961C75.3303 165.961 96.0119 158.1 98.3892 162.906C99.4319 164.853 100.361 166.858 101.171 168.912C101.635 170.384 101.988 171.687 101.988 171.687C102.658 171.414 124.282 162.546 133.938 167.271C143.756 172.15 158.322 222.552 158.322 222.552Z" fill="#92E3A9"/>
<path opacity="0.3" d="M158.322 222.552L152.021 225.952C152.021 225.952 128.227 184.118 124.569 184.464C120.911 184.81 86.201 206.912 75.6173 198.72C65.0337 190.528 75.3303 165.961 75.3303 165.961C75.3303 165.961 96.0119 158.1 98.3892 162.906C99.4319 164.853 100.361 166.858 101.171 168.912C101.635 170.384 101.988 171.687 101.988 171.687C102.658 171.414 124.282 162.546 133.938 167.271C143.756 172.15 158.322 222.552 158.322 222.552Z" fill="white"/>
<path d="M124.113 256.665L119.174 256.099L119.152 249.136L119.145 242.74L125.113 242.46L124.584 249.982L124.113 256.665Z" fill="#E4897B"/>
<path opacity="0.2" d="M124.568 250.137L119.137 249.269V242.814L125.106 242.497L124.568 250.137Z" fill="black"/>
<path d="M148.943 223.854L158.158 219.24L159.115 223.14L152.138 226.74L148.943 223.854Z" fill="#263238"/>
<path d="M92 198.808C92 198.808 93.5162 198.639 116.788 194.326C116.788 194.326 117.318 224.097 118.422 246.28L125.591 246.516C125.591 246.516 135.895 197.263 134.666 189.844C133.437 182.425 124.605 181.402 124.605 181.402C124.605 181.402 109.215 193.325 92 198.808Z" fill="#92E3A9"/>
<path opacity="0.4" d="M92 198.808C92 198.808 93.5162 198.639 116.788 194.326C116.788 194.326 117.318 224.097 118.422 246.28L125.591 246.516C125.591 246.516 135.895 197.263 134.666 189.844C133.437 182.425 124.605 181.402 124.605 181.402C124.605 181.402 109.215 193.325 92 198.808Z" fill="white"/>
<path opacity="0.3" d="M92 198.808C92 198.808 93.5162 198.639 116.788 194.326C116.788 194.326 117.318 224.097 118.422 246.28L125.591 246.516C125.591 246.516 135.895 197.263 134.666 189.844C133.437 182.425 124.605 181.402 124.605 181.402C124.605 181.402 109.215 193.325 92 198.808Z" fill="black"/>
<path d="M117.076 244.3L126.85 244.072L125.518 248.098L117.584 248.172L117.076 244.3Z" fill="#263238"/>
<path opacity="0.3" d="M101.987 171.709L89.2988 176.228C89.2988 176.228 95.9744 171.245 101.171 168.934C101.634 170.436 101.987 171.709 101.987 171.709Z" fill="black"/>
<path d="M74.5121 164.216L74.3281 167.985L98.1083 162.943L97.5563 158.785L74.5121 164.216Z" fill="#263238"/>
<path opacity="0.2" d="M74.5121 164.216L74.3281 167.985L98.1083 162.943L97.5563 158.785L74.5121 164.216Z" fill="black"/>
<path d="M81.7395 161.911L80.5527 162.132L81.671 168.16L82.8578 167.939L81.7395 161.911Z" fill="#92E3A9"/>
<path d="M92.1149 160.38L86.9238 161.55L87.8105 165.485L93.0016 164.315L92.1149 160.38Z" fill="white"/>
<path d="M96.181 158.354L94.9941 158.574L96.1114 164.602L97.2982 164.382L96.181 158.354Z" fill="#92E3A9"/>
<path opacity="0.3" d="M81.7395 161.911L80.5527 162.132L81.671 168.16L82.8578 167.939L81.7395 161.911Z" fill="white"/>
<path opacity="0.3" d="M96.181 158.354L94.9941 158.574L96.1114 164.602L97.2982 164.382L96.181 158.354Z" fill="white"/>
<path d="M171.231 240.422C170.457 240.184 169.646 240.092 168.839 240.149C168.839 240.149 165.858 238.906 162.215 232.959L159.131 233.364C158.611 233.442 158.129 233.678 157.748 234.041C157.368 234.403 157.108 234.873 157.004 235.388C156.978 235.531 156.978 235.678 157.004 235.822C157.133 236.569 157.313 237.307 157.541 238.03C158.332 240.419 159.266 242.759 160.338 245.037L160.846 244.83L159.263 240.363C158.733 238.847 160.581 240.127 161.56 241.599C162.538 243.071 163.922 244.492 167.219 243.248C171.054 241.754 172.57 240.959 171.231 240.422Z" fill="#92E3A9"/>
<path d="M161.463 231.384C161.463 231.384 166.417 238.898 168.823 240.149C168.823 240.149 166.1 242.357 162.464 238.81C157.769 234.269 156.988 235.822 156.988 235.822C156.946 234.932 156.988 234.04 157.114 233.157C157.504 231.435 161.463 231.384 161.463 231.384Z" fill="#E4897B"/>
<path d="M131.501 265.424C130.803 265.013 130.038 264.732 129.241 264.592C129.241 264.592 126.636 262.671 124.538 256.047L121.447 255.709C120.921 255.66 120.394 255.775 119.936 256.039C119.479 256.302 119.114 256.701 118.893 257.181C118.827 257.312 118.782 257.454 118.761 257.6C118.713 258.35 118.713 259.102 118.761 259.852C118.964 262.359 119.318 264.851 119.82 267.315L120.358 267.234L119.879 262.524C119.725 260.919 121.219 262.605 121.822 264.268C122.426 265.932 123.427 267.639 126.923 267.212C131.008 266.675 132.671 266.263 131.501 265.424Z" fill="#92E3A9"/>
<path d="M124.149 254.325C124.149 254.325 127.182 262.804 129.243 264.592C129.243 264.592 126.078 266.064 123.355 261.788C119.866 256.253 118.732 257.585 118.732 257.585C118.898 256.711 119.145 255.853 119.468 255.024C120.293 253.434 124.149 254.325 124.149 254.325Z" fill="#E4897B"/>
<path d="M87.7821 99.36C87.7821 99.36 76.1607 93.7149 72.3261 105.874C68.4915 118.032 73.408 126.423 73.408 126.423C73.408 126.423 86.8547 122.978 98.1744 125.385C98.1744 125.385 95.7309 115.022 96.3197 109.075C96.9085 103.128 87.7821 99.36 87.7821 99.36Z" fill="#263238"/>
<path d="M96.8496 126.879C99.4035 126.989 110.098 141.364 110.098 141.364L114.072 136.212C114.072 136.212 120.196 148.113 117.163 153.78C114.131 159.447 98.1597 143.962 98.1597 143.962L96.8496 126.879Z" fill="#92E3A9"/>
<path opacity="0.6" d="M96.8438 126.879L97.8889 138.368L98.1538 143.969C98.1538 143.969 100.781 146.516 104.101 149.165C108.98 153.059 115.354 157.165 117.157 153.795C120.19 148.135 114.059 136.226 114.059 136.226L110.092 141.378V141.334C109.474 140.451 99.3167 126.989 96.8438 126.879Z" fill="white"/>
<path opacity="0.2" d="M97.8887 138.368L98.1536 143.969C98.1536 143.969 100.781 146.516 104.101 149.165C104.417 142.438 98.1536 132.642 98.1536 132.642L97.8887 138.368Z" fill="black"/>
<path opacity="0.2" d="M110.106 141.364L109.531 142.46L111.195 148.937C111.195 148.937 106.602 144.756 109.531 140.664L110.106 141.364Z" fill="black"/>
<path d="M98.1889 139.7C98.1889 139.877 98.1889 140.061 98.1889 140.245C98.1889 141.04 98.1889 141.879 98.1374 142.769C98.1374 142.843 98.1374 142.916 98.1374 142.997C98.1374 143.476 98.1374 143.969 98.1374 144.469C98.1374 144.558 98.1374 144.639 98.1374 144.727C98.1374 145.463 98.0858 146.199 98.0564 146.935C98.0564 147.038 98.0564 147.141 98.0564 147.244C98.0564 148.245 97.9754 149.298 97.9239 150.409C97.8062 152.904 97.6663 155.671 97.4897 158.74L97.1585 158.821L74.6737 164.15H74.5854C74.5854 164.15 75.4906 152.124 73.9377 145.316C73.9264 145.256 73.9117 145.197 73.8935 145.139C73.8935 145.036 73.8494 144.933 73.8199 144.83C73.7905 144.727 73.7169 144.447 73.6727 144.249C73.6286 144.05 73.5697 143.851 73.5108 143.645C73.3121 142.909 73.0986 142.173 72.8705 141.364C72.7233 140.834 72.5614 140.289 72.3921 139.73L72.3038 139.45C72.105 138.788 71.8916 138.103 71.6708 137.396C71.6046 137.19 71.5457 136.992 71.4794 136.778C71.1556 135.77 70.8097 134.703 70.4343 133.584C70.0222 132.323 69.5707 130.986 69.0801 129.573C71.6586 128.751 74.2865 128.092 76.9479 127.6L78.0887 127.394L79.2958 127.196C81.3124 126.872 83.3511 126.644 85.3898 126.496C86.2092 126.437 87.0262 126.393 87.8407 126.364C88.3338 126.364 88.8417 126.364 89.3127 126.364H89.5188L90.9908 126.408H91.6753H92.1095H92.5806L93.3166 126.452H93.8759L94.8842 126.518L95.2817 126.555H95.635H95.9588H96.2238L96.8641 126.614C96.8641 126.614 96.8641 126.614 96.923 126.614L96.9745 126.666C97.0237 126.724 97.0657 126.788 97.0996 126.857C97.3257 127.336 97.4866 127.844 97.578 128.366C97.578 128.513 97.6369 128.675 97.6737 128.852C97.7105 129.028 97.762 129.404 97.8135 129.727C97.865 130.051 97.8798 130.198 97.9092 130.463C97.9386 130.728 97.9607 130.942 97.9828 131.199C98.2006 134.027 98.2694 136.865 98.1889 139.7Z" fill="#263238"/>
<path d="M85.9801 131.236C80.6221 130.552 79.0176 128.255 79.0176 128.255C81.2256 126.195 80.8061 123.155 80.2467 121.256C80.0783 120.654 79.8567 120.067 79.5843 119.504L86.0317 120.711C85.8817 121.607 85.7981 122.512 85.7814 123.42C85.7572 124.09 85.819 124.76 85.9654 125.414C86.3997 127.343 87.4963 127.372 87.4963 127.372C88.6297 129.484 85.9801 131.236 85.9801 131.236Z" fill="#E4897B"/>
<path opacity="0.2" d="M85.7811 123.42C85.7569 124.09 85.8187 124.76 85.9651 125.414C83.4038 125.083 81.4681 123.03 80.2464 121.256C80.078 120.654 79.8564 120.067 79.584 119.504L86.0313 120.711C85.8814 121.607 85.7978 122.512 85.7811 123.42Z" fill="black"/>
<path d="M87.4952 102.628C93.4273 103.835 94.6859 107.405 93.8763 113.602C92.8606 121.352 90.0638 126.43 82.9761 123.287C73.364 119.019 77.6475 100.619 87.4952 102.628Z" fill="#E4897B"/>
<path d="M90.1078 112.49C90.4032 113.473 90.8159 114.417 91.3369 115.302C91.1123 115.51 90.835 115.652 90.5352 115.713C90.2354 115.774 89.9246 115.751 89.6367 115.648L90.1078 112.49Z" fill="#DE5753"/>
<path d="M84.6407 107.795C84.6015 107.794 84.5628 107.786 84.5273 107.769C84.4917 107.753 84.4601 107.729 84.4347 107.699C84.409 107.675 84.3886 107.646 84.3747 107.613C84.3607 107.581 84.3535 107.546 84.3535 107.511C84.3535 107.476 84.3607 107.441 84.3747 107.409C84.3886 107.377 84.409 107.348 84.4347 107.324C84.8683 107.022 85.3667 106.827 85.8897 106.754C86.4127 106.681 86.9454 106.733 87.4449 106.904C87.4778 106.916 87.508 106.934 87.5339 106.957C87.5599 106.98 87.5809 107.008 87.596 107.04C87.611 107.071 87.6197 107.105 87.6216 107.14C87.6234 107.175 87.6184 107.21 87.6068 107.243C87.5952 107.275 87.5773 107.306 87.554 107.332C87.5307 107.358 87.5025 107.379 87.4711 107.394C87.4396 107.409 87.4055 107.417 87.3707 107.419C87.336 107.421 87.3011 107.416 87.2683 107.404C86.8538 107.272 86.415 107.233 85.9836 107.29C85.5521 107.347 85.1388 107.499 84.7732 107.736C84.7347 107.766 84.6891 107.786 84.6407 107.795Z" fill="#263238"/>
<path d="M93.9798 109.024C93.9102 109.022 93.8442 108.993 93.7958 108.943C93.5429 108.652 93.229 108.422 92.8767 108.266C92.5243 108.111 92.142 108.035 91.7571 108.045C91.7227 108.051 91.6874 108.05 91.6533 108.042C91.6192 108.035 91.587 108.02 91.5588 107.999C91.5305 107.979 91.5068 107.952 91.489 107.922C91.4712 107.892 91.4598 107.859 91.4554 107.824C91.4491 107.79 91.4499 107.754 91.4577 107.72C91.4655 107.686 91.4802 107.654 91.5009 107.626C91.5215 107.597 91.5477 107.574 91.5779 107.556C91.608 107.538 91.6414 107.527 91.6762 107.522C92.1442 107.494 92.6125 107.574 93.045 107.755C93.4775 107.936 93.8628 108.214 94.1712 108.567C94.1959 108.592 94.2155 108.621 94.2289 108.653C94.2422 108.686 94.2491 108.72 94.2491 108.755C94.2491 108.79 94.2422 108.824 94.2289 108.857C94.2155 108.889 94.1959 108.918 94.1712 108.943C94.1202 108.993 94.0517 109.022 93.9798 109.024Z" fill="#263238"/>
<path d="M78.9795 111.298C78.9795 111.298 82.7479 106.992 83.0938 103.143C83.0938 103.143 95.8192 100.744 93.9719 112.792C93.9719 112.792 97.2765 102.429 87.1344 100.118C76.9923 97.8071 73.9895 112.726 78.3466 118.238C78.3466 118.238 76.6391 113.999 78.9795 111.298Z" fill="#263238"/>
<path d="M79.6949 112.748C79.736 112.402 79.7087 112.052 79.6144 111.717C79.5201 111.382 79.3608 111.069 79.1455 110.796C78.9302 110.522 78.6632 110.294 78.3597 110.124C78.0561 109.954 77.7221 109.845 77.3765 109.804C75.4997 109.627 73.8511 113.219 78.2377 115.059C78.8706 115.324 79.3711 114.757 79.6949 112.748Z" fill="#E4897B"/>
<path d="M89.469 117.429C88.9647 117.971 88.4998 118.549 88.0779 119.158L87.7246 118.982C86.1349 118.202 85.6565 117.318 85.605 116.575C85.5921 116.208 85.6652 115.842 85.8184 115.508C85.8993 115.318 86.0058 115.139 86.1349 114.978C86.897 115.907 87.8511 116.66 88.9317 117.186C89.2629 117.333 89.469 117.429 89.469 117.429Z" fill="#263238"/>
<path d="M88.9316 117.156L88.5121 117.657C87.0401 116.921 86.0612 116.185 85.8184 115.508C85.8993 115.318 86.0058 115.139 86.1348 114.978C86.9 115.896 87.8539 116.639 88.9316 117.156Z" fill="white"/>
<path d="M87.7232 118.982C86.1334 118.202 85.655 117.318 85.6035 116.575C86.2065 116.877 86.7481 117.289 87.2006 117.789C87.4969 118.121 87.6799 118.539 87.7232 118.982Z" fill="#DE5753"/>
<path d="M87.2822 103.04C87.2822 103.04 82.8662 112.314 76.7868 110.937C70.7074 109.561 82.6748 99.1613 82.6748 99.1613C82.6748 99.1613 93.4719 97.4022 97.3286 103.776C101.185 110.15 93.9724 112.829 93.9724 112.829C93.9724 112.829 95.886 105.307 87.2822 103.04Z" fill="#263238"/>
<path d="M81.3943 110.687C81.3538 110.685 81.3149 110.671 81.2832 110.646C81.2515 110.621 81.2285 110.586 81.2176 110.547C81.2111 110.524 81.2093 110.5 81.2125 110.476C81.2157 110.452 81.2237 110.429 81.2361 110.408C81.2485 110.387 81.265 110.37 81.2846 110.355C81.3043 110.341 81.3265 110.332 81.3501 110.326C86.5021 109.024 87.1792 102.392 87.1866 102.326C87.1922 102.279 87.216 102.235 87.2531 102.205C87.2902 102.175 87.3376 102.16 87.3853 102.164C87.4096 102.165 87.4335 102.171 87.4553 102.181C87.4772 102.192 87.4964 102.208 87.5118 102.226C87.5271 102.245 87.5383 102.267 87.5444 102.291C87.5505 102.314 87.5515 102.339 87.5472 102.363C87.5472 102.429 86.8112 109.318 81.4384 110.68L81.3943 110.687Z" fill="#263238"/>
<path d="M86.6426 111.585C86.6426 112.056 86.3556 112.424 86.0465 112.417C85.7373 112.409 85.4871 112.012 85.5092 111.541C85.5312 111.07 85.7962 110.694 86.1127 110.709C86.4292 110.724 86.6647 111.136 86.6426 111.585Z" fill="#263238"/>
<path d="M85.9785 110.724L87.0163 110.363C87.0163 110.363 86.4716 111.21 85.9785 110.724Z" fill="#263238"/>
<path d="M92.5008 111.717C92.5008 112.188 92.2064 112.564 91.8973 112.549C91.5882 112.534 91.3453 112.144 91.36 111.673C91.3747 111.202 91.6471 110.834 91.9635 110.849C92.28 110.864 92.5155 111.246 92.5008 111.717Z" fill="#263238"/>
<path d="M91.8301 110.864L92.8678 110.503C92.8678 110.503 92.3232 111.342 91.8301 110.864Z" fill="#263238"/>
<path d="M100.743 136.366C100.733 136.445 100.739 136.525 100.763 136.601C100.786 136.677 100.826 136.747 100.879 136.805C100.932 136.864 100.998 136.911 101.071 136.942C101.144 136.973 101.223 136.987 101.303 136.984H107.456C107.626 136.978 107.788 136.913 107.916 136.8C108.043 136.687 108.128 136.534 108.155 136.366L109.524 124.222C109.542 124.137 109.542 124.049 109.523 123.964C109.504 123.879 109.467 123.798 109.415 123.729C109.363 123.659 109.296 123.601 109.22 123.559C109.143 123.518 109.059 123.493 108.972 123.486H102.819C102.635 123.508 102.464 123.594 102.336 123.728C102.209 123.862 102.132 124.037 102.12 124.222L100.743 136.366Z" fill="#263238"/>
<path opacity="0.5" d="M102.804 124.141L101.406 136.403C101.388 136.474 101.388 136.549 101.405 136.621C101.422 136.693 101.455 136.76 101.502 136.816C101.549 136.873 101.609 136.917 101.677 136.947C101.745 136.976 101.818 136.989 101.892 136.984H107.11C107.463 136.984 108.103 136.793 108.14 136.447L109.539 124.141C109.539 123.795 108.979 123.516 108.626 123.516H103.408C103.246 123.523 103.094 123.592 102.982 123.708C102.869 123.825 102.806 123.979 102.804 124.141Z" fill="white"/>
<path d="M113.638 137.382L110.43 131.935C110.455 130.752 110.364 129.568 110.157 128.403C109.878 127.725 106.735 126.195 106.117 126.43C105.498 126.666 105.278 132.274 105.837 133.054C106.396 133.834 108.361 134.651 108.361 134.651L108.229 135.718L110.106 141.386L113.638 137.382Z" fill="#E4897B"/>
<path d="M114.927 136.763L113.867 135.696L108.811 141.363L109.532 143.608L114.927 136.763Z" fill="#92E3A9"/>
<path d="M89.2985 125.37L88.6582 127.725L89.9609 129.639L92.846 156.547L100.743 155.384C100.199 134.416 100.007 134.305 96.9603 126.761L89.8873 126.268L89.2985 125.37Z" fill="#92E3A9"/>
<path opacity="0.6" d="M89.2985 125.37L88.6582 127.725L89.9609 129.639L92.846 156.547L100.743 155.384C100.199 134.416 100.007 134.305 96.9603 126.761L89.8873 126.268L89.2985 125.37Z" fill="white"/>
<path d="M76.4046 125.37L83.4186 128.314L81.6964 131.258L83.3966 158.807L72.7687 161.92C72.7687 161.92 65.0555 141.68 69.0078 129.668L75.9703 127.659L76.4046 125.37Z" fill="#92E3A9"/>
<path opacity="0.6" d="M83.1247 154.42L83.397 158.785L78.6572 160.168L72.7692 161.891C70.5937 155.905 69.0736 149.701 68.2354 143.388C67.6687 138.596 67.6834 133.658 69.0082 129.639L75.9708 127.63L76.405 125.37L83.4191 128.314L81.6968 131.258L82.374 142.195L83.1247 154.42Z" fill="white"/>
<path opacity="0.2" d="M89.3429 145.816C89.3429 145.816 86.7006 149.666 83.1237 154.42C81.74 156.26 80.1797 158.233 78.6561 160.168L72.7681 161.891C70.5927 155.905 69.0726 149.701 68.2344 143.388C71.1195 140.495 74.6523 136.992 74.6523 136.992C74.6523 136.992 76.2715 141.996 75.5576 146.346L82.3729 142.173L84.4926 140.878L89.3429 145.816Z" fill="black"/>
<path d="M83.5879 142.71L90.8817 136.984C91.3041 135.746 91.8234 134.542 92.4346 133.385C92.8762 132.848 99.272 130.493 99.7946 130.441C100.317 130.39 99.7946 135.682 98.9924 136.58C98.1901 137.477 93.0455 139.259 93.0455 139.259L85.4205 146.464L83.5879 142.71Z" fill="#E4897B"/>
<path d="M69.0069 129.639C64.7234 131.788 62.8172 155.973 70.2581 160.146C77.6991 164.319 88.8053 145.426 88.8053 145.426L84.485 140.841C84.485 140.841 75.4322 148.422 74.3429 147.723C73.2536 147.023 74.4901 139.627 74.4901 139.627C74.4901 139.627 75.7634 137.419 73.0844 133.864C70.4053 130.309 69.0069 129.639 69.0069 129.639Z" fill="#92E3A9"/>
<path opacity="0.6" d="M69.0069 129.639C64.7234 131.788 62.8172 155.973 70.2581 160.146C77.6991 164.319 88.8053 145.426 88.8053 145.426L84.485 140.841C84.485 140.841 75.4322 148.422 74.3429 147.723C73.2536 147.023 74.4901 139.627 74.4901 139.627C74.4901 139.627 75.7634 137.419 73.0844 133.864C70.4053 130.309 69.0069 129.639 69.0069 129.639Z" fill="white"/>
<path d="M88.8868 147.134L90.1821 146.354L85.3319 139.244L83.5508 140.237L88.8868 147.134Z" fill="#92E3A9"/>
</svg>
